<?xml version="1.0" encoding="utf-8" standalone="no"?>
<!DOCTYPE svg PUBLIC "-//W3C//DTD SVG 1.1//EN"
  "http://www.w3.org/Graphics/SVG/1.1/DTD/svg11.dtd">
<svg xmlns:xlink="http://www.w3.org/1999/xlink" width="406.885938pt" height="207.83625pt" viewBox="0 0 406.885938 207.83625" xmlns="http://www.w3.org/2000/svg" version="1.1">
 <metadata>
  <rdf:RDF xmlns:dc="http://purl.org/dc/elements/1.1/" xmlns:cc="http://creativecommons.org/ns#" xmlns:rdf="http://www.w3.org/1999/02/22-rdf-syntax-ns#">
   <cc:Work>
    <dc:type rdf:resource="http://purl.org/dc/dcmitype/StillImage"/>
    <dc:date>2022-07-31T19:15:26.058561</dc:date>
    <dc:format>image/svg+xml</dc:format>
    <dc:creator>
     <cc:Agent>
      <dc:title>Matplotlib v3.5.2, https://matplotlib.org/</dc:title>
     </cc:Agent>
    </dc:creator>
   </cc:Work>
  </rdf:RDF>
 </metadata>
 <defs>
  <style type="text/css">*{stroke-linejoin: round; stroke-linecap: butt}</style>
 </defs>
 <g id="figure_1">
  <g id="patch_1">
   <path d="M 0 207.83625 
L 406.885938 207.83625 
L 406.885938 0 
L 0 0 
L 0 207.83625 
z
" style="fill: none"/>
  </g>
  <g id="axes_1">
   <g id="patch_2">
    <path d="M 52.160938 170.28 
L 386.960938 170.28 
L 386.960938 7.2 
L 52.160938 7.2 
z
" style="fill: #ffffff"/>
   </g>
   <g id="matplotlib.axis_1">
    <g id="xtick_1">
     <g id="line2d_1">
      <path d="M 118.852829 170.28 
L 118.852829 7.2 
" clip-path="url(#pb67adf4e09)" style="fill: none; stroke: #b0b0b0; stroke-width: 0.8; stroke-linecap: square"/>
     </g>
     <g id="line2d_2">
      <defs>
       <path id="mee6a3e4f00" d="M 0 0 
L 0 3.5 
" style="stroke: #000000; stroke-width: 0.8"/>
      </defs>
      <g>
       <use xlink:href="#mee6a3e4f00" x="118.852829" y="170.28" style="stroke: #000000; stroke-width: 0.8"/>
      </g>
     </g>
     <g id="text_1">
      <!-- 200 -->
      <g transform="translate(109.309079 184.878438)scale(0.1 -0.1)">
       <defs>
        <path id="DejaVuSans-32" d="M 1228 531 
L 3431 531 
L 3431 0 
L 469 0 
L 469 531 
Q 828 903 1448 1529 
Q 2069 2156 2228 2338 
Q 2531 2678 2651 2914 
Q 2772 3150 2772 3378 
Q 2772 3750 2511 3984 
Q 2250 4219 1831 4219 
Q 1534 4219 1204 4116 
Q 875 4013 500 3803 
L 500 4441 
Q 881 4594 1212 4672 
Q 1544 4750 1819 4750 
Q 2544 4750 2975 4387 
Q 3406 4025 3406 3419 
Q 3406 3131 3298 2873 
Q 3191 2616 2906 2266 
Q 2828 2175 2409 1742 
Q 1991 1309 1228 531 
z
" transform="scale(0.015625)"/>
        <path id="DejaVuSans-30" d="M 2034 4250 
Q 1547 4250 1301 3770 
Q 1056 3291 1056 2328 
Q 1056 1369 1301 889 
Q 1547 409 2034 409 
Q 2525 409 2770 889 
Q 3016 1369 3016 2328 
Q 3016 3291 2770 3770 
Q 2525 4250 2034 4250 
z
M 2034 4750 
Q 2819 4750 3233 4129 
Q 3647 3509 3647 2328 
Q 3647 1150 3233 529 
Q 2819 -91 2034 -91 
Q 1250 -91 836 529 
Q 422 1150 422 2328 
Q 422 3509 836 4129 
Q 1250 4750 2034 4750 
z
" transform="scale(0.015625)"/>
       </defs>
       <use xlink:href="#DejaVuSans-32"/>
       <use xlink:href="#DejaVuSans-30" x="63.623047"/>
       <use xlink:href="#DejaVuSans-30" x="127.246094"/>
      </g>
     </g>
    </g>
    <g id="xtick_2">
     <g id="line2d_3">
      <path d="M 185.879856 170.28 
L 185.879856 7.2 
" clip-path="url(#pb67adf4e09)" style="fill: none; stroke: #b0b0b0; stroke-width: 0.8; stroke-linecap: square"/>
     </g>
     <g id="line2d_4">
      <g>
       <use xlink:href="#mee6a3e4f00" x="185.879856" y="170.28" style="stroke: #000000; stroke-width: 0.8"/>
      </g>
     </g>
     <g id="text_2">
      <!-- 400 -->
      <g transform="translate(176.336106 184.878438)scale(0.1 -0.1)">
       <defs>
        <path id="DejaVuSans-34" d="M 2419 4116 
L 825 1625 
L 2419 1625 
L 2419 4116 
z
M 2253 4666 
L 3047 4666 
L 3047 1625 
L 3713 1625 
L 3713 1100 
L 3047 1100 
L 3047 0 
L 2419 0 
L 2419 1100 
L 313 1100 
L 313 1709 
L 2253 4666 
z
" transform="scale(0.015625)"/>
       </defs>
       <use xlink:href="#DejaVuSans-34"/>
       <use xlink:href="#DejaVuSans-30" x="63.623047"/>
       <use xlink:href="#DejaVuSans-30" x="127.246094"/>
      </g>
     </g>
    </g>
    <g id="xtick_3">
     <g id="line2d_5">
      <path d="M 252.906883 170.28 
L 252.906883 7.2 
" clip-path="url(#pb67adf4e09)" style="fill: none; stroke: #b0b0b0; stroke-width: 0.8; stroke-linecap: square"/>
     </g>
     <g id="line2d_6">
      <g>
       <use xlink:href="#mee6a3e4f00" x="252.906883" y="170.28" style="stroke: #000000; stroke-width: 0.8"/>
      </g>
     </g>
     <g id="text_3">
      <!-- 600 -->
      <g transform="translate(243.363133 184.878438)scale(0.1 -0.1)">
       <defs>
        <path id="DejaVuSans-36" d="M 2113 2584 
Q 1688 2584 1439 2293 
Q 1191 2003 1191 1497 
Q 1191 994 1439 701 
Q 1688 409 2113 409 
Q 2538 409 2786 701 
Q 3034 994 3034 1497 
Q 3034 2003 2786 2293 
Q 2538 2584 2113 2584 
z
M 3366 4563 
L 3366 3988 
Q 3128 4100 2886 4159 
Q 2644 4219 2406 4219 
Q 1781 4219 1451 3797 
Q 1122 3375 1075 2522 
Q 1259 2794 1537 2939 
Q 1816 3084 2150 3084 
Q 2853 3084 3261 2657 
Q 3669 2231 3669 1497 
Q 3669 778 3244 343 
Q 2819 -91 2113 -91 
Q 1303 -91 875 529 
Q 447 1150 447 2328 
Q 447 3434 972 4092 
Q 1497 4750 2381 4750 
Q 2619 4750 2861 4703 
Q 3103 4656 3366 4563 
z
" transform="scale(0.015625)"/>
       </defs>
       <use xlink:href="#DejaVuSans-36"/>
       <use xlink:href="#DejaVuSans-30" x="63.623047"/>
       <use xlink:href="#DejaVuSans-30" x="127.246094"/>
      </g>
     </g>
    </g>
    <g id="xtick_4">
     <g id="line2d_7">
      <path d="M 319.93391 170.28 
L 319.93391 7.2 
" clip-path="url(#pb67adf4e09)" style="fill: none; stroke: #b0b0b0; stroke-width: 0.8; stroke-linecap: square"/>
     </g>
     <g id="line2d_8">
      <g>
       <use xlink:href="#mee6a3e4f00" x="319.93391" y="170.28" style="stroke: #000000; stroke-width: 0.8"/>
      </g>
     </g>
     <g id="text_4">
      <!-- 800 -->
      <g transform="translate(310.39016 184.878438)scale(0.1 -0.1)">
       <defs>
        <path id="DejaVuSans-38" d="M 2034 2216 
Q 1584 2216 1326 1975 
Q 1069 1734 1069 1313 
Q 1069 891 1326 650 
Q 1584 409 2034 409 
Q 2484 409 2743 651 
Q 3003 894 3003 1313 
Q 3003 1734 2745 1975 
Q 2488 2216 2034 2216 
z
M 1403 2484 
Q 997 2584 770 2862 
Q 544 3141 544 3541 
Q 544 4100 942 4425 
Q 1341 4750 2034 4750 
Q 2731 4750 3128 4425 
Q 3525 4100 3525 3541 
Q 3525 3141 3298 2862 
Q 3072 2584 2669 2484 
Q 3125 2378 3379 2068 
Q 3634 1759 3634 1313 
Q 3634 634 3220 271 
Q 2806 -91 2034 -91 
Q 1263 -91 848 271 
Q 434 634 434 1313 
Q 434 1759 690 2068 
Q 947 2378 1403 2484 
z
M 1172 3481 
Q 1172 3119 1398 2916 
Q 1625 2713 2034 2713 
Q 2441 2713 2670 2916 
Q 2900 3119 2900 3481 
Q 2900 3844 2670 4047 
Q 2441 4250 2034 4250 
Q 1625 4250 1398 4047 
Q 1172 3844 1172 3481 
z
" transform="scale(0.015625)"/>
       </defs>
       <use xlink:href="#DejaVuSans-38"/>
       <use xlink:href="#DejaVuSans-30" x="63.623047"/>
       <use xlink:href="#DejaVuSans-30" x="127.246094"/>
      </g>
     </g>
    </g>
    <g id="xtick_5">
     <g id="line2d_9">
      <path d="M 386.960938 170.28 
L 386.960938 7.2 
" clip-path="url(#pb67adf4e09)" style="fill: none; stroke: #b0b0b0; stroke-width: 0.8; stroke-linecap: square"/>
     </g>
     <g id="line2d_10">
      <g>
       <use xlink:href="#mee6a3e4f00" x="386.960938" y="170.28" style="stroke: #000000; stroke-width: 0.8"/>
      </g>
     </g>
     <g id="text_5">
      <!-- 1000 -->
      <g transform="translate(374.235937 184.878438)scale(0.1 -0.1)">
       <defs>
        <path id="DejaVuSans-31" d="M 794 531 
L 1825 531 
L 1825 4091 
L 703 3866 
L 703 4441 
L 1819 4666 
L 2450 4666 
L 2450 531 
L 3481 531 
L 3481 0 
L 794 0 
L 794 531 
z
" transform="scale(0.015625)"/>
       </defs>
       <use xlink:href="#DejaVuSans-31"/>
       <use xlink:href="#DejaVuSans-30" x="63.623047"/>
       <use xlink:href="#DejaVuSans-30" x="127.246094"/>
       <use xlink:href="#DejaVuSans-30" x="190.869141"/>
      </g>
     </g>
    </g>
    <g id="text_6">
     <!-- tiempo -->
     <g transform="translate(202.03125 198.556563)scale(0.1 -0.1)">
      <defs>
       <path id="DejaVuSans-74" d="M 1172 4494 
L 1172 3500 
L 2356 3500 
L 2356 3053 
L 1172 3053 
L 1172 1153 
Q 1172 725 1289 603 
Q 1406 481 1766 481 
L 2356 481 
L 2356 0 
L 1766 0 
Q 1100 0 847 248 
Q 594 497 594 1153 
L 594 3053 
L 172 3053 
L 172 3500 
L 594 3500 
L 594 4494 
L 1172 4494 
z
" transform="scale(0.015625)"/>
       <path id="DejaVuSans-69" d="M 603 3500 
L 1178 3500 
L 1178 0 
L 603 0 
L 603 3500 
z
M 603 4863 
L 1178 4863 
L 1178 4134 
L 603 4134 
L 603 4863 
z
" transform="scale(0.015625)"/>
       <path id="DejaVuSans-65" d="M 3597 1894 
L 3597 1613 
L 953 1613 
Q 991 1019 1311 708 
Q 1631 397 2203 397 
Q 2534 397 2845 478 
Q 3156 559 3463 722 
L 3463 178 
Q 3153 47 2828 -22 
Q 2503 -91 2169 -91 
Q 1331 -91 842 396 
Q 353 884 353 1716 
Q 353 2575 817 3079 
Q 1281 3584 2069 3584 
Q 2775 3584 3186 3129 
Q 3597 2675 3597 1894 
z
M 3022 2063 
Q 3016 2534 2758 2815 
Q 2500 3097 2075 3097 
Q 1594 3097 1305 2825 
Q 1016 2553 972 2059 
L 3022 2063 
z
" transform="scale(0.015625)"/>
       <path id="DejaVuSans-6d" d="M 3328 2828 
Q 3544 3216 3844 3400 
Q 4144 3584 4550 3584 
Q 5097 3584 5394 3201 
Q 5691 2819 5691 2113 
L 5691 0 
L 5113 0 
L 5113 2094 
Q 5113 2597 4934 2840 
Q 4756 3084 4391 3084 
Q 3944 3084 3684 2787 
Q 3425 2491 3425 1978 
L 3425 0 
L 2847 0 
L 2847 2094 
Q 2847 2600 2669 2842 
Q 2491 3084 2119 3084 
Q 1678 3084 1418 2786 
Q 1159 2488 1159 1978 
L 1159 0 
L 581 0 
L 581 3500 
L 1159 3500 
L 1159 2956 
Q 1356 3278 1631 3431 
Q 1906 3584 2284 3584 
Q 2666 3584 2933 3390 
Q 3200 3197 3328 2828 
z
" transform="scale(0.015625)"/>
       <path id="DejaVuSans-70" d="M 1159 525 
L 1159 -1331 
L 581 -1331 
L 581 3500 
L 1159 3500 
L 1159 2969 
Q 1341 3281 1617 3432 
Q 1894 3584 2278 3584 
Q 2916 3584 3314 3078 
Q 3713 2572 3713 1747 
Q 3713 922 3314 415 
Q 2916 -91 2278 -91 
Q 1894 -91 1617 61 
Q 1341 213 1159 525 
z
M 3116 1747 
Q 3116 2381 2855 2742 
Q 2594 3103 2138 3103 
Q 1681 3103 1420 2742 
Q 1159 2381 1159 1747 
Q 1159 1113 1420 752 
Q 1681 391 2138 391 
Q 2594 391 2855 752 
Q 3116 1113 3116 1747 
z
" transform="scale(0.015625)"/>
       <path id="DejaVuSans-6f" d="M 1959 3097 
Q 1497 3097 1228 2736 
Q 959 2375 959 1747 
Q 959 1119 1226 758 
Q 1494 397 1959 397 
Q 2419 397 2687 759 
Q 2956 1122 2956 1747 
Q 2956 2369 2687 2733 
Q 2419 3097 1959 3097 
z
M 1959 3584 
Q 2709 3584 3137 3096 
Q 3566 2609 3566 1747 
Q 3566 888 3137 398 
Q 2709 -91 1959 -91 
Q 1206 -91 779 398 
Q 353 888 353 1747 
Q 353 2609 779 3096 
Q 1206 3584 1959 3584 
z
" transform="scale(0.015625)"/>
      </defs>
      <use xlink:href="#DejaVuSans-74"/>
      <use xlink:href="#DejaVuSans-69" x="39.208984"/>
      <use xlink:href="#DejaVuSans-65" x="66.992188"/>
      <use xlink:href="#DejaVuSans-6d" x="128.515625"/>
      <use xlink:href="#DejaVuSans-70" x="225.927734"/>
      <use xlink:href="#DejaVuSans-6f" x="289.404297"/>
     </g>
    </g>
   </g>
   <g id="matplotlib.axis_2">
    <g id="ytick_1">
     <g id="line2d_11">
      <path d="M 52.160938 170.069261 
L 386.960938 170.069261 
" clip-path="url(#pb67adf4e09)" style="fill: none; stroke: #b0b0b0; stroke-width: 0.8; stroke-linecap: square"/>
     </g>
     <g id="line2d_12">
      <defs>
       <path id="mcf7123929d" d="M 0 0 
L -3.5 0 
" style="stroke: #000000; stroke-width: 0.8"/>
      </defs>
      <g>
       <use xlink:href="#mcf7123929d" x="52.160938" y="170.069261" style="stroke: #000000; stroke-width: 0.8"/>
      </g>
     </g>
     <g id="text_7">
      <!-- −1.5 -->
      <g transform="translate(20.878125 173.86848)scale(0.1 -0.1)">
       <defs>
        <path id="DejaVuSans-2212" d="M 678 2272 
L 4684 2272 
L 4684 1741 
L 678 1741 
L 678 2272 
z
" transform="scale(0.015625)"/>
        <path id="DejaVuSans-2e" d="M 684 794 
L 1344 794 
L 1344 0 
L 684 0 
L 684 794 
z
" transform="scale(0.015625)"/>
        <path id="DejaVuSans-35" d="M 691 4666 
L 3169 4666 
L 3169 4134 
L 1269 4134 
L 1269 2991 
Q 1406 3038 1543 3061 
Q 1681 3084 1819 3084 
Q 2600 3084 3056 2656 
Q 3513 2228 3513 1497 
Q 3513 744 3044 326 
Q 2575 -91 1722 -91 
Q 1428 -91 1123 -41 
Q 819 9 494 109 
L 494 744 
Q 775 591 1075 516 
Q 1375 441 1709 441 
Q 2250 441 2565 725 
Q 2881 1009 2881 1497 
Q 2881 1984 2565 2268 
Q 2250 2553 1709 2553 
Q 1456 2553 1204 2497 
Q 953 2441 691 2322 
L 691 4666 
z
" transform="scale(0.015625)"/>
       </defs>
       <use xlink:href="#DejaVuSans-2212"/>
       <use xlink:href="#DejaVuSans-31" x="83.789062"/>
       <use xlink:href="#DejaVuSans-2e" x="147.412109"/>
       <use xlink:href="#DejaVuSans-35" x="179.199219"/>
      </g>
     </g>
    </g>
    <g id="ytick_2">
     <g id="line2d_13">
      <path d="M 52.160938 144.48581 
L 386.960938 144.48581 
" clip-path="url(#pb67adf4e09)" style="fill: none; stroke: #b0b0b0; stroke-width: 0.8; stroke-linecap: square"/>
     </g>
     <g id="line2d_14">
      <g>
       <use xlink:href="#mcf7123929d" x="52.160938" y="144.48581" style="stroke: #000000; stroke-width: 0.8"/>
      </g>
     </g>
     <g id="text_8">
      <!-- −1.0 -->
      <g transform="translate(20.878125 148.285028)scale(0.1 -0.1)">
       <use xlink:href="#DejaVuSans-2212"/>
       <use xlink:href="#DejaVuSans-31" x="83.789062"/>
       <use xlink:href="#DejaVuSans-2e" x="147.412109"/>
       <use xlink:href="#DejaVuSans-30" x="179.199219"/>
      </g>
     </g>
    </g>
    <g id="ytick_3">
     <g id="line2d_15">
      <path d="M 52.160938 118.902359 
L 386.960938 118.902359 
" clip-path="url(#pb67adf4e09)" style="fill: none; stroke: #b0b0b0; stroke-width: 0.8; stroke-linecap: square"/>
     </g>
     <g id="line2d_16">
      <g>
       <use xlink:href="#mcf7123929d" x="52.160938" y="118.902359" style="stroke: #000000; stroke-width: 0.8"/>
      </g>
     </g>
     <g id="text_9">
      <!-- −0.5 -->
      <g transform="translate(20.878125 122.701577)scale(0.1 -0.1)">
       <use xlink:href="#DejaVuSans-2212"/>
       <use xlink:href="#DejaVuSans-30" x="83.789062"/>
       <use xlink:href="#DejaVuSans-2e" x="147.412109"/>
       <use xlink:href="#DejaVuSans-35" x="179.199219"/>
      </g>
     </g>
    </g>
    <g id="ytick_4">
     <g id="line2d_17">
      <path d="M 52.160938 93.318908 
L 386.960938 93.318908 
" clip-path="url(#pb67adf4e09)" style="fill: none; stroke: #b0b0b0; stroke-width: 0.8; stroke-linecap: square"/>
     </g>
     <g id="line2d_18">
      <g>
       <use xlink:href="#mcf7123929d" x="52.160938" y="93.318908" style="stroke: #000000; stroke-width: 0.8"/>
      </g>
     </g>
     <g id="text_10">
      <!-- 0.0 -->
      <g transform="translate(29.257812 97.118126)scale(0.1 -0.1)">
       <use xlink:href="#DejaVuSans-30"/>
       <use xlink:href="#DejaVuSans-2e" x="63.623047"/>
       <use xlink:href="#DejaVuSans-30" x="95.410156"/>
      </g>
     </g>
    </g>
    <g id="ytick_5">
     <g id="line2d_19">
      <path d="M 52.160938 67.735457 
L 386.960938 67.735457 
" clip-path="url(#pb67adf4e09)" style="fill: none; stroke: #b0b0b0; stroke-width: 0.8; stroke-linecap: square"/>
     </g>
     <g id="line2d_20">
      <g>
       <use xlink:href="#mcf7123929d" x="52.160938" y="67.735457" style="stroke: #000000; stroke-width: 0.8"/>
      </g>
     </g>
     <g id="text_11">
      <!-- 0.5 -->
      <g transform="translate(29.257812 71.534675)scale(0.1 -0.1)">
       <use xlink:href="#DejaVuSans-30"/>
       <use xlink:href="#DejaVuSans-2e" x="63.623047"/>
       <use xlink:href="#DejaVuSans-35" x="95.410156"/>
      </g>
     </g>
    </g>
    <g id="ytick_6">
     <g id="line2d_21">
      <path d="M 52.160938 42.152005 
L 386.960938 42.152005 
" clip-path="url(#pb67adf4e09)" style="fill: none; stroke: #b0b0b0; stroke-width: 0.8; stroke-linecap: square"/>
     </g>
     <g id="line2d_22">
      <g>
       <use xlink:href="#mcf7123929d" x="52.160938" y="42.152005" style="stroke: #000000; stroke-width: 0.8"/>
      </g>
     </g>
     <g id="text_12">
      <!-- 1.0 -->
      <g transform="translate(29.257812 45.951224)scale(0.1 -0.1)">
       <use xlink:href="#DejaVuSans-31"/>
       <use xlink:href="#DejaVuSans-2e" x="63.623047"/>
       <use xlink:href="#DejaVuSans-30" x="95.410156"/>
      </g>
     </g>
    </g>
    <g id="ytick_7">
     <g id="line2d_23">
      <path d="M 52.160938 16.568554 
L 386.960938 16.568554 
" clip-path="url(#pb67adf4e09)" style="fill: none; stroke: #b0b0b0; stroke-width: 0.8; stroke-linecap: square"/>
     </g>
     <g id="line2d_24">
      <g>
       <use xlink:href="#mcf7123929d" x="52.160938" y="16.568554" style="stroke: #000000; stroke-width: 0.8"/>
      </g>
     </g>
     <g id="text_13">
      <!-- 1.5 -->
      <g transform="translate(29.257812 20.367773)scale(0.1 -0.1)">
       <use xlink:href="#DejaVuSans-31"/>
       <use xlink:href="#DejaVuSans-2e" x="63.623047"/>
       <use xlink:href="#DejaVuSans-35" x="95.410156"/>
      </g>
     </g>
    </g>
    <g id="text_14">
     <!-- x -->
     <g transform="translate(14.798438 91.699375)rotate(-90)scale(0.1 -0.1)">
      <defs>
       <path id="DejaVuSans-78" d="M 3513 3500 
L 2247 1797 
L 3578 0 
L 2900 0 
L 1881 1375 
L 863 0 
L 184 0 
L 1544 1831 
L 300 3500 
L 978 3500 
L 1906 2253 
L 2834 3500 
L 3513 3500 
z
" transform="scale(0.015625)"/>
      </defs>
      <use xlink:href="#DejaVuSans-78"/>
     </g>
    </g>
   </g>
   <g id="line2d_25">
    <path d="M 52.160938 92.107896 
L 52.496073 82.889774 
L 52.831208 106.380085 
L 53.166343 92.484658 
L 53.501478 88.654167 
L 53.836613 87.527893 
L 54.171748 73.212389 
L 54.506883 109.175185 
L 54.842019 88.344974 
L 55.177154 74.884464 
L 55.512289 83.797728 
L 55.847424 96.053025 
L 56.182559 99.26352 
L 56.517694 100.225922 
L 56.852829 100.813108 
L 57.187965 77.220071 
L 57.5231 95.136693 
L 57.858235 87.317426 
L 58.19337 82.103755 
L 58.528505 89.67096 
L 58.86364 76.847972 
L 59.198775 78.779439 
L 59.53391 69.28332 
L 60.204181 94.771269 
L 60.539316 74.504419 
L 60.874451 87.509233 
L 61.209586 87.533015 
L 61.544721 85.296787 
L 61.879856 76.68592 
L 62.214992 78.66136 
L 62.550127 72.296384 
L 62.885262 58.215345 
L 63.220397 80.628553 
L 63.555532 55.211118 
L 63.890667 91.295773 
L 64.225802 85.834256 
L 64.560938 63.926345 
L 64.896073 96.971463 
L 65.231208 79.34806 
L 65.566343 82.20422 
L 66.236613 66.942708 
L 66.571748 67.025656 
L 66.906883 81.605934 
L 67.242019 83.755921 
L 67.577154 75.107879 
L 67.912289 44.89565 
L 68.247424 94.108703 
L 68.582559 73.593127 
L 68.917694 72.415077 
L 69.252829 73.863179 
L 69.587965 53.345564 
L 69.9231 59.219084 
L 70.258235 69.807712 
L 70.59337 56.143828 
L 70.928505 74.975793 
L 71.26364 62.463162 
L 71.598775 44.694373 
L 71.93391 46.604945 
L 72.604181 64.639333 
L 72.939316 50.41341 
L 73.274451 74.638851 
L 73.609586 74.831555 
L 74.279856 43.731196 
L 74.614992 61.956288 
L 74.950127 55.008152 
L 75.285262 75.143215 
L 75.620397 49.007568 
L 75.955532 60.365419 
L 76.290667 63.887958 
L 76.625802 61.558818 
L 76.960938 44.633036 
L 77.296073 36.133108 
L 77.631208 57.34264 
L 77.966343 40.578524 
L 78.301478 39.657769 
L 78.636613 57.260244 
L 78.971748 67.032688 
L 79.306883 66.415546 
L 79.642019 62.204833 
L 79.977154 55.566278 
L 80.312289 58.650934 
L 80.647424 50.158054 
L 80.982559 35.601104 
L 81.317694 50.3024 
L 81.652829 48.085069 
L 81.987965 62.797952 
L 82.3231 30.102439 
L 82.658235 52.732051 
L 82.99337 51.824975 
L 83.328505 24.690943 
L 83.66364 51.441257 
L 83.998775 54.883919 
L 84.33391 44.60582 
L 84.669046 44.899978 
L 85.004181 51.928165 
L 85.339316 73.557781 
L 85.674451 52.846552 
L 86.009586 86.451813 
L 86.344721 35.100939 
L 86.679856 35.659038 
L 87.014992 42.761035 
L 87.350127 58.563667 
L 87.685262 53.801321 
L 88.020397 55.217608 
L 88.355532 62.012486 
L 88.690667 57.927586 
L 89.025802 42.545062 
L 89.360938 48.286142 
L 89.696073 48.11012 
L 90.031208 53.906313 
L 90.366343 36.965925 
L 91.036613 48.228242 
L 91.371748 52.588516 
L 91.706883 46.552373 
L 92.042019 52.661754 
L 92.377154 52.961984 
L 92.712289 37.343605 
L 93.047424 33.305598 
L 93.382559 48.668911 
L 94.052829 31.262968 
L 94.387965 34.206279 
L 95.058235 58.255987 
L 95.39337 35.966157 
L 95.728505 49.122396 
L 96.06364 52.842637 
L 96.398775 52.120813 
L 96.73391 63.385905 
L 97.069046 47.859684 
L 97.404181 52.622344 
L 97.739316 44.511429 
L 98.074451 47.21151 
L 98.409586 45.939915 
L 98.744721 24.525602 
L 99.079856 47.786706 
L 99.414992 43.602925 
L 99.750127 46.944416 
L 100.085262 51.665197 
L 100.420397 48.563663 
L 100.755532 57.684024 
L 101.090667 51.577817 
L 101.425802 49.032616 
L 101.760938 42.125497 
L 102.096073 57.875508 
L 102.431208 42.997104 
L 102.766343 46.860572 
L 103.101478 38.966755 
L 103.436613 66.851174 
L 103.771748 43.645452 
L 104.106883 42.487704 
L 104.442019 45.610315 
L 104.777154 54.487532 
L 105.112289 46.064919 
L 105.447424 31.670346 
L 105.782559 41.032222 
L 106.117694 43.159154 
L 106.452829 38.559737 
L 106.787965 27.991299 
L 107.1231 39.88948 
L 107.458235 42.04888 
L 107.79337 38.299712 
L 108.128505 45.857827 
L 108.46364 40.586795 
L 108.798775 19.673669 
L 109.13391 25.746083 
L 109.469046 57.90123 
L 109.804181 53.548162 
L 110.139316 58.831094 
L 110.474451 33.899568 
L 110.809586 35.22082 
L 111.144721 31.013764 
L 111.479856 21.266492 
L 111.814992 62.083403 
L 112.150127 50.684593 
L 112.485262 55.549839 
L 112.820397 56.767014 
L 113.155532 29.149296 
L 113.490667 41.606076 
L 113.825802 65.98119 
L 114.160938 48.126617 
L 114.496073 60.764538 
L 114.831208 39.759077 
L 115.166343 40.284287 
L 115.501478 45.330571 
L 115.836613 56.219114 
L 116.171748 58.783017 
L 116.506883 65.267418 
L 116.842019 56.615971 
L 117.177154 53.52093 
L 117.512289 58.366462 
L 117.847424 72.796541 
L 118.182559 58.522971 
L 118.517694 50.716997 
L 118.852829 57.350618 
L 119.187965 52.311654 
L 119.5231 54.700398 
L 119.858235 58.255188 
L 120.19337 29.811026 
L 120.528505 40.243383 
L 120.86364 35.955074 
L 121.198775 42.014802 
L 121.869046 44.65433 
L 122.204181 75.383296 
L 122.539316 50.290241 
L 122.874451 35.923545 
L 123.209586 59.272108 
L 123.544721 59.71013 
L 123.879856 51.279975 
L 124.214992 52.450083 
L 124.550127 61.018564 
L 124.885262 61.144517 
L 125.220397 49.830562 
L 125.555532 47.382222 
L 125.890667 56.680437 
L 126.225802 50.08854 
L 126.560938 72.147881 
L 126.896073 55.786765 
L 127.231208 59.619198 
L 127.566343 46.153281 
L 127.901478 59.421959 
L 128.236613 54.556451 
L 128.571748 62.690575 
L 128.906883 49.625208 
L 129.242019 57.71278 
L 129.577154 41.623795 
L 130.247424 57.750668 
L 130.582559 53.044066 
L 130.917694 57.006978 
L 131.252829 71.570514 
L 131.587965 60.264343 
L 131.9231 34.845373 
L 132.258235 55.308058 
L 132.59337 52.042266 
L 132.928505 65.94372 
L 133.26364 49.837482 
L 133.598775 63.33311 
L 133.93391 71.19778 
L 134.269046 53.708721 
L 134.604181 62.410672 
L 134.939316 67.79554 
L 135.274451 63.584882 
L 135.609586 75.740323 
L 136.279856 57.798315 
L 136.614992 58.524413 
L 136.950127 73.829494 
L 137.285262 79.198612 
L 137.955532 58.986117 
L 138.290667 58.966266 
L 138.625802 58.74441 
L 138.960938 55.351539 
L 139.296073 74.894141 
L 139.631208 52.71737 
L 139.966343 64.427461 
L 140.301478 63.614069 
L 140.636613 84.910196 
L 140.971748 68.415208 
L 141.306883 83.917483 
L 141.642019 60.600802 
L 141.977154 55.832536 
L 142.312289 81.252451 
L 142.647424 72.627036 
L 142.982559 79.653699 
L 143.317694 54.204954 
L 143.987965 78.741403 
L 144.3231 76.835573 
L 144.658235 90.135885 
L 144.99337 82.162228 
L 145.328505 68.581182 
L 145.66364 74.426522 
L 145.998775 73.411823 
L 146.33391 72.993188 
L 146.669046 76.325597 
L 147.004181 81.103415 
L 147.339316 64.130855 
L 148.009586 87.51985 
L 148.679856 69.287645 
L 149.014992 89.905815 
L 149.350127 78.772226 
L 149.685262 77.037816 
L 150.020397 86.848558 
L 150.355532 76.582679 
L 150.690667 80.162179 
L 151.025802 85.372148 
L 151.360938 80.427314 
L 151.696073 106.587778 
L 152.031208 70.510639 
L 152.366343 103.925841 
L 152.701478 83.574859 
L 153.036613 71.806718 
L 153.371748 82.399315 
L 153.706883 69.848331 
L 154.377154 99.672871 
L 154.712289 80.151032 
L 155.047424 90.32924 
L 155.382559 107.248162 
L 155.717694 77.158158 
L 156.052829 80.233328 
L 156.387965 67.942773 
L 156.7231 96.999222 
L 157.058235 91.141601 
L 157.39337 82.189164 
L 157.728505 103.410622 
L 158.06364 98.185514 
L 158.398775 113.594714 
L 158.73391 98.369431 
L 159.069046 99.681292 
L 159.404181 84.347177 
L 159.739316 110.950367 
L 160.074451 93.744599 
L 160.409586 107.834318 
L 160.744721 100.744141 
L 161.079856 109.694184 
L 161.414992 88.261509 
L 161.750127 108.407579 
L 162.085262 93.506435 
L 162.420397 101.783443 
L 162.755532 102.194096 
L 163.090667 91.992856 
L 163.425802 103.790354 
L 163.760938 102.839683 
L 164.096073 86.137835 
L 164.431208 108.153635 
L 164.766343 98.671342 
L 165.101478 92.503795 
L 165.436613 101.800457 
L 165.771748 100.074064 
L 166.106883 112.124466 
L 166.442019 94.471687 
L 166.777154 125.295879 
L 167.447424 95.462135 
L 167.782559 94.026557 
L 168.117694 124.667105 
L 168.452829 96.738255 
L 168.787965 80.300626 
L 169.1231 110.470871 
L 169.458235 107.582831 
L 169.79337 114.43122 
L 170.128505 85.127508 
L 170.46364 121.554516 
L 170.798775 110.581411 
L 171.13391 116.937092 
L 171.469046 111.127372 
L 171.804181 125.097713 
L 172.139316 119.171456 
L 172.474451 109.308984 
L 172.809586 94.503533 
L 173.144721 121.185062 
L 173.479856 127.760929 
L 173.814992 117.990316 
L 174.150127 99.151208 
L 174.485262 113.719557 
L 174.820397 119.010608 
L 175.155532 109.802262 
L 175.490667 124.057127 
L 175.825802 113.882059 
L 176.160938 116.158321 
L 176.496073 125.474914 
L 176.831208 109.88374 
L 177.166343 119.993578 
L 177.501478 107.657049 
L 177.836613 133.410683 
L 178.842019 105.6137 
L 179.177154 134.964643 
L 179.512289 120.585013 
L 179.847424 130.321965 
L 180.517694 109.102869 
L 180.852829 136.708837 
L 181.5231 112.301906 
L 181.858235 139.5252 
L 182.19337 111.131842 
L 182.528505 109.967033 
L 182.86364 109.311099 
L 183.198775 137.682453 
L 183.53391 103.27279 
L 183.869046 145.101519 
L 184.204181 109.663665 
L 184.539316 136.166902 
L 184.874451 134.311096 
L 185.209586 145.308379 
L 185.544721 144.826007 
L 185.879856 141.667183 
L 186.214992 142.383983 
L 186.550127 143.517967 
L 186.885262 137.923746 
L 187.555532 150.378147 
L 187.890667 131.8184 
L 188.225802 122.971516 
L 188.560938 138.136478 
L 188.896073 117.983472 
L 189.231208 132.769804 
L 189.566343 138.207083 
L 189.901478 125.003454 
L 190.236613 122.058386 
L 190.571748 149.940149 
L 190.906883 150.592406 
L 191.242019 119.795134 
L 191.577154 115.639625 
L 191.912289 133.198479 
L 192.247424 131.404278 
L 192.582559 153.145089 
L 192.917694 151.742974 
L 193.252829 145.821792 
L 193.587965 144.615926 
L 193.9231 128.060113 
L 194.258235 144.108826 
L 194.59337 134.826753 
L 194.928505 141.882532 
L 195.26364 126.25493 
L 195.598775 143.282621 
L 195.93391 141.611762 
L 196.269046 147.44537 
L 196.604181 143.909626 
L 196.939316 138.962079 
L 197.274451 149.511337 
L 197.609586 127.773012 
L 197.944721 138.619673 
L 198.279856 143.634499 
L 198.614992 141.000122 
L 198.950127 136.19489 
L 199.285262 141.142596 
L 199.620397 135.490475 
L 199.955532 121.979909 
L 200.625802 150.890578 
L 200.960938 147.340598 
L 201.296073 141.306878 
L 201.631208 141.52729 
L 201.966343 150.042658 
L 202.301478 140.719139 
L 202.636613 125.934327 
L 202.971748 160.362862 
L 203.306883 139.490994 
L 203.642019 141.836541 
L 203.977154 150.486567 
L 204.312289 144.106227 
L 204.647424 156.165468 
L 204.982559 148.448414 
L 205.317694 143.758625 
L 205.652829 132.921351 
L 205.987965 135.756508 
L 206.3231 162.793181 
L 206.658235 128.96679 
L 206.99337 162.867273 
L 207.328505 127.210546 
L 207.66364 151.455026 
L 207.998775 145.391266 
L 208.33391 152.176941 
L 208.669046 139.154721 
L 209.004181 134.344378 
L 209.339316 140.248091 
L 209.674451 135.309354 
L 210.009586 141.870155 
L 210.344721 142.613498 
L 210.679856 151.748409 
L 211.014992 155.854994 
L 211.350127 149.966188 
L 211.685262 146.560487 
L 212.020397 153.826106 
L 212.355532 141.396728 
L 212.690667 139.746584 
L 213.025802 140.546381 
L 213.360938 160.181504 
L 213.696073 132.920912 
L 214.031208 143.48243 
L 214.366343 143.414658 
L 214.701478 162.491606 
L 215.371748 143.576098 
L 215.706883 150.545647 
L 216.042019 139.690312 
L 216.377154 146.874712 
L 216.712289 147.650346 
L 217.047424 136.928757 
L 217.382559 144.324958 
L 217.717694 138.082993 
L 218.052829 140.842787 
L 218.387965 160.59819 
L 218.7231 140.832094 
L 219.058235 159.584746 
L 219.39337 145.451201 
L 219.728505 144.251208 
L 220.06364 156.026398 
L 220.398775 148.934263 
L 220.73391 148.793924 
L 221.404181 111.558986 
L 221.739316 143.189782 
L 222.074451 145.390126 
L 222.744721 138.770528 
L 223.079856 145.741187 
L 223.414992 128.066081 
L 223.750127 123.180012 
L 224.085262 146.19763 
L 224.420397 143.118814 
L 224.755532 131.753409 
L 225.090667 142.810618 
L 225.425802 141.229548 
L 225.760938 153.368565 
L 226.096073 133.466482 
L 226.431208 140.639311 
L 226.766343 129.319875 
L 227.101478 152.220388 
L 227.436613 136.209096 
L 227.771748 134.003787 
L 228.106883 145.829441 
L 228.442019 141.204326 
L 228.777154 132.499188 
L 229.112289 136.155075 
L 229.447424 130.645425 
L 229.782559 135.539836 
L 230.117694 142.900291 
L 230.452829 141.118789 
L 230.787965 136.946793 
L 231.1231 130.777743 
L 231.458235 134.087623 
L 231.79337 132.663211 
L 232.128505 120.664378 
L 232.46364 137.21156 
L 232.798775 121.606652 
L 233.13391 137.942231 
L 233.469046 144.929236 
L 233.804181 130.94915 
L 234.139316 127.943486 
L 234.809586 145.663496 
L 235.144721 129.772961 
L 235.479856 137.041827 
L 235.814992 135.183343 
L 236.150127 106.941791 
L 236.485262 131.758319 
L 236.820397 137.916866 
L 237.155532 119.256167 
L 237.490667 114.58743 
L 237.825802 129.488913 
L 238.160938 124.754262 
L 238.496073 136.657798 
L 238.831208 116.178757 
L 239.166343 139.758204 
L 239.501478 115.934912 
L 239.836613 116.21549 
L 240.171748 125.855225 
L 240.506883 103.919422 
L 241.177154 124.632966 
L 241.847424 116.953148 
L 242.182559 128.921433 
L 242.517694 112.01882 
L 242.852829 130.968089 
L 243.187965 125.751029 
L 243.5231 114.122229 
L 243.858235 152.738003 
L 244.19337 123.529194 
L 244.528505 121.459823 
L 244.86364 134.385455 
L 245.53391 105.125873 
L 245.869046 125.705188 
L 246.204181 111.428685 
L 246.539316 125.939021 
L 246.874451 126.472983 
L 247.209586 124.359034 
L 247.544721 117.884781 
L 247.879856 130.352142 
L 248.550127 114.790129 
L 248.885262 125.11991 
L 249.220397 117.199691 
L 249.555532 99.426264 
L 249.890667 89.301769 
L 250.560938 134.923184 
L 250.896073 90.190168 
L 251.231208 112.572756 
L 251.566343 110.625921 
L 251.901478 91.691771 
L 252.236613 99.476767 
L 252.571748 111.032065 
L 252.906883 116.042801 
L 253.242019 96.014148 
L 253.577154 117.838151 
L 253.912289 120.791981 
L 254.247424 125.572958 
L 254.582559 100.306272 
L 254.917694 99.357306 
L 255.252829 96.097237 
L 255.587965 87.185525 
L 255.9231 118.104291 
L 256.258235 90.953535 
L 256.59337 94.662745 
L 256.928505 92.531848 
L 257.26364 131.471474 
L 257.598775 104.766627 
L 257.93391 114.994006 
L 258.269046 110.72295 
L 258.604181 100.79238 
L 258.939316 111.773578 
L 259.274451 91.766487 
L 259.609586 95.444448 
L 259.944721 109.865233 
L 260.279856 108.418922 
L 261.285262 78.958981 
L 261.620397 99.548191 
L 261.955532 79.828443 
L 262.290667 94.673793 
L 262.625802 91.215233 
L 262.960938 89.718043 
L 263.631208 106.411339 
L 264.301478 89.584432 
L 264.636613 108.825671 
L 264.971748 101.395135 
L 265.306883 90.90435 
L 265.642019 72.107244 
L 265.977154 101.036427 
L 266.312289 66.945193 
L 266.647424 90.214464 
L 266.982559 76.294222 
L 267.652829 109.851827 
L 267.987965 73.031844 
L 268.3231 89.795914 
L 268.658235 91.543879 
L 268.99337 112.997016 
L 269.66364 72.475317 
L 269.998775 86.640124 
L 270.33391 90.12837 
L 270.669046 85.671412 
L 271.339316 72.307179 
L 271.674451 97.153715 
L 272.009586 80.642979 
L 272.344721 91.05918 
L 272.679856 83.251442 
L 273.014992 85.559458 
L 273.350127 80.076215 
L 273.685262 67.059435 
L 274.020397 74.228746 
L 274.355532 69.664787 
L 274.690667 94.982204 
L 275.025802 76.535398 
L 275.360937 75.728083 
L 275.696073 77.189445 
L 276.031208 84.814083 
L 276.701478 74.665575 
L 277.036613 85.619559 
L 277.371748 74.42649 
L 278.042019 68.694461 
L 278.377154 84.435501 
L 278.712289 72.548888 
L 279.047424 82.910793 
L 279.382559 70.103368 
L 279.717694 92.723053 
L 280.052829 61.50778 
L 280.387965 73.043241 
L 280.7231 55.054338 
L 281.058235 65.014478 
L 281.39337 53.162516 
L 281.728505 59.459783 
L 282.06364 69.714639 
L 282.398775 67.972814 
L 282.73391 60.451237 
L 283.069046 58.484599 
L 283.404181 57.639076 
L 283.739316 62.64549 
L 284.074451 41.915641 
L 284.409586 60.664207 
L 284.744721 42.707539 
L 285.079856 73.6065 
L 285.414992 67.249357 
L 285.750127 63.676797 
L 286.085262 47.870865 
L 286.420397 41.103489 
L 286.755532 51.14426 
L 287.090667 54.39717 
L 287.425802 64.983477 
L 287.760938 51.008825 
L 288.096073 59.000134 
L 288.431208 50.053175 
L 288.766343 46.198607 
L 289.101478 63.028113 
L 289.436613 63.802045 
L 289.771748 62.190191 
L 290.106883 65.881321 
L 290.442019 37.653865 
L 290.777154 53.663565 
L 291.112289 46.022302 
L 291.782559 79.034007 
L 292.117694 53.58503 
L 292.452829 60.908827 
L 292.787965 40.498534 
L 293.1231 62.0095 
L 293.458235 61.739793 
L 293.79337 58.844321 
L 294.128505 58.512501 
L 294.46364 42.881453 
L 294.798775 51.668064 
L 295.13391 54.822719 
L 295.469046 43.479281 
L 295.804181 51.177548 
L 296.139316 45.880496 
L 296.474451 54.317854 
L 296.809586 47.925743 
L 297.144721 57.783154 
L 297.479856 38.608485 
L 297.814992 60.502626 
L 298.150127 31.405899 
L 298.485262 56.597785 
L 298.820397 46.821476 
L 299.490667 36.276765 
L 299.825802 54.335278 
L 300.160938 40.905363 
L 300.496073 48.308854 
L 300.831208 42.276156 
L 301.166343 47.356921 
L 301.501478 49.630682 
L 301.836613 46.106375 
L 302.171748 32.664252 
L 302.506883 51.708345 
L 302.842019 41.001193 
L 303.177154 25.926862 
L 303.512289 62.201292 
L 303.847424 36.96204 
L 304.182559 40.396452 
L 304.517694 29.898335 
L 304.852829 50.155614 
L 305.187965 49.104667 
L 305.5231 16.072464 
L 305.858235 35.946986 
L 306.19337 42.636339 
L 306.528505 37.992123 
L 306.86364 51.313078 
L 307.198775 39.508616 
L 307.53391 51.614894 
L 307.869046 53.523233 
L 308.204181 60.568126 
L 308.539316 46.087317 
L 308.874451 45.595792 
L 309.544721 28.634151 
L 309.879856 33.332906 
L 310.214992 45.030539 
L 310.550127 48.258184 
L 310.885262 34.023633 
L 311.220397 40.44803 
L 311.555532 36.285317 
L 311.890667 48.556392 
L 312.560938 38.105721 
L 312.896073 55.371994 
L 313.231208 49.720187 
L 313.566343 37.112968 
L 313.901478 51.575155 
L 314.236613 48.630258 
L 314.571748 37.684272 
L 314.906883 62.605688 
L 315.242019 40.847545 
L 315.577154 36.420203 
L 315.912289 42.47094 
L 316.247424 38.138562 
L 316.582559 48.868535 
L 316.917694 55.45081 
L 317.587965 28.476306 
L 317.9231 27.297265 
L 318.258235 50.649118 
L 318.59337 44.695389 
L 318.928505 27.110673 
L 319.26364 56.321798 
L 319.598775 27.957025 
L 319.93391 52.456744 
L 320.604181 33.579243 
L 320.939316 38.928968 
L 321.274451 41.930768 
L 321.609586 39.241785 
L 321.944721 24.224607 
L 322.614992 48.514818 
L 322.950127 39.170359 
L 323.620397 54.570876 
L 323.955532 30.240204 
L 324.290667 47.916621 
L 324.625802 46.382109 
L 325.296073 55.32987 
L 325.631208 50.871198 
L 325.966343 54.748484 
L 326.301478 53.967592 
L 326.636613 51.276737 
L 326.971748 14.612727 
L 327.306883 63.423121 
L 327.642019 30.376822 
L 327.977154 43.962285 
L 328.312289 66.472355 
L 328.647424 66.076441 
L 328.982559 50.459663 
L 329.317694 66.562683 
L 329.652829 44.845341 
L 329.987965 61.856139 
L 330.3231 68.341597 
L 330.99337 28.459569 
L 331.328505 58.452088 
L 331.66364 37.690652 
L 331.998775 52.750277 
L 332.33391 57.566314 
L 332.669046 53.043758 
L 333.004181 50.268246 
L 333.339316 30.12788 
L 333.674451 66.892999 
L 334.009586 62.787888 
L 334.344721 56.302508 
L 334.679856 53.843728 
L 335.014992 55.810379 
L 335.350127 69.744879 
L 335.685262 63.06034 
L 336.020397 34.501925 
L 336.355532 56.105803 
L 336.690667 64.461915 
L 337.025802 68.207662 
L 337.360937 44.688268 
L 337.696073 59.631309 
L 338.031208 57.024572 
L 338.701478 43.142149 
L 339.036613 60.481714 
L 339.371748 69.513291 
L 339.706883 59.560865 
L 340.042019 42.097475 
L 340.377154 42.898306 
L 340.712289 82.761287 
L 341.047424 39.017095 
L 341.382559 51.848025 
L 341.717694 58.977017 
L 342.052829 55.857651 
L 342.387965 56.038177 
L 342.7231 51.976086 
L 343.058235 74.95245 
L 343.39337 62.288132 
L 343.728505 43.318487 
L 344.06364 73.967761 
L 344.398775 52.971871 
L 344.73391 46.978723 
L 345.739316 65.043402 
L 346.074451 46.96148 
L 346.409586 63.765829 
L 346.744721 61.309526 
L 347.079856 55.688098 
L 347.414992 57.852912 
L 347.750127 68.933319 
L 348.085262 52.926905 
L 348.420397 74.007681 
L 348.755532 60.930389 
L 349.090667 78.076729 
L 349.425802 82.34751 
L 349.760938 83.168021 
L 350.096073 64.558102 
L 350.431208 54.885831 
L 350.766343 71.465495 
L 351.101478 69.493674 
L 351.436613 65.80397 
L 351.771748 64.492483 
L 352.106883 73.364378 
L 352.442019 85.829761 
L 353.112289 58.146024 
L 353.447424 76.022715 
L 353.782559 76.00096 
L 354.117694 93.611236 
L 354.452829 59.629768 
L 354.787965 76.399856 
L 355.1231 80.443025 
L 355.458235 81.667888 
L 355.79337 75.336915 
L 356.128505 93.608768 
L 356.46364 89.598196 
L 356.798775 68.863882 
L 357.13391 82.865446 
L 357.469046 86.415696 
L 357.804181 78.601144 
L 358.139316 81.743505 
L 358.474451 81.782856 
L 358.809586 86.622875 
L 359.144721 84.295533 
L 359.479856 87.570617 
L 359.814992 67.011572 
L 360.150127 82.270319 
L 360.485262 56.251256 
L 361.155532 118.805967 
L 361.490667 82.907887 
L 361.825802 79.801016 
L 362.160938 82.607774 
L 362.496073 83.721762 
L 362.831208 97.761118 
L 363.166343 83.277379 
L 364.171748 98.538311 
L 364.506883 90.405445 
L 364.842019 88.410804 
L 365.177154 94.436631 
L 365.512289 104.817304 
L 365.847424 95.01336 
L 366.182559 89.59474 
L 366.517694 86.106428 
L 366.852829 78.576988 
L 367.187965 100.867558 
L 367.5231 88.885996 
L 367.858235 84.330806 
L 368.19337 85.4683 
L 368.528505 91.628458 
L 368.86364 80.330274 
L 369.198775 95.55774 
L 369.53391 105.717001 
L 369.869046 82.632132 
L 370.204181 111.287796 
L 370.539316 104.800022 
L 370.874451 102.630404 
L 371.209586 78.723689 
L 371.544721 96.107844 
L 371.879856 105.622791 
L 372.214992 99.909791 
L 372.550127 99.298787 
L 372.885262 105.253665 
L 373.220397 100.592519 
L 373.555532 117.366926 
L 373.890667 102.344836 
L 374.225802 70.007281 
L 374.560938 85.793501 
L 374.896073 111.239255 
L 375.231208 102.645673 
L 375.566343 119.255505 
L 375.901478 123.01758 
L 376.236613 88.482212 
L 376.571748 98.387027 
L 376.906883 103.85946 
L 377.242019 111.201285 
L 377.577154 103.014123 
L 377.912289 98.4578 
L 378.247424 114.548916 
L 378.582559 96.666977 
L 378.917694 99.856838 
L 379.252829 99.161356 
L 379.587965 121.723218 
L 379.9231 108.376073 
L 380.258235 118.171542 
L 380.59337 106.732936 
L 380.928505 106.992405 
L 381.26364 101.494097 
L 381.598775 130.049573 
L 381.93391 103.601311 
L 382.269046 100.080034 
L 382.604181 99.860901 
L 382.939316 127.972993 
L 383.274451 122.957807 
L 383.609586 113.913397 
L 383.944721 114.326335 
L 384.279856 141.646405 
L 384.614992 114.575863 
L 384.950127 113.678481 
L 385.285262 127.38177 
L 385.620397 128.994225 
L 385.955532 128.642366 
L 386.290667 108.550992 
L 386.625802 113.787473 
L 386.960938 109.282089 
L 386.960938 109.282089 
" clip-path="url(#pb67adf4e09)" style="fill: none; stroke: #1f77b4; stroke-width: 1.5; stroke-linecap: square"/>
   </g>
   <g id="patch_3">
    <path d="M 52.160938 170.28 
L 52.160938 7.2 
" style="fill: none; stroke: #000000; stroke-width: 0.8; stroke-linejoin: miter; stroke-linecap: square"/>
   </g>
   <g id="patch_4">
    <path d="M 386.960938 170.28 
L 386.960938 7.2 
" style="fill: none; stroke: #000000; stroke-width: 0.8; stroke-linejoin: miter; stroke-linecap: square"/>
   </g>
   <g id="patch_5">
    <path d="M 52.160938 170.28 
L 386.960938 170.28 
" style="fill: none; stroke: #000000; stroke-width: 0.8; stroke-linejoin: miter; stroke-linecap: square"/>
   </g>
   <g id="patch_6">
    <path d="M 52.160938 7.2 
L 386.960938 7.2 
" style="fill: none; stroke: #000000; stroke-width: 0.8; stroke-linejoin: miter; stroke-linecap: square"/>
   </g>
  </g>
 </g>
 <defs>
  <clipPath id="pb67adf4e09">
   <rect x="52.160938" y="7.2" width="334.8" height="163.08"/>
  </clipPath>
 </defs>
</svg>
