<?xml version="1.0" encoding="utf-8" standalone="no"?>
<!DOCTYPE svg PUBLIC "-//W3C//DTD SVG 1.1//EN"
  "http://www.w3.org/Graphics/SVG/1.1/DTD/svg11.dtd">
<svg xmlns:xlink="http://www.w3.org/1999/xlink" width="398.50625pt" height="207.83625pt" viewBox="0 0 398.50625 207.83625" xmlns="http://www.w3.org/2000/svg" version="1.1">
 <metadata>
  <rdf:RDF xmlns:dc="http://purl.org/dc/elements/1.1/" xmlns:cc="http://creativecommons.org/ns#" xmlns:rdf="http://www.w3.org/1999/02/22-rdf-syntax-ns#">
   <cc:Work>
    <dc:type rdf:resource="http://purl.org/dc/dcmitype/StillImage"/>
    <dc:date>2022-07-31T19:15:32.100144</dc:date>
    <dc:format>image/svg+xml</dc:format>
    <dc:creator>
     <cc:Agent>
      <dc:title>Matplotlib v3.5.2, https://matplotlib.org/</dc:title>
     </cc:Agent>
    </dc:creator>
   </cc:Work>
  </rdf:RDF>
 </metadata>
 <defs>
  <style type="text/css">*{stroke-linejoin: round; stroke-linecap: butt}</style>
 </defs>
 <g id="figure_1">
  <g id="patch_1">
   <path d="M 0 207.83625 
L 398.50625 207.83625 
L 398.50625 0 
L 0 0 
L 0 207.83625 
z
" style="fill: none"/>
  </g>
  <g id="axes_1">
   <g id="patch_2">
    <path d="M 43.78125 170.28 
L 378.58125 170.28 
L 378.58125 7.2 
L 43.78125 7.2 
z
" style="fill: #ffffff"/>
   </g>
   <g id="matplotlib.axis_1">
    <g id="xtick_1">
     <g id="line2d_1">
      <path d="M 109.39532 170.28 
L 109.39532 7.2 
" clip-path="url(#p12d8184233)" style="fill: none; stroke: #b0b0b0; stroke-width: 0.8; stroke-linecap: square"/>
     </g>
     <g id="line2d_2">
      <defs>
       <path id="mf6defa1b8d" d="M 0 0 
L 0 3.5 
" style="stroke: #000000; stroke-width: 0.8"/>
      </defs>
      <g>
       <use xlink:href="#mf6defa1b8d" x="109.39532" y="170.28" style="stroke: #000000; stroke-width: 0.8"/>
      </g>
     </g>
     <g id="text_1">
      <!-- 200 -->
      <g transform="translate(99.85157 184.878438)scale(0.1 -0.1)">
       <defs>
        <path id="DejaVuSans-32" d="M 1228 531 
L 3431 531 
L 3431 0 
L 469 0 
L 469 531 
Q 828 903 1448 1529 
Q 2069 2156 2228 2338 
Q 2531 2678 2651 2914 
Q 2772 3150 2772 3378 
Q 2772 3750 2511 3984 
Q 2250 4219 1831 4219 
Q 1534 4219 1204 4116 
Q 875 4013 500 3803 
L 500 4441 
Q 881 4594 1212 4672 
Q 1544 4750 1819 4750 
Q 2544 4750 2975 4387 
Q 3406 4025 3406 3419 
Q 3406 3131 3298 2873 
Q 3191 2616 2906 2266 
Q 2828 2175 2409 1742 
Q 1991 1309 1228 531 
z
" transform="scale(0.015625)"/>
        <path id="DejaVuSans-30" d="M 2034 4250 
Q 1547 4250 1301 3770 
Q 1056 3291 1056 2328 
Q 1056 1369 1301 889 
Q 1547 409 2034 409 
Q 2525 409 2770 889 
Q 3016 1369 3016 2328 
Q 3016 3291 2770 3770 
Q 2525 4250 2034 4250 
z
M 2034 4750 
Q 2819 4750 3233 4129 
Q 3647 3509 3647 2328 
Q 3647 1150 3233 529 
Q 2819 -91 2034 -91 
Q 1250 -91 836 529 
Q 422 1150 422 2328 
Q 422 3509 836 4129 
Q 1250 4750 2034 4750 
z
" transform="scale(0.015625)"/>
       </defs>
       <use xlink:href="#DejaVuSans-32"/>
       <use xlink:href="#DejaVuSans-30" x="63.623047"/>
       <use xlink:href="#DejaVuSans-30" x="127.246094"/>
      </g>
     </g>
    </g>
    <g id="xtick_2">
     <g id="line2d_3">
      <path d="M 176.691803 170.28 
L 176.691803 7.2 
" clip-path="url(#p12d8184233)" style="fill: none; stroke: #b0b0b0; stroke-width: 0.8; stroke-linecap: square"/>
     </g>
     <g id="line2d_4">
      <g>
       <use xlink:href="#mf6defa1b8d" x="176.691803" y="170.28" style="stroke: #000000; stroke-width: 0.8"/>
      </g>
     </g>
     <g id="text_2">
      <!-- 400 -->
      <g transform="translate(167.148053 184.878438)scale(0.1 -0.1)">
       <defs>
        <path id="DejaVuSans-34" d="M 2419 4116 
L 825 1625 
L 2419 1625 
L 2419 4116 
z
M 2253 4666 
L 3047 4666 
L 3047 1625 
L 3713 1625 
L 3713 1100 
L 3047 1100 
L 3047 0 
L 2419 0 
L 2419 1100 
L 313 1100 
L 313 1709 
L 2253 4666 
z
" transform="scale(0.015625)"/>
       </defs>
       <use xlink:href="#DejaVuSans-34"/>
       <use xlink:href="#DejaVuSans-30" x="63.623047"/>
       <use xlink:href="#DejaVuSans-30" x="127.246094"/>
      </g>
     </g>
    </g>
    <g id="xtick_3">
     <g id="line2d_5">
      <path d="M 243.988285 170.28 
L 243.988285 7.2 
" clip-path="url(#p12d8184233)" style="fill: none; stroke: #b0b0b0; stroke-width: 0.8; stroke-linecap: square"/>
     </g>
     <g id="line2d_6">
      <g>
       <use xlink:href="#mf6defa1b8d" x="243.988285" y="170.28" style="stroke: #000000; stroke-width: 0.8"/>
      </g>
     </g>
     <g id="text_3">
      <!-- 600 -->
      <g transform="translate(234.444535 184.878438)scale(0.1 -0.1)">
       <defs>
        <path id="DejaVuSans-36" d="M 2113 2584 
Q 1688 2584 1439 2293 
Q 1191 2003 1191 1497 
Q 1191 994 1439 701 
Q 1688 409 2113 409 
Q 2538 409 2786 701 
Q 3034 994 3034 1497 
Q 3034 2003 2786 2293 
Q 2538 2584 2113 2584 
z
M 3366 4563 
L 3366 3988 
Q 3128 4100 2886 4159 
Q 2644 4219 2406 4219 
Q 1781 4219 1451 3797 
Q 1122 3375 1075 2522 
Q 1259 2794 1537 2939 
Q 1816 3084 2150 3084 
Q 2853 3084 3261 2657 
Q 3669 2231 3669 1497 
Q 3669 778 3244 343 
Q 2819 -91 2113 -91 
Q 1303 -91 875 529 
Q 447 1150 447 2328 
Q 447 3434 972 4092 
Q 1497 4750 2381 4750 
Q 2619 4750 2861 4703 
Q 3103 4656 3366 4563 
z
" transform="scale(0.015625)"/>
       </defs>
       <use xlink:href="#DejaVuSans-36"/>
       <use xlink:href="#DejaVuSans-30" x="63.623047"/>
       <use xlink:href="#DejaVuSans-30" x="127.246094"/>
      </g>
     </g>
    </g>
    <g id="xtick_4">
     <g id="line2d_7">
      <path d="M 311.284768 170.28 
L 311.284768 7.2 
" clip-path="url(#p12d8184233)" style="fill: none; stroke: #b0b0b0; stroke-width: 0.8; stroke-linecap: square"/>
     </g>
     <g id="line2d_8">
      <g>
       <use xlink:href="#mf6defa1b8d" x="311.284768" y="170.28" style="stroke: #000000; stroke-width: 0.8"/>
      </g>
     </g>
     <g id="text_4">
      <!-- 800 -->
      <g transform="translate(301.741018 184.878438)scale(0.1 -0.1)">
       <defs>
        <path id="DejaVuSans-38" d="M 2034 2216 
Q 1584 2216 1326 1975 
Q 1069 1734 1069 1313 
Q 1069 891 1326 650 
Q 1584 409 2034 409 
Q 2484 409 2743 651 
Q 3003 894 3003 1313 
Q 3003 1734 2745 1975 
Q 2488 2216 2034 2216 
z
M 1403 2484 
Q 997 2584 770 2862 
Q 544 3141 544 3541 
Q 544 4100 942 4425 
Q 1341 4750 2034 4750 
Q 2731 4750 3128 4425 
Q 3525 4100 3525 3541 
Q 3525 3141 3298 2862 
Q 3072 2584 2669 2484 
Q 3125 2378 3379 2068 
Q 3634 1759 3634 1313 
Q 3634 634 3220 271 
Q 2806 -91 2034 -91 
Q 1263 -91 848 271 
Q 434 634 434 1313 
Q 434 1759 690 2068 
Q 947 2378 1403 2484 
z
M 1172 3481 
Q 1172 3119 1398 2916 
Q 1625 2713 2034 2713 
Q 2441 2713 2670 2916 
Q 2900 3119 2900 3481 
Q 2900 3844 2670 4047 
Q 2441 4250 2034 4250 
Q 1625 4250 1398 4047 
Q 1172 3844 1172 3481 
z
" transform="scale(0.015625)"/>
       </defs>
       <use xlink:href="#DejaVuSans-38"/>
       <use xlink:href="#DejaVuSans-30" x="63.623047"/>
       <use xlink:href="#DejaVuSans-30" x="127.246094"/>
      </g>
     </g>
    </g>
    <g id="xtick_5">
     <g id="line2d_9">
      <path d="M 378.58125 170.28 
L 378.58125 7.2 
" clip-path="url(#p12d8184233)" style="fill: none; stroke: #b0b0b0; stroke-width: 0.8; stroke-linecap: square"/>
     </g>
     <g id="line2d_10">
      <g>
       <use xlink:href="#mf6defa1b8d" x="378.58125" y="170.28" style="stroke: #000000; stroke-width: 0.8"/>
      </g>
     </g>
     <g id="text_5">
      <!-- 1000 -->
      <g transform="translate(365.85625 184.878438)scale(0.1 -0.1)">
       <defs>
        <path id="DejaVuSans-31" d="M 794 531 
L 1825 531 
L 1825 4091 
L 703 3866 
L 703 4441 
L 1819 4666 
L 2450 4666 
L 2450 531 
L 3481 531 
L 3481 0 
L 794 0 
L 794 531 
z
" transform="scale(0.015625)"/>
       </defs>
       <use xlink:href="#DejaVuSans-31"/>
       <use xlink:href="#DejaVuSans-30" x="63.623047"/>
       <use xlink:href="#DejaVuSans-30" x="127.246094"/>
       <use xlink:href="#DejaVuSans-30" x="190.869141"/>
      </g>
     </g>
    </g>
    <g id="text_6">
     <!-- time -->
     <g transform="translate(199.885156 198.556563)scale(0.1 -0.1)">
      <defs>
       <path id="DejaVuSans-74" d="M 1172 4494 
L 1172 3500 
L 2356 3500 
L 2356 3053 
L 1172 3053 
L 1172 1153 
Q 1172 725 1289 603 
Q 1406 481 1766 481 
L 2356 481 
L 2356 0 
L 1766 0 
Q 1100 0 847 248 
Q 594 497 594 1153 
L 594 3053 
L 172 3053 
L 172 3500 
L 594 3500 
L 594 4494 
L 1172 4494 
z
" transform="scale(0.015625)"/>
       <path id="DejaVuSans-69" d="M 603 3500 
L 1178 3500 
L 1178 0 
L 603 0 
L 603 3500 
z
M 603 4863 
L 1178 4863 
L 1178 4134 
L 603 4134 
L 603 4863 
z
" transform="scale(0.015625)"/>
       <path id="DejaVuSans-6d" d="M 3328 2828 
Q 3544 3216 3844 3400 
Q 4144 3584 4550 3584 
Q 5097 3584 5394 3201 
Q 5691 2819 5691 2113 
L 5691 0 
L 5113 0 
L 5113 2094 
Q 5113 2597 4934 2840 
Q 4756 3084 4391 3084 
Q 3944 3084 3684 2787 
Q 3425 2491 3425 1978 
L 3425 0 
L 2847 0 
L 2847 2094 
Q 2847 2600 2669 2842 
Q 2491 3084 2119 3084 
Q 1678 3084 1418 2786 
Q 1159 2488 1159 1978 
L 1159 0 
L 581 0 
L 581 3500 
L 1159 3500 
L 1159 2956 
Q 1356 3278 1631 3431 
Q 1906 3584 2284 3584 
Q 2666 3584 2933 3390 
Q 3200 3197 3328 2828 
z
" transform="scale(0.015625)"/>
       <path id="DejaVuSans-65" d="M 3597 1894 
L 3597 1613 
L 953 1613 
Q 991 1019 1311 708 
Q 1631 397 2203 397 
Q 2534 397 2845 478 
Q 3156 559 3463 722 
L 3463 178 
Q 3153 47 2828 -22 
Q 2503 -91 2169 -91 
Q 1331 -91 842 396 
Q 353 884 353 1716 
Q 353 2575 817 3079 
Q 1281 3584 2069 3584 
Q 2775 3584 3186 3129 
Q 3597 2675 3597 1894 
z
M 3022 2063 
Q 3016 2534 2758 2815 
Q 2500 3097 2075 3097 
Q 1594 3097 1305 2825 
Q 1016 2553 972 2059 
L 3022 2063 
z
" transform="scale(0.015625)"/>
      </defs>
      <use xlink:href="#DejaVuSans-74"/>
      <use xlink:href="#DejaVuSans-69" x="39.208984"/>
      <use xlink:href="#DejaVuSans-6d" x="66.992188"/>
      <use xlink:href="#DejaVuSans-65" x="164.404297"/>
     </g>
    </g>
   </g>
   <g id="matplotlib.axis_2">
    <g id="ytick_1">
     <g id="line2d_11">
      <path d="M 43.78125 149.315864 
L 378.58125 149.315864 
" clip-path="url(#p12d8184233)" style="fill: none; stroke: #b0b0b0; stroke-width: 0.8; stroke-linecap: square"/>
     </g>
     <g id="line2d_12">
      <defs>
       <path id="m1721ef9210" d="M 0 0 
L -3.5 0 
" style="stroke: #000000; stroke-width: 0.8"/>
      </defs>
      <g>
       <use xlink:href="#m1721ef9210" x="43.78125" y="149.315864" style="stroke: #000000; stroke-width: 0.8"/>
      </g>
     </g>
     <g id="text_7">
      <!-- 0.0 -->
      <g transform="translate(20.878125 153.115083)scale(0.1 -0.1)">
       <defs>
        <path id="DejaVuSans-2e" d="M 684 794 
L 1344 794 
L 1344 0 
L 684 0 
L 684 794 
z
" transform="scale(0.015625)"/>
       </defs>
       <use xlink:href="#DejaVuSans-30"/>
       <use xlink:href="#DejaVuSans-2e" x="63.623047"/>
       <use xlink:href="#DejaVuSans-30" x="95.410156"/>
      </g>
     </g>
    </g>
    <g id="ytick_2">
     <g id="line2d_13">
      <path d="M 43.78125 120.655024 
L 378.58125 120.655024 
" clip-path="url(#p12d8184233)" style="fill: none; stroke: #b0b0b0; stroke-width: 0.8; stroke-linecap: square"/>
     </g>
     <g id="line2d_14">
      <g>
       <use xlink:href="#m1721ef9210" x="43.78125" y="120.655024" style="stroke: #000000; stroke-width: 0.8"/>
      </g>
     </g>
     <g id="text_8">
      <!-- 0.2 -->
      <g transform="translate(20.878125 124.454243)scale(0.1 -0.1)">
       <use xlink:href="#DejaVuSans-30"/>
       <use xlink:href="#DejaVuSans-2e" x="63.623047"/>
       <use xlink:href="#DejaVuSans-32" x="95.410156"/>
      </g>
     </g>
    </g>
    <g id="ytick_3">
     <g id="line2d_15">
      <path d="M 43.78125 91.994184 
L 378.58125 91.994184 
" clip-path="url(#p12d8184233)" style="fill: none; stroke: #b0b0b0; stroke-width: 0.8; stroke-linecap: square"/>
     </g>
     <g id="line2d_16">
      <g>
       <use xlink:href="#m1721ef9210" x="43.78125" y="91.994184" style="stroke: #000000; stroke-width: 0.8"/>
      </g>
     </g>
     <g id="text_9">
      <!-- 0.4 -->
      <g transform="translate(20.878125 95.793403)scale(0.1 -0.1)">
       <use xlink:href="#DejaVuSans-30"/>
       <use xlink:href="#DejaVuSans-2e" x="63.623047"/>
       <use xlink:href="#DejaVuSans-34" x="95.410156"/>
      </g>
     </g>
    </g>
    <g id="ytick_4">
     <g id="line2d_17">
      <path d="M 43.78125 63.333345 
L 378.58125 63.333345 
" clip-path="url(#p12d8184233)" style="fill: none; stroke: #b0b0b0; stroke-width: 0.8; stroke-linecap: square"/>
     </g>
     <g id="line2d_18">
      <g>
       <use xlink:href="#m1721ef9210" x="43.78125" y="63.333345" style="stroke: #000000; stroke-width: 0.8"/>
      </g>
     </g>
     <g id="text_10">
      <!-- 0.6 -->
      <g transform="translate(20.878125 67.132563)scale(0.1 -0.1)">
       <use xlink:href="#DejaVuSans-30"/>
       <use xlink:href="#DejaVuSans-2e" x="63.623047"/>
       <use xlink:href="#DejaVuSans-36" x="95.410156"/>
      </g>
     </g>
    </g>
    <g id="ytick_5">
     <g id="line2d_19">
      <path d="M 43.78125 34.672505 
L 378.58125 34.672505 
" clip-path="url(#p12d8184233)" style="fill: none; stroke: #b0b0b0; stroke-width: 0.8; stroke-linecap: square"/>
     </g>
     <g id="line2d_20">
      <g>
       <use xlink:href="#m1721ef9210" x="43.78125" y="34.672505" style="stroke: #000000; stroke-width: 0.8"/>
      </g>
     </g>
     <g id="text_11">
      <!-- 0.8 -->
      <g transform="translate(20.878125 38.471723)scale(0.1 -0.1)">
       <use xlink:href="#DejaVuSans-30"/>
       <use xlink:href="#DejaVuSans-2e" x="63.623047"/>
       <use xlink:href="#DejaVuSans-38" x="95.410156"/>
      </g>
     </g>
    </g>
    <g id="text_12">
     <!-- x -->
     <g transform="translate(14.798438 91.699375)rotate(-90)scale(0.1 -0.1)">
      <defs>
       <path id="DejaVuSans-78" d="M 3513 3500 
L 2247 1797 
L 3578 0 
L 2900 0 
L 1881 1375 
L 863 0 
L 184 0 
L 1544 1831 
L 300 3500 
L 978 3500 
L 1906 2253 
L 2834 3500 
L 3513 3500 
z
" transform="scale(0.015625)"/>
      </defs>
      <use xlink:href="#DejaVuSans-78"/>
     </g>
    </g>
   </g>
   <g id="line2d_21">
    <path d="M 43.78125 135.038286 
L 44.117732 120.460991 
L 44.454215 136.331135 
L 44.790697 106.9337 
L 45.12718 131.289264 
L 45.463662 121.871597 
L 45.800144 80.268742 
L 46.136627 121.122862 
L 47.482557 158.304942 
L 47.819039 120.395883 
L 48.155521 121.60761 
L 48.492004 132.734771 
L 48.828486 101.189694 
L 49.164969 124.197179 
L 49.501451 108.248841 
L 49.837933 102.471019 
L 50.174416 101.598166 
L 50.510898 103.547392 
L 50.847381 128.090562 
L 51.183863 90.912109 
L 51.856828 123.259824 
L 52.19331 109.647484 
L 52.529793 106.352653 
L 52.866275 106.139357 
L 53.202758 101.552913 
L 53.53924 82.580491 
L 53.875722 104.553396 
L 54.212205 85.896595 
L 54.88517 126.795806 
L 55.221652 57.193659 
L 55.558134 112.567489 
L 55.894617 120.576204 
L 56.231099 92.659864 
L 56.567582 111.35638 
L 56.904064 91.814486 
L 57.240546 93.411456 
L 57.577029 109.205252 
L 57.913511 113.083521 
L 58.586476 66.872107 
L 58.922959 99.171951 
L 59.259441 119.586344 
L 59.595923 61.106496 
L 59.932406 106.765874 
L 60.268888 77.062351 
L 60.605371 80.187836 
L 60.941853 100.252532 
L 61.278335 75.155918 
L 61.614818 93.77052 
L 61.9513 95.365214 
L 62.287783 53.401037 
L 62.960747 82.503053 
L 63.29723 88.615171 
L 63.633712 66.883536 
L 63.970195 92.586812 
L 64.306677 109.345069 
L 64.64316 60.572253 
L 64.979642 66.979509 
L 65.316124 86.247603 
L 65.652607 85.689461 
L 65.989089 92.712895 
L 66.325572 73.178692 
L 66.662054 75.431213 
L 66.998536 95.786712 
L 67.671501 64.750682 
L 68.007984 58.851087 
L 68.344466 82.198459 
L 69.017431 50.553662 
L 69.353913 83.719965 
L 69.690396 93.735755 
L 70.026878 80.671974 
L 70.363361 82.587623 
L 70.699843 80.680199 
L 71.036325 83.004197 
L 71.372808 77.414965 
L 71.70929 56.220993 
L 72.045773 72.156161 
L 72.718737 81.62168 
L 73.05522 46.928386 
L 73.728185 85.782906 
L 74.064667 23.920778 
L 74.401149 68.142567 
L 74.737632 90.344212 
L 75.074114 46.872541 
L 75.410597 66.320013 
L 75.747079 77.338159 
L 76.083562 97.7887 
L 76.420044 67.381938 
L 76.756526 100.335684 
L 77.093009 60.601944 
L 77.429491 40.474783 
L 77.765974 65.064193 
L 78.102456 81.316719 
L 78.438938 73.144099 
L 78.775421 71.709999 
L 79.111903 87.117428 
L 79.448386 83.630979 
L 79.784868 60.333874 
L 80.121351 70.288711 
L 80.457833 76.232159 
L 80.794315 75.817037 
L 81.130798 58.100879 
L 81.46728 62.443785 
L 81.803763 76.023966 
L 82.140245 75.011906 
L 82.476727 67.90892 
L 83.149692 79.229776 
L 83.486175 54.420254 
L 83.822657 54.589839 
L 84.159139 73.209818 
L 84.495622 64.322902 
L 84.832104 43.197588 
L 85.505069 70.950275 
L 85.841552 81.877996 
L 86.178034 44.311993 
L 86.850999 84.346705 
L 87.187481 68.797503 
L 87.523964 85.607504 
L 87.860446 70.578306 
L 88.196928 71.477411 
L 88.533411 73.548133 
L 88.869893 68.371772 
L 89.206376 71.974122 
L 89.542858 41.397173 
L 89.87934 65.512781 
L 90.215823 75.942377 
L 90.552305 56.715347 
L 90.888788 76.338741 
L 91.22527 72.0115 
L 91.561753 79.26478 
L 91.898235 78.431667 
L 92.234717 69.287158 
L 92.5712 67.669175 
L 92.907682 79.671343 
L 93.244165 69.722489 
L 93.580647 64.123165 
L 93.917129 67.248382 
L 94.253612 85.772929 
L 94.926577 49.049657 
L 95.263059 74.036371 
L 95.599541 77.972103 
L 95.936024 67.515238 
L 96.272506 47.105761 
L 96.608989 62.990089 
L 96.945471 70.685571 
L 97.281954 55.73513 
L 97.618436 48.93303 
L 97.954918 60.879597 
L 98.291401 68.866245 
L 98.627883 53.594965 
L 98.964366 67.245221 
L 99.300848 66.363028 
L 99.63733 32.569314 
L 99.973813 45.456789 
L 100.310295 83.672653 
L 100.98326 63.464608 
L 101.319742 56.053527 
L 101.656225 53.510557 
L 101.992707 60.126006 
L 102.32919 42.13761 
L 102.665672 81.06991 
L 103.002155 78.986631 
L 103.338637 53.458778 
L 103.675119 84.329827 
L 104.011602 43.002481 
L 104.348084 59.260503 
L 104.684567 93.765694 
L 105.021049 58.033076 
L 105.357531 75.442044 
L 105.694014 71.983672 
L 106.030496 57.836483 
L 106.366979 73.094318 
L 106.703461 79.345259 
L 107.376426 87.10646 
L 107.712908 80.136826 
L 108.049391 75.676767 
L 108.385873 83.881359 
L 108.722356 98.468457 
L 109.058838 78.069281 
L 109.39532 66.525814 
L 109.731803 83.272736 
L 110.404768 76.448876 
L 110.74125 83.756908 
L 111.077732 45.271915 
L 111.750697 67.396595 
L 112.08718 61.297264 
L 112.423662 68.147077 
L 112.760144 66.606583 
L 113.096627 97.628793 
L 113.769592 36.187449 
L 114.106074 80.58578 
L 114.442557 91.730804 
L 114.779039 58.013054 
L 115.115521 75.28522 
L 115.452004 86.655157 
L 115.788486 86.695063 
L 116.124969 67.669585 
L 116.461451 70.122304 
L 116.797933 82.038398 
L 117.134416 76.763651 
L 117.470898 91.319748 
L 118.143863 73.612554 
L 118.816828 79.463406 
L 119.15331 84.407034 
L 119.489793 82.607662 
L 119.826275 76.936157 
L 120.162758 77.481624 
L 120.49924 71.527687 
L 120.835722 67.917992 
L 121.172205 86.467395 
L 121.508687 72.845057 
L 121.84517 78.251678 
L 122.181652 97.422842 
L 122.518134 81.492958 
L 122.854617 43.633039 
L 123.191099 76.02974 
L 123.527582 86.460263 
L 123.864064 83.056856 
L 124.200546 74.418761 
L 124.537029 80.957494 
L 124.873511 103.116734 
L 125.209994 65.570932 
L 125.882959 99.114249 
L 126.219441 84.30158 
L 126.555923 98.035701 
L 126.892406 96.684421 
L 127.228888 75.167534 
L 127.565371 83.833987 
L 127.901853 101.083364 
L 128.238335 107.363197 
L 128.574818 85.494559 
L 128.9113 81.666728 
L 129.247783 84.381743 
L 129.584265 86.135213 
L 129.920747 80.245142 
L 130.25723 97.992289 
L 130.593712 75.567725 
L 130.930195 80.378963 
L 131.266677 97.027626 
L 131.60316 105.851992 
L 131.939642 92.472534 
L 132.276124 101.11821 
L 132.612607 94.944605 
L 132.949089 73.295217 
L 133.285572 105.701438 
L 133.622054 102.83958 
L 134.295019 82.160236 
L 134.631501 87.099986 
L 134.967984 110.732745 
L 135.304466 94.659021 
L 135.640948 114.502374 
L 135.977431 113.030302 
L 136.313913 85.601499 
L 136.650396 102.816057 
L 136.986878 104.545418 
L 137.323361 97.377418 
L 137.996325 108.006618 
L 138.332808 86.110749 
L 138.66929 95.999569 
L 139.005773 120.133194 
L 139.342255 95.325978 
L 139.678737 88.624165 
L 140.01522 117.556067 
L 140.351702 112.365488 
L 140.688185 92.458483 
L 141.024667 117.211913 
L 141.361149 105.442337 
L 141.697632 102.458869 
L 142.034114 116.204645 
L 142.370597 107.3529 
L 142.707079 142.031491 
L 143.043562 93.446131 
L 143.380044 100.847061 
L 143.716526 121.593491 
L 144.053009 75.339596 
L 144.389491 115.913309 
L 144.725974 101.900902 
L 145.062456 106.842518 
L 145.398938 139.577467 
L 145.735421 94.193679 
L 146.071903 116.620523 
L 146.408386 152.050488 
L 146.744868 99.103995 
L 147.417833 108.402999 
L 148.090798 134.195612 
L 148.42728 92.635371 
L 148.763763 142.323991 
L 149.100245 141.171049 
L 149.436727 149.581393 
L 149.77321 147.120253 
L 150.109692 151.145273 
L 150.446175 146.033507 
L 150.782657 147.658583 
L 151.119139 135.898505 
L 151.455622 139.691241 
L 151.792104 151.976052 
L 152.128587 157.02053 
L 152.465069 145.743077 
L 153.138034 142.211396 
L 153.474516 142.946251 
L 153.810999 156.465709 
L 154.147481 143.800902 
L 154.483964 155.399235 
L 154.820446 153.609118 
L 155.156928 130.139941 
L 155.493411 149.286246 
L 155.829893 143.525815 
L 156.166376 134.222992 
L 156.502858 159.037166 
L 156.83934 152.566447 
L 157.175823 158.702575 
L 157.512305 144.029934 
L 157.848788 149.08644 
L 158.18527 145.915523 
L 158.521753 137.713046 
L 158.858235 155.486866 
L 159.194717 152.997234 
L 159.5312 114.192036 
L 159.867682 114.429655 
L 160.204165 141.062601 
L 160.540647 142.052905 
L 160.877129 129.8268 
L 161.213612 140.704044 
L 161.550094 144.844335 
L 161.886577 137.876805 
L 162.223059 122.128272 
L 162.559541 160.775891 
L 162.896024 149.076792 
L 163.232506 154.491772 
L 163.568989 146.445015 
L 163.905471 162.867273 
L 164.241954 150.979941 
L 164.578436 150.746466 
L 164.914918 113.725127 
L 165.251401 154.840791 
L 165.587883 153.41904 
L 165.924366 157.053663 
L 166.260848 139.37492 
L 166.933813 159.516337 
L 167.270295 148.329986 
L 167.606778 150.437584 
L 167.94326 151.311232 
L 168.279742 148.178192 
L 168.616225 162.031188 
L 168.952707 142.66819 
L 169.28919 150.379846 
L 169.625672 124.51168 
L 169.962155 158.482652 
L 170.298637 141.677465 
L 170.635119 145.443834 
L 170.971602 121.896551 
L 171.308084 154.006159 
L 171.644567 151.603895 
L 171.981049 139.264748 
L 172.317531 143.896583 
L 172.654014 127.803846 
L 172.990496 135.571215 
L 173.326979 140.744159 
L 173.663461 143.869899 
L 173.999943 152.730503 
L 174.336426 145.162716 
L 174.672908 119.356533 
L 175.009391 124.734445 
L 175.345873 139.164771 
L 175.682356 117.104806 
L 176.018838 141.386171 
L 176.35532 106.010925 
L 176.691803 125.927723 
L 177.028285 119.468065 
L 177.364768 130.686644 
L 177.70125 130.521767 
L 178.037732 131.196801 
L 178.374215 130.4485 
L 178.710697 124.192233 
L 179.04718 122.704441 
L 179.383662 140.10875 
L 179.720144 133.391041 
L 180.056627 152.718036 
L 180.393109 136.333736 
L 180.729592 140.165575 
L 181.066074 121.367109 
L 181.402557 144.389915 
L 182.412004 96.992076 
L 182.748486 144.420994 
L 183.084969 135.736243 
L 183.421451 140.656249 
L 183.757933 111.143135 
L 184.094416 115.863157 
L 184.430898 98.604649 
L 184.767381 128.642663 
L 185.103863 141.937664 
L 185.440345 131.395406 
L 185.776828 140.630293 
L 186.11331 120.534936 
L 186.449793 146.693191 
L 186.786275 131.929431 
L 187.122758 134.265615 
L 187.45924 111.655003 
L 187.795722 126.626225 
L 188.132205 126.813004 
L 188.468687 126.778142 
L 188.80517 137.886957 
L 189.141652 132.59767 
L 189.478134 133.294585 
L 189.814617 119.129847 
L 190.151099 130.398066 
L 190.487582 134.948588 
L 190.824064 137.842959 
L 191.160546 143.134542 
L 191.497029 137.937884 
L 191.833511 127.757897 
L 192.169994 103.386166 
L 192.506476 113.355831 
L 192.842959 133.5076 
L 193.179441 125.78355 
L 193.515923 125.682964 
L 193.852406 134.642671 
L 194.188888 118.959677 
L 194.525371 128.788099 
L 194.861853 99.575884 
L 195.198335 125.058373 
L 195.534818 121.267108 
L 195.8713 112.811898 
L 196.207783 121.754274 
L 196.544265 117.143862 
L 196.880747 138.068891 
L 197.21723 136.992156 
L 197.553712 117.093569 
L 197.890195 108.532614 
L 198.226677 103.471142 
L 198.56316 144.199754 
L 198.899642 106.54542 
L 199.236124 130.020617 
L 199.572607 100.62644 
L 199.909089 131.765407 
L 200.245572 132.951275 
L 200.582054 133.227666 
L 200.918536 138.125505 
L 201.255019 128.297391 
L 201.591501 131.449869 
L 201.927984 116.862425 
L 202.600948 110.106245 
L 202.937431 121.138767 
L 203.273913 121.171818 
L 203.610396 127.156897 
L 203.946878 127.770688 
L 204.283361 133.40017 
L 204.619843 115.329119 
L 204.956325 115.869691 
L 205.292808 120.64232 
L 205.62929 130.433791 
L 205.965773 105.717513 
L 206.302255 110.643268 
L 206.638737 105.883587 
L 206.97522 123.9812 
L 207.311702 132.8543 
L 207.648185 123.373295 
L 207.984667 127.194263 
L 208.321149 124.008794 
L 208.994114 136.635987 
L 209.667079 116.126404 
L 210.340044 104.716622 
L 210.676526 127.069978 
L 211.013009 113.424433 
L 211.349491 121.847681 
L 212.022456 113.551382 
L 212.358938 140.463008 
L 212.695421 147.072453 
L 213.031903 128.473584 
L 213.368386 130.152794 
L 213.704868 88.88242 
L 214.041351 131.138441 
L 214.377833 130.175534 
L 214.714315 139.010738 
L 215.050798 141.351969 
L 215.38728 129.892623 
L 215.723763 126.999531 
L 216.060245 107.706996 
L 216.396727 132.91354 
L 216.73321 134.022515 
L 217.069692 112.820192 
L 217.406175 127.910589 
L 217.742657 127.457092 
L 218.079139 141.537325 
L 218.415622 123.525207 
L 218.752104 134.549619 
L 219.088587 118.540182 
L 219.425069 129.598675 
L 219.761552 128.401871 
L 220.098034 125.88112 
L 220.434516 137.678792 
L 220.770999 144.057406 
L 221.107481 136.588675 
L 221.443964 133.423898 
L 221.780446 124.316403 
L 222.116928 127.617168 
L 222.453411 141.213552 
L 222.789893 140.551269 
L 223.462858 145.714328 
L 223.79934 139.166714 
L 224.135823 152.994955 
L 224.472305 129.205808 
L 224.808788 132.879357 
L 225.14527 111.676122 
L 225.481753 139.501176 
L 225.818235 137.78534 
L 226.4912 122.257066 
L 227.164165 139.813813 
L 227.500647 142.169777 
L 227.837129 138.95714 
L 228.173612 141.718696 
L 228.510094 108.169677 
L 228.846577 147.598437 
L 229.183059 142.409104 
L 229.519541 147.717774 
L 229.856024 128.143247 
L 230.192506 150.001084 
L 230.528989 135.029234 
L 230.865471 156.679239 
L 231.201954 141.96561 
L 231.538436 144.649208 
L 231.874918 151.113234 
L 232.211401 150.650819 
L 232.547883 150.41013 
L 232.884366 138.017101 
L 233.220848 147.326638 
L 233.55733 147.815453 
L 233.893813 154.797289 
L 234.230295 141.732798 
L 234.566778 151.53611 
L 234.90326 132.556324 
L 235.576225 124.37885 
L 235.912707 116.748391 
L 236.24919 135.158173 
L 236.585672 146.218135 
L 236.922155 147.514736 
L 237.258637 144.185622 
L 237.595119 157.338629 
L 237.931602 137.75097 
L 238.268084 151.225754 
L 238.604567 133.4567 
L 238.941049 150.761505 
L 239.277531 146.204661 
L 239.614014 151.491597 
L 239.950496 146.331808 
L 240.286979 147.837917 
L 240.623461 156.111503 
L 240.959943 152.803142 
L 241.296426 155.285383 
L 241.632908 155.902034 
L 241.969391 148.662402 
L 242.305873 83.603176 
L 242.642356 128.292225 
L 242.978838 143.513044 
L 243.31532 134.946824 
L 243.651803 150.354421 
L 243.988285 157.463302 
L 244.324768 147.413809 
L 244.66125 140.98948 
L 244.997732 152.667963 
L 245.334215 156.808181 
L 245.670697 126.112995 
L 246.00718 150.407649 
L 246.343662 155.553228 
L 246.680144 156.364617 
L 247.016627 137.310363 
L 247.353109 159.108116 
L 247.689592 121.683708 
L 248.026074 121.743947 
L 248.362557 150.967491 
L 248.699039 154.345803 
L 249.035521 106.239622 
L 249.708486 154.865503 
L 250.381451 158.89843 
L 251.054416 140.853124 
L 251.390898 156.386173 
L 251.727381 148.365814 
L 252.063863 150.652919 
L 252.400345 156.02414 
L 252.736828 129.816306 
L 253.07331 132.890375 
L 253.409793 120.130756 
L 253.746275 117.251751 
L 254.082758 138.488847 
L 254.41924 119.746892 
L 254.755722 146.76459 
L 255.092205 154.469014 
L 255.428687 143.163852 
L 255.76517 143.053544 
L 256.101652 159.431379 
L 257.111099 121.75951 
L 257.447582 122.500331 
L 257.784064 101.270639 
L 258.120546 95.288216 
L 258.457029 115.856797 
L 258.793511 116.417182 
L 259.129994 152.391628 
L 259.466476 83.134046 
L 259.802959 103.566265 
L 260.139441 134.828438 
L 260.475923 153.606637 
L 261.148888 98.569705 
L 261.485371 118.676976 
L 261.821853 124.614158 
L 262.158335 109.641633 
L 262.494818 107.907476 
L 262.8313 103.213587 
L 263.167783 124.459713 
L 263.504265 113.764085 
L 263.840747 113.538595 
L 264.17723 123.785414 
L 264.513712 109.355169 
L 264.850195 112.5507 
L 265.186677 94.158043 
L 265.52316 99.678126 
L 265.859642 100.641439 
L 266.196124 118.460199 
L 266.869089 88.271773 
L 267.205572 111.230332 
L 267.542054 111.79678 
L 267.878536 106.596922 
L 268.215019 98.77182 
L 268.551501 113.170303 
L 269.224466 93.580439 
L 269.560948 97.099295 
L 269.897431 110.501306 
L 270.233913 100.541742 
L 270.570396 102.728834 
L 270.906878 102.225034 
L 271.243361 113.178644 
L 271.579843 90.493835 
L 271.916325 87.94393 
L 272.252808 91.089347 
L 272.58929 83.696211 
L 272.925773 84.723432 
L 273.262255 79.373941 
L 273.598737 98.518276 
L 273.93522 91.263467 
L 274.271702 79.506012 
L 274.608185 82.956987 
L 274.944667 83.885681 
L 275.281149 87.163997 
L 275.617632 63.378629 
L 275.954114 78.782128 
L 276.290597 76.081417 
L 276.627079 87.874948 
L 276.963562 103.661073 
L 277.300044 67.960358 
L 277.636526 75.281274 
L 277.973009 64.378525 
L 278.309491 76.482325 
L 278.982456 86.412601 
L 279.318938 71.392149 
L 279.655421 78.201539 
L 279.991903 79.696489 
L 280.328386 67.002777 
L 280.664868 87.390315 
L 281.001351 91.844817 
L 281.337833 77.338876 
L 281.674315 90.14105 
L 282.010798 57.432192 
L 282.34728 71.078912 
L 282.683763 80.171607 
L 283.020245 78.893682 
L 283.356727 108.550359 
L 283.69321 60.836786 
L 284.029692 77.31238 
L 284.366175 73.868563 
L 284.702657 79.275073 
L 285.039139 95.854759 
L 285.375622 69.553143 
L 285.712104 82.914296 
L 286.048587 68.065437 
L 286.385069 72.532913 
L 286.721552 83.757668 
L 287.058034 59.935836 
L 287.394516 71.85413 
L 287.730999 73.922358 
L 288.067481 74.764713 
L 288.403964 74.96503 
L 288.740446 77.981456 
L 289.076928 63.951411 
L 289.413411 77.123491 
L 289.749893 62.216989 
L 290.086376 68.328671 
L 290.422858 83.1595 
L 290.75934 47.335308 
L 291.432305 76.350289 
L 291.768788 66.009662 
L 292.10527 64.614461 
L 292.441753 70.600446 
L 292.778235 67.757358 
L 293.114717 75.17857 
L 293.4512 68.004262 
L 293.787682 53.244999 
L 294.124165 71.920139 
L 294.460647 71.353114 
L 294.797129 32.457539 
L 295.133612 82.976684 
L 295.806577 41.283775 
L 296.143059 60.265542 
L 296.816024 77.99666 
L 297.152506 14.612727 
L 297.488989 51.825215 
L 297.825471 74.018023 
L 298.161954 46.007858 
L 298.498436 71.030891 
L 298.834918 65.008348 
L 299.171401 69.13739 
L 299.507883 81.679438 
L 299.844366 81.395882 
L 300.180848 67.207536 
L 300.853813 64.81032 
L 301.190295 51.306381 
L 301.526778 56.091315 
L 301.86326 69.217322 
L 302.199742 71.337534 
L 302.536225 46.13084 
L 302.872707 60.085126 
L 303.882155 70.454931 
L 304.218637 53.387114 
L 304.555119 77.364313 
L 304.891602 77.931078 
L 305.228084 46.581854 
L 305.564567 73.127084 
L 305.901049 77.612105 
L 306.237531 49.601718 
L 306.574014 82.918601 
L 306.910496 67.726626 
L 307.246979 43.584676 
L 307.583461 69.430554 
L 307.919943 63.542747 
L 308.256426 68.994608 
L 308.592908 81.038562 
L 308.929391 52.18661 
L 309.265873 47.131181 
L 309.602356 52.044392 
L 309.938838 73.464904 
L 310.27532 68.353989 
L 310.611803 29.098164 
L 310.948285 75.349009 
L 311.284768 56.336271 
L 311.62125 62.303225 
L 311.957732 77.500893 
L 312.294215 38.27821 
L 312.630697 62.484409 
L 312.96718 67.366153 
L 313.303662 60.142355 
L 313.640144 42.60381 
L 313.976627 56.207566 
L 314.313109 75.869397 
L 314.649592 51.65042 
L 315.322557 80.647912 
L 315.659039 42.221642 
L 316.332004 78.894314 
L 316.668486 65.593123 
L 317.004969 79.840501 
L 317.341451 73.414884 
L 318.014416 79.857669 
L 318.350898 74.725473 
L 318.687381 29.303521 
L 319.023863 76.824826 
L 319.360345 71.713706 
L 319.696828 38.655748 
L 320.03331 93.768358 
L 320.369793 82.083062 
L 320.706275 56.041364 
L 321.042758 87.486869 
L 321.37924 77.103282 
L 321.715722 77.60177 
L 322.052205 102.21457 
L 322.388687 54.542724 
L 322.72517 45.841126 
L 323.061652 78.128893 
L 323.734617 62.776036 
L 324.071099 89.49891 
L 324.407582 67.202787 
L 324.744064 72.984132 
L 325.080546 54.099808 
L 325.417029 84.866905 
L 325.753511 99.958359 
L 326.089994 53.847779 
L 326.426476 78.695107 
L 326.762959 81.14247 
L 327.099441 94.301235 
L 327.435923 87.524324 
L 327.772406 42.406653 
L 328.445371 97.576441 
L 329.118335 58.493878 
L 329.454818 78.256052 
L 329.7913 90.593823 
L 330.127783 62.994718 
L 330.464265 67.178853 
L 331.13723 98.347495 
L 331.473712 70.84793 
L 331.810195 58.185099 
L 332.146677 66.410195 
L 332.48316 107.102294 
L 332.819642 48.763856 
L 333.156124 55.924685 
L 333.492607 86.60623 
L 333.829089 72.275401 
L 334.165572 78.365598 
L 334.502054 77.48311 
L 334.838536 97.432212 
L 335.175019 88.945381 
L 335.511501 48.194985 
L 335.847984 95.7389 
L 336.184466 87.866867 
L 336.520948 50.398632 
L 336.857431 80.638226 
L 337.193913 85.923757 
L 337.530396 88.833349 
L 337.866878 63.253682 
L 338.203361 82.808312 
L 338.539843 94.039388 
L 338.876325 69.369157 
L 339.54929 94.76301 
L 339.885773 73.871228 
L 340.222255 91.963084 
L 340.558737 94.809545 
L 340.89522 94.977746 
L 341.231702 116.016423 
L 341.568185 103.118972 
L 341.904667 85.889898 
L 342.241149 81.127565 
L 342.577632 97.111402 
L 342.914114 100.621178 
L 343.250597 81.431937 
L 343.923562 98.909562 
L 344.260044 113.841297 
L 344.933009 74.240703 
L 345.269491 101.31101 
L 345.942456 119.046268 
L 346.278938 77.891496 
L 346.615421 92.189111 
L 346.951903 112.456422 
L 347.288386 100.556109 
L 347.624868 101.339838 
L 347.961351 118.803588 
L 348.297833 127.176983 
L 348.634315 79.555117 
L 348.970798 111.164604 
L 349.30728 120.832977 
L 349.643763 96.749743 
L 349.980245 106.158789 
L 350.316727 111.742183 
L 350.65321 112.649223 
L 350.989692 112.588804 
L 351.326175 114.040807 
L 351.662657 95.568124 
L 351.999139 104.465144 
L 352.335622 91.715736 
L 352.672104 102.78242 
L 353.008587 147.256946 
L 353.345069 65.982432 
L 354.018034 125.517611 
L 354.354516 112.246226 
L 354.690999 130.011537 
L 355.027481 114.358414 
L 355.363964 115.768789 
L 355.700446 135.874331 
L 356.036928 141.345088 
L 356.709893 128.560948 
L 357.046376 139.564131 
L 357.382858 156.035418 
L 357.382858 156.035418 
" clip-path="url(#p12d8184233)" style="fill: none; stroke: #1f77b4; stroke-width: 1.5; stroke-linecap: square"/>
   </g>
   <g id="line2d_22">
    <path d="M 44.790697 117.907319 
L 45.800144 103.919524 
L 46.136627 116.545096 
L 46.473109 109.972799 
L 46.809592 108.634818 
L 47.146074 104.634123 
L 47.482557 111.490308 
L 48.492004 149.513329 
L 48.828486 107.009318 
L 49.164969 114.082366 
L 49.501451 108.362452 
L 49.837933 107.158775 
L 50.174416 108.224036 
L 50.510898 103.967212 
L 50.847381 104.495979 
L 51.183863 101.922901 
L 51.520345 104.002694 
L 51.856828 108.703783 
L 52.19331 105.000762 
L 52.529793 107.492188 
L 52.866275 106.523507 
L 53.202758 106.422003 
L 53.53924 104.051603 
L 53.875722 103.738558 
L 54.212205 102.322357 
L 54.548687 100.244793 
L 54.88517 101.830839 
L 55.221652 97.84823 
L 55.558134 106.162496 
L 55.894617 102.923839 
L 56.231099 104.311366 
L 56.567582 111.135947 
L 56.904064 103.080039 
L 57.240546 107.216059 
L 57.577029 102.615231 
L 58.249994 101.442538 
L 58.586476 102.300354 
L 58.922959 102.466146 
L 59.259441 103.704993 
L 59.595923 93.456462 
L 59.932406 104.480246 
L 60.268888 98.10819 
L 60.605371 106.247276 
L 61.278335 98.57735 
L 61.614818 98.493838 
L 61.9513 99.720971 
L 62.287783 99.486385 
L 62.624265 101.643103 
L 62.960747 99.914229 
L 63.633712 91.514846 
L 63.970195 93.30988 
L 64.306677 99.007799 
L 64.64316 97.158586 
L 64.979642 100.474929 
L 65.316124 99.599334 
L 65.652607 100.895714 
L 65.989089 92.280814 
L 66.325572 95.420115 
L 66.662054 95.890471 
L 66.998536 100.895791 
L 67.335019 95.585408 
L 67.671501 99.576298 
L 68.007984 99.067535 
L 68.344466 99.994862 
L 68.680948 93.863567 
L 69.017431 83.786436 
L 69.353913 90.0286 
L 70.026878 90.11657 
L 70.363361 91.764483 
L 70.699843 97.545939 
L 71.036325 100.584099 
L 71.372808 100.468771 
L 71.70929 97.438012 
L 72.045773 97.816383 
L 72.382255 94.243331 
L 72.718737 85.36693 
L 73.05522 90.374919 
L 73.391702 91.585144 
L 73.728185 98.375917 
L 74.064667 82.766732 
L 74.401149 90.421616 
L 74.737632 92.511813 
L 75.074114 82.260762 
L 75.410597 85.180245 
L 75.747079 92.019048 
L 76.083562 95.956937 
L 76.420044 91.197543 
L 76.756526 92.794676 
L 77.093009 97.547801 
L 77.429491 98.91482 
L 77.765974 102.560189 
L 78.102456 85.041043 
L 78.438938 88.801284 
L 78.775421 88.096363 
L 79.111903 93.959015 
L 79.448386 96.95533 
L 79.784868 97.540981 
L 80.121351 98.975811 
L 80.457833 98.1011 
L 80.794315 92.90172 
L 81.46728 91.600715 
L 81.803763 95.084887 
L 82.140245 87.675595 
L 82.476727 90.005282 
L 82.81321 90.683459 
L 83.149692 94.416499 
L 83.486175 92.902582 
L 83.822657 94.536735 
L 84.159139 94.55357 
L 84.495622 88.949925 
L 84.832104 80.510982 
L 85.168587 87.913752 
L 85.505069 87.803096 
L 85.841552 82.554012 
L 86.178034 80.050069 
L 86.850999 95.123064 
L 87.187481 91.764953 
L 87.523964 91.893273 
L 87.860446 92.669166 
L 88.533411 99.07737 
L 88.869893 94.799103 
L 89.206376 95.340192 
L 89.542858 90.701422 
L 89.87934 92.116815 
L 90.215823 90.982534 
L 90.552305 76.402 
L 90.888788 84.6418 
L 91.561753 93.838549 
L 92.234717 93.173744 
L 92.5712 96.673817 
L 92.907682 94.654318 
L 93.244165 94.072085 
L 93.580647 89.662858 
L 93.917129 94.33652 
L 94.253612 91.213704 
L 94.590094 92.552693 
L 94.926577 85.902283 
L 95.263059 94.504841 
L 95.599541 93.093466 
L 95.936024 92.850069 
L 96.272506 89.744865 
L 96.608989 94.065597 
L 96.945471 92.936809 
L 97.281954 82.939887 
L 97.954918 88.547855 
L 98.291401 88.54747 
L 98.627883 76.835366 
L 98.964366 83.964793 
L 99.300848 88.02282 
L 99.63733 88.763897 
L 99.973813 90.183613 
L 100.310295 88.190491 
L 100.646778 72.358921 
L 100.98326 71.133919 
L 101.992707 99.639305 
L 102.32919 84.934862 
L 102.665672 82.783046 
L 103.338637 69.689894 
L 104.011602 93.895923 
L 104.348084 99.603422 
L 104.684567 96.304632 
L 105.021049 82.306511 
L 105.694014 92.013799 
L 106.030496 97.463807 
L 106.366979 99.630311 
L 106.703461 87.898881 
L 107.039943 88.314789 
L 107.376426 89.068354 
L 107.712908 94.380885 
L 108.385873 100.12732 
L 109.058838 96.354767 
L 109.39532 97.116416 
L 109.731803 99.947187 
L 110.068285 99.793442 
L 110.404768 96.7598 
L 110.74125 96.281552 
L 111.077732 94.794841 
L 111.750697 97.165496 
L 112.08718 82.553636 
L 112.423662 86.301637 
L 112.760144 81.436122 
L 113.096627 88.977523 
L 113.433109 89.261095 
L 113.769592 90.602698 
L 114.106074 95.637422 
L 114.442557 97.300932 
L 114.779039 92.27984 
L 115.115521 91.424156 
L 115.452004 96.868505 
L 115.788486 98.603346 
L 116.124969 94.971229 
L 116.461451 97.66518 
L 116.797933 99.229505 
L 117.470898 92.784973 
L 117.807381 94.943084 
L 118.143863 93.933421 
L 118.480345 99.62059 
L 118.816828 98.426526 
L 119.15331 100.25468 
L 119.489793 92.273468 
L 119.826275 96.950248 
L 120.162758 95.520949 
L 120.49924 100.04673 
L 120.835722 94.598678 
L 121.172205 97.516197 
L 121.508687 89.63889 
L 121.84517 92.982703 
L 123.191099 99.748347 
L 123.527582 99.850176 
L 123.864064 89.181709 
L 124.537029 92.955933 
L 124.873511 99.845738 
L 125.209994 95.620984 
L 125.546476 100.008259 
L 125.882959 99.483707 
L 126.219441 99.615388 
L 126.555923 100.198041 
L 126.892406 100.164331 
L 127.228888 100.417184 
L 127.565371 102.228907 
L 127.901853 100.995988 
L 128.238335 100.519149 
L 128.574818 97.995167 
L 128.9113 100.291507 
L 129.247783 101.193867 
L 129.584265 102.434499 
L 130.25723 98.366193 
L 130.593712 97.727072 
L 130.930195 96.791972 
L 131.266677 100.258169 
L 131.60316 98.167865 
L 131.939642 101.342046 
L 132.276124 99.289586 
L 132.612607 101.594989 
L 132.949089 101.148071 
L 133.285572 105.408021 
L 133.622054 100.165933 
L 133.958536 98.823698 
L 134.295019 100.568742 
L 134.631501 100.033461 
L 134.967984 104.505187 
L 135.304466 97.808781 
L 135.640948 101.541531 
L 135.977431 99.895399 
L 136.313913 102.599438 
L 136.650396 107.413447 
L 136.986878 104.381706 
L 137.323361 103.896189 
L 137.996325 101.855742 
L 138.66929 102.658913 
L 139.005773 103.382185 
L 139.342255 101.587942 
L 139.678737 103.293724 
L 140.01522 103.885729 
L 140.351702 103.606637 
L 140.688185 103.02205 
L 141.024667 106.345598 
L 141.361149 102.721501 
L 141.697632 104.868444 
L 142.034114 105.72321 
L 142.370597 103.095602 
L 142.707079 104.439827 
L 143.043562 104.604799 
L 143.380044 103.880677 
L 143.716526 124.96752 
L 144.053009 103.338166 
L 144.389491 113.241771 
L 144.725974 105.341832 
L 145.062456 107.230623 
L 145.398938 103.976655 
L 145.735421 101.83458 
L 146.071903 105.34574 
L 146.408386 113.259682 
L 146.744868 108.066917 
L 147.081351 110.434597 
L 147.417833 129.633279 
L 147.754315 107.193407 
L 148.090798 106.038404 
L 148.42728 101.657035 
L 148.763763 111.23078 
L 149.100245 109.37739 
L 149.436727 109.003072 
L 149.77321 126.916071 
L 150.109692 125.015417 
L 150.446175 143.330582 
L 150.782657 142.39601 
L 151.119139 147.066192 
L 151.455622 114.827693 
L 151.792104 133.981094 
L 152.128587 121.883705 
L 152.465069 139.11508 
L 153.138034 152.041387 
L 153.474516 123.024759 
L 153.810999 137.284781 
L 154.147481 126.273718 
L 154.820446 147.511224 
L 155.156928 128.84572 
L 155.493411 142.108083 
L 155.829893 145.250039 
L 156.166376 114.471615 
L 156.502858 136.174914 
L 157.175823 124.597699 
L 157.512305 142.668102 
L 157.848788 141.194075 
L 158.18527 149.27816 
L 158.521753 134.652675 
L 158.858235 137.082108 
L 159.194717 142.422047 
L 159.5312 140.155112 
L 159.867682 139.869175 
L 160.877129 111.263981 
L 161.213612 127.6924 
L 161.550094 131.460156 
L 161.886577 137.365443 
L 162.223059 116.09451 
L 162.559541 131.345335 
L 162.896024 132.939094 
L 163.232506 136.941526 
L 163.568989 160.537322 
L 163.905471 146.845985 
L 164.241954 153.593345 
L 164.578436 153.358869 
L 164.914918 147.830647 
L 165.587883 129.932314 
L 165.924366 138.739684 
L 166.260848 153.746315 
L 166.933813 144.363985 
L 167.270295 149.862018 
L 167.606778 147.469958 
L 167.94326 158.115015 
L 168.279742 152.004507 
L 168.616225 148.267413 
L 168.952707 156.309533 
L 169.28919 150.220821 
L 169.625672 161.174995 
L 169.962155 139.261554 
L 170.298637 145.310759 
L 170.635119 141.437417 
L 170.971602 158.689523 
L 171.308084 135.764422 
L 171.644567 146.296525 
L 171.981049 139.123528 
L 172.317531 155.770841 
L 172.654014 156.136073 
L 172.990496 135.735491 
L 173.326979 146.788015 
L 173.663461 142.549063 
L 173.999943 135.780826 
L 174.672908 149.817568 
L 175.009391 155.919883 
L 175.345873 129.687787 
L 176.018838 126.796557 
L 176.35532 136.631381 
L 176.691803 132.067393 
L 177.028285 136.63969 
L 177.364768 132.609019 
L 177.70125 144.650564 
L 178.037732 144.635552 
L 178.374215 148.480605 
L 178.710697 148.14267 
L 179.04718 148.343654 
L 179.383662 147.318023 
L 179.720144 142.285089 
L 180.056627 145.35166 
L 180.393109 146.872112 
L 180.729592 141.593676 
L 181.066074 153.195618 
L 181.739039 140.008764 
L 182.075521 143.184038 
L 182.412004 148.405087 
L 182.748486 130.536085 
L 183.084969 129.708419 
L 183.421451 131.85063 
L 183.757933 150.741598 
L 184.094416 138.862236 
L 184.430898 145.396393 
L 184.767381 129.671716 
L 185.103863 136.899314 
L 185.440345 137.548424 
L 185.776828 146.957728 
L 186.11331 150.182466 
L 186.449793 143.436628 
L 186.786275 150.008052 
L 187.122758 142.33532 
L 187.45924 153.54291 
L 187.795722 142.649264 
L 188.132205 143.7588 
L 188.468687 139.063077 
L 188.80517 147.936584 
L 189.478134 143.92575 
L 189.814617 150.560759 
L 190.151099 147.643178 
L 190.487582 142.785537 
L 190.824064 144.115322 
L 191.497029 148.785072 
L 191.833511 151.318172 
L 192.506476 145.727602 
L 192.842959 129.322301 
L 193.179441 136.518696 
L 193.515923 141.044695 
L 193.852406 148.200588 
L 194.188888 143.404531 
L 194.525371 147.475229 
L 194.861853 145.116363 
L 195.198335 129.813812 
L 195.534818 140.177766 
L 195.8713 136.286687 
L 196.207783 142.535592 
L 196.544265 145.993211 
L 196.880747 138.880167 
L 197.21723 146.126893 
L 197.553712 141.997369 
L 197.890195 148.761647 
L 198.226677 148.33874 
L 198.56316 125.093244 
L 198.899642 137.333099 
L 199.236124 128.272588 
L 199.572607 145.089041 
L 199.909089 133.016695 
L 200.245572 140.480704 
L 200.582054 135.81036 
L 200.918536 150.076367 
L 201.255019 145.272403 
L 201.591501 147.286573 
L 201.927984 151.230311 
L 202.264466 145.141819 
L 202.600948 146.944655 
L 202.937431 139.688542 
L 203.273913 139.839668 
L 203.610396 143.2557 
L 203.946878 144.467736 
L 204.283361 144.017786 
L 204.619843 148.54875 
L 204.956325 144.432314 
L 205.292808 149.565583 
L 205.62929 133.775866 
L 205.965773 141.84939 
L 206.302255 143.245732 
L 206.638737 146.052293 
L 206.97522 131.145483 
L 207.311702 141.595193 
L 207.648185 137.261445 
L 207.984667 146.251834 
L 208.321149 150.297708 
L 208.657632 145.217361 
L 208.994114 146.025235 
L 209.330597 145.348423 
L 210.003562 150.99564 
L 210.340044 147.01042 
L 210.676526 132.940295 
L 211.013009 140.914859 
L 211.349491 134.747141 
L 211.685974 146.880446 
L 212.022456 139.975661 
L 212.358938 141.504818 
L 212.695421 144.925221 
L 213.031903 142.419871 
L 213.368386 150.220272 
L 213.704868 153.30722 
L 214.041351 132.168621 
L 214.377833 126.039353 
L 214.714315 132.229798 
L 215.050798 147.286558 
L 215.38728 146.012426 
L 215.723763 150.923484 
L 216.060245 147.249738 
L 216.396727 136.017832 
L 216.73321 139.166657 
L 217.069692 137.678467 
L 217.406175 145.881917 
L 217.742657 147.79174 
L 218.079139 137.012889 
L 218.415622 147.48603 
L 218.752104 145.495547 
L 219.088587 152.137653 
L 219.425069 136.464267 
L 219.761552 147.368118 
L 220.098034 140.269827 
L 220.434516 142.72209 
L 220.770999 147.091775 
L 221.107481 143.990942 
L 221.443964 149.405199 
L 221.780446 152.49829 
L 222.453411 144.443571 
L 222.789893 145.057082 
L 223.126376 146.105643 
L 223.462858 149.650876 
L 223.79934 150.615201 
L 224.135823 152.094716 
L 224.472305 150.172483 
L 224.808788 144.4056 
L 225.14527 152.633855 
L 225.481753 140.494456 
L 225.818235 135.754383 
L 226.4912 146.867733 
L 226.827682 146.474434 
L 227.164165 140.548661 
L 227.500647 145.334744 
L 228.173612 150.145225 
L 228.510094 151.967435 
L 229.183059 130.245137 
L 229.519541 137.490249 
L 229.856024 152.337093 
L 230.192506 143.333593 
L 230.528989 150.541084 
L 230.865471 140.07311 
L 231.201954 153.378944 
L 231.538436 140.836189 
L 231.874918 151.732318 
L 232.547883 145.699765 
L 232.884366 152.827178 
L 233.220848 149.413706 
L 233.55733 142.105271 
L 234.230295 151.368227 
L 234.566778 147.460976 
L 234.90326 156.935752 
L 235.239742 144.362302 
L 235.576225 148.452808 
L 235.912707 144.390953 
L 236.24919 124.914904 
L 236.585672 138.987243 
L 236.922155 139.385542 
L 237.258637 141.296527 
L 237.595119 151.604141 
L 237.931602 153.846235 
L 238.268084 143.363694 
L 238.604567 155.327364 
L 238.941049 143.202134 
L 239.277531 147.237303 
L 239.614014 147.167041 
L 239.950496 153.210562 
L 240.286979 147.597688 
L 240.623461 153.570751 
L 240.959943 151.631412 
L 241.296426 148.85779 
L 241.632908 156.664657 
L 241.969391 153.240615 
L 242.305873 132.150173 
L 242.642356 140.364426 
L 242.978838 115.938925 
L 243.31532 113.701432 
L 243.651803 130.269096 
L 243.988285 139.44974 
L 244.324768 128.021277 
L 244.66125 138.685793 
L 244.997732 143.439509 
L 245.334215 143.572999 
L 245.670697 138.628154 
L 246.00718 144.659909 
L 246.343662 139.16437 
L 246.680144 139.161508 
L 247.016627 148.601981 
L 247.353109 147.624126 
L 247.689592 141.520229 
L 248.026074 113.195407 
L 248.362557 135.199613 
L 248.699039 116.552587 
L 249.035521 121.839314 
L 249.372004 124.926554 
L 249.708486 120.152255 
L 250.044969 119.316588 
L 250.717933 155.591173 
L 251.054416 156.822264 
L 251.390898 152.833955 
L 251.727381 131.267654 
L 252.063863 130.175519 
L 252.400345 141.651826 
L 253.07331 150.032912 
L 253.409793 139.030049 
L 253.746275 106.838239 
L 254.082758 119.709736 
L 254.41924 105.483157 
L 254.755722 113.817389 
L 255.428687 111.241043 
L 255.76517 130.517225 
L 256.101652 142.292804 
L 256.438134 137.19446 
L 256.774617 124.289215 
L 257.111099 140.643783 
L 257.447582 137.357421 
L 257.784064 125.306322 
L 258.120546 104.562954 
L 258.457029 115.374996 
L 258.793511 100.879677 
L 259.129994 108.325173 
L 259.466476 102.190902 
L 259.802959 110.441532 
L 260.139441 128.152521 
L 260.475923 106.612497 
L 260.812406 109.581876 
L 261.148888 110.021196 
L 261.485371 134.460304 
L 262.158335 106.919384 
L 262.494818 106.077294 
L 262.8313 107.985802 
L 263.167783 106.990339 
L 263.840747 102.95376 
L 264.17723 111.610851 
L 264.513712 104.119961 
L 264.850195 110.490937 
L 265.186677 104.816029 
L 265.52316 106.254113 
L 265.859642 103.766796 
L 266.196124 102.495717 
L 266.532607 102.938099 
L 266.869089 101.340637 
L 267.205572 108.779961 
L 267.542054 103.056772 
L 267.878536 105.567527 
L 268.215019 102.811654 
L 268.551501 104.27989 
L 268.887984 103.307181 
L 269.224466 103.183503 
L 269.560948 104.912382 
L 269.897431 102.650235 
L 270.233913 102.86474 
L 270.570396 101.639277 
L 270.906878 103.112489 
L 271.243361 102.127104 
L 271.579843 105.053583 
L 271.916325 101.917109 
L 272.252808 108.582108 
L 272.58929 99.291598 
L 272.925773 102.947367 
L 273.262255 96.775009 
L 273.598737 101.372899 
L 273.93522 95.581791 
L 274.271702 98.674626 
L 274.944667 100.769832 
L 275.281149 100.483103 
L 275.617632 98.50355 
L 275.954114 97.447685 
L 276.290597 99.669508 
L 276.627079 92.621406 
L 276.963562 96.40362 
L 277.300044 90.29977 
L 277.636526 98.495047 
L 277.973009 98.069825 
L 278.309491 101.626785 
L 278.982456 88.473995 
L 279.655421 94.786927 
L 279.991903 99.477416 
L 280.328386 96.735235 
L 280.664868 98.375349 
L 281.001351 93.765019 
L 281.337833 92.651677 
L 282.010798 99.021235 
L 282.34728 100.286954 
L 282.683763 100.600726 
L 283.020245 89.235863 
L 283.356727 93.199732 
L 283.69321 90.404405 
L 284.029692 97.743019 
L 284.366175 96.830961 
L 284.702657 98.837369 
L 285.039139 100.081452 
L 285.375622 87.955657 
L 285.712104 96.388549 
L 286.048587 97.80674 
L 286.385069 99.879072 
L 286.721552 98.198406 
L 287.058034 91.743936 
L 287.394516 93.794748 
L 287.730999 94.621211 
L 288.067481 92.934921 
L 288.403964 93.6841 
L 288.740446 91.16166 
L 289.076928 95.265986 
L 289.413411 92.644152 
L 289.749893 96.949266 
L 290.086376 88.548743 
L 290.422858 95.327106 
L 290.75934 80.306291 
L 291.095823 92.028068 
L 291.432305 90.677975 
L 291.768788 92.911542 
L 292.10527 83.115272 
L 292.441753 91.140289 
L 292.778235 90.086999 
L 293.114717 92.952807 
L 293.4512 89.226852 
L 293.787682 91.927546 
L 294.124165 92.532492 
L 294.460647 92.185011 
L 294.797129 82.360681 
L 295.133612 89.39917 
L 295.470094 88.501551 
L 295.806577 79.855431 
L 296.143059 84.86096 
L 296.816024 92.008602 
L 297.152506 76.084372 
L 297.488989 87.965745 
L 297.825471 91.975179 
L 298.161954 73.301144 
L 298.498436 76.934517 
L 298.834918 85.101748 
L 299.171401 90.309525 
L 299.507883 91.733793 
L 299.844366 88.44486 
L 300.180848 93.243772 
L 300.51733 94.196258 
L 300.853813 98.918732 
L 301.190295 93.989372 
L 301.526778 91.986099 
L 302.199742 76.355226 
L 302.536225 79.003604 
L 302.872707 86.955436 
L 303.20919 91.984497 
L 303.545672 87.026673 
L 303.882155 86.919989 
L 304.218637 82.846664 
L 304.555119 90.415423 
L 304.891602 90.142246 
L 305.228084 88.558421 
L 305.564567 92.129226 
L 305.901049 93.204677 
L 306.237531 90.472327 
L 306.910496 92.065523 
L 307.246979 90.127589 
L 307.583461 93.050583 
L 308.592908 86.85392 
L 308.929391 85.526299 
L 309.265873 91.108301 
L 309.602356 94.751407 
L 309.938838 92.053637 
L 310.27532 77.490951 
L 310.611803 72.847227 
L 310.948285 84.222186 
L 311.284768 91.208545 
L 311.62125 83.215063 
L 311.957732 86.008609 
L 312.294215 77.982857 
L 312.630697 90.247888 
L 312.96718 88.296851 
L 313.303662 87.497751 
L 313.640144 84.494987 
L 313.976627 88.154096 
L 314.313109 87.772662 
L 314.649592 74.516784 
L 315.659039 90.835286 
L 315.995521 91.519203 
L 316.332004 93.606435 
L 316.668486 84.575833 
L 317.004969 89.361015 
L 317.341451 89.914621 
L 317.677933 94.881576 
L 318.014416 95.542478 
L 318.350898 94.837284 
L 318.687381 95.893589 
L 319.360345 94.684086 
L 319.696828 66.422426 
L 320.03331 80.903707 
L 320.369793 77.368789 
L 320.706275 93.781854 
L 321.042758 93.87415 
L 321.37924 98.423404 
L 322.052205 100.071646 
L 322.388687 92.317116 
L 322.72517 98.469871 
L 323.061652 98.581309 
L 323.398134 97.910956 
L 323.734617 79.53952 
L 324.071099 86.775046 
L 324.407582 86.43697 
L 324.744064 95.173442 
L 325.080546 94.864151 
L 325.417029 97.568617 
L 325.753511 94.327594 
L 326.089994 79.665005 
L 326.426476 89.354651 
L 327.099441 100.389599 
L 327.435923 95.916578 
L 327.772406 96.166087 
L 328.108888 99.729914 
L 328.445371 99.986559 
L 328.781853 89.167556 
L 329.118335 91.287315 
L 329.7913 100.693778 
L 330.127783 95.334866 
L 330.464265 97.027319 
L 330.800747 95.842403 
L 331.13723 96.110336 
L 331.473712 90.69973 
L 332.146677 98.156757 
L 332.48316 100.100671 
L 332.819642 93.361522 
L 333.156124 88.923292 
L 333.492607 92.704003 
L 333.829089 90.711953 
L 334.165572 96.521874 
L 334.502054 96.078091 
L 334.838536 98.473983 
L 335.175019 97.118573 
L 335.511501 94.90548 
L 335.847984 99.611083 
L 336.184466 99.494901 
L 336.520948 96.340323 
L 336.857431 97.377337 
L 337.193913 96.059851 
L 337.530396 96.674483 
L 337.866878 93.55575 
L 338.203361 97.507382 
L 338.539843 99.889608 
L 338.876325 95.945342 
L 339.212808 98.695066 
L 339.54929 98.329746 
L 339.885773 99.387759 
L 340.222255 97.536996 
L 340.558737 100.065607 
L 340.89522 98.015206 
L 341.231702 101.181776 
L 341.568185 99.517715 
L 341.904667 103.03198 
L 342.241149 101.813013 
L 342.577632 104.537889 
L 342.914114 102.244227 
L 343.250597 97.485524 
L 343.587079 100.478901 
L 343.923562 100.297845 
L 344.260044 101.310246 
L 344.596526 100.796166 
L 345.269491 102.674834 
L 345.605974 102.93461 
L 345.942456 101.482504 
L 346.278938 101.80884 
L 346.615421 100.871592 
L 346.951903 108.562095 
L 347.288386 99.32983 
L 347.624868 102.866819 
L 347.961351 101.33951 
L 348.297833 104.256605 
L 348.634315 103.029964 
L 348.970798 109.53037 
L 349.30728 108.76395 
L 349.643763 104.749046 
L 349.980245 104.381753 
L 350.316727 104.666269 
L 350.989692 104.561519 
L 351.326175 103.66314 
L 351.662657 105.685824 
L 351.999139 104.991371 
L 352.335622 107.067811 
L 352.672104 102.608628 
L 353.008587 104.773039 
L 353.345069 97.579234 
L 353.681552 104.459289 
L 354.018034 107.301356 
L 354.354516 107.956581 
L 354.690999 108.152355 
L 355.027481 103.883859 
L 355.363964 104.200269 
L 355.700446 114.848257 
L 356.036928 107.212079 
L 356.373411 109.365142 
L 356.709893 113.164542 
L 357.046376 126.218014 
L 357.382858 116.023794 
L 357.71934 111.292497 
L 358.055823 118.700303 
L 358.392305 139.550123 
L 358.392305 139.550123 
" clip-path="url(#p12d8184233)" style="fill: none; stroke-dasharray: 5.55,2.4; stroke-dashoffset: 0; stroke: #bf00bf; stroke-width: 1.5"/>
   </g>
   <g id="line2d_23">
    <path d="M 48.828486 102.883433 
L 52.19331 102.967674 
L 52.529793 103.159672 
L 52.866275 102.873465 
L 54.88517 102.874012 
L 62.287783 102.869369 
L 69.017431 102.875101 
L 74.064667 102.853563 
L 77.765974 102.868096 
L 79.111903 102.839858 
L 81.130798 102.871184 
L 85.505069 102.85739 
L 93.244165 102.862271 
L 98.291401 102.854186 
L 106.703461 102.84588 
L 111.077732 102.852346 
L 123.864064 102.866269 
L 131.266677 102.867084 
L 138.332808 102.876672 
L 142.034114 102.870065 
L 154.483964 102.975071 
L 155.156928 103.095627 
L 155.493411 102.887225 
L 157.175823 103.152164 
L 157.512305 102.897326 
L 158.858235 103.095482 
L 159.194717 102.915613 
L 159.867682 103.037865 
L 160.204165 102.886358 
L 160.877129 102.910997 
L 161.213612 102.90421 
L 161.550094 103.011074 
L 161.886577 102.984745 
L 162.223059 103.085181 
L 162.559541 102.93795 
L 167.270295 102.941716 
L 167.606778 103.713518 
L 167.94326 102.988849 
L 168.616225 103.227313 
L 168.952707 103.178161 
L 169.28919 102.945116 
L 169.962155 102.95244 
L 170.298637 103.369727 
L 170.635119 103.058792 
L 170.971602 102.97842 
L 171.308084 103.104041 
L 171.644567 102.996045 
L 171.981049 103.464539 
L 172.317531 103.149388 
L 172.654014 103.002866 
L 172.990496 103.332806 
L 173.326979 103.073573 
L 173.663461 103.889876 
L 173.999943 102.939444 
L 174.672908 102.983686 
L 175.009391 103.699142 
L 175.345873 102.932884 
L 176.018838 102.946658 
L 176.35532 103.263675 
L 176.691803 103.409019 
L 177.028285 102.931676 
L 177.70125 102.996041 
L 178.374215 102.976041 
L 179.04718 103.290325 
L 179.383662 102.915105 
L 181.402557 102.923241 
L 183.084969 102.992167 
L 184.094416 102.974854 
L 184.430898 103.064147 
L 184.767381 102.947798 
L 185.103863 103.161868 
L 185.440345 102.977412 
L 186.11331 102.974354 
L 186.449793 103.098233 
L 186.786275 102.91786 
L 187.45924 102.93874 
L 187.795722 103.104306 
L 188.132205 102.935524 
L 188.80517 102.918172 
L 189.814617 102.982204 
L 190.151099 103.078766 
L 190.487582 102.957454 
L 191.497029 103.128197 
L 191.833511 102.953893 
L 193.515923 102.954213 
L 193.852406 103.03851 
L 194.861853 102.957587 
L 196.207783 103.095824 
L 196.880747 102.908216 
L 198.899642 103.01848 
L 199.572607 102.929118 
L 202.264466 103.000756 
L 202.600948 102.906423 
L 204.283361 102.930723 
L 214.377833 102.978881 
L 215.050798 102.940495 
L 217.069692 102.957685 
L 217.742657 103.191725 
L 218.079139 102.926102 
L 218.752104 102.924044 
L 219.761552 103.054252 
L 220.098034 103.071899 
L 220.434516 102.932141 
L 222.789893 102.980299 
L 223.126376 103.072078 
L 223.462858 102.937061 
L 224.472305 102.94855 
L 226.154717 102.992992 
L 227.164165 102.982498 
L 227.837129 103.023959 
L 228.510094 103.125468 
L 228.846577 102.961892 
L 229.183059 103.13509 
L 229.519541 102.947841 
L 230.192506 102.957527 
L 230.528989 103.039744 
L 231.201954 102.937578 
L 232.547883 103.158404 
L 232.884366 102.95789 
L 233.55733 102.955058 
L 233.893813 103.183444 
L 234.230295 102.959756 
L 234.566778 103.05485 
L 234.90326 102.942178 
L 235.239742 103.167561 
L 235.576225 102.947995 
L 235.912707 103.14522 
L 236.585672 102.979966 
L 236.922155 103.21439 
L 237.595119 102.956455 
L 237.931602 102.992496 
L 238.268084 103.162303 
L 238.604567 102.989315 
L 238.941049 103.366832 
L 239.277531 102.968409 
L 239.950496 103.019825 
L 240.286979 102.913662 
L 241.296426 102.944561 
L 241.969391 103.257034 
L 242.305873 102.966051 
L 242.642356 103.278601 
L 242.978838 102.965569 
L 243.651803 102.993829 
L 243.988285 103.237157 
L 244.324768 102.990011 
L 244.66125 103.150576 
L 244.997732 103.178156 
L 245.334215 103.017391 
L 245.670697 103.323624 
L 246.00718 103.31369 
L 246.343662 102.939867 
L 247.016627 102.88172 
L 248.699039 102.966406 
L 251.727381 103.014414 
L 252.063863 102.885735 
L 252.736828 102.879781 
L 254.41924 102.962208 
L 255.092205 103.571834 
L 255.76517 102.923361 
L 256.774617 103.023323 
L 257.111099 103.167266 
L 257.784064 102.875297 
L 259.129994 102.881165 
L 362.430094 102.963626 
L 362.430094 102.963626 
" clip-path="url(#p12d8184233)" style="fill: none; stroke-dasharray: 9.6,2.4,1.5,2.4; stroke-dashoffset: 0; stroke: #008000; stroke-width: 1.5"/>
   </g>
   <g id="line2d_24">
    <path d="M 64.979642 102.871496 
L 378.58125 102.871487 
L 378.58125 102.871487 
" clip-path="url(#p12d8184233)" style="fill: none; stroke-dasharray: 1.5,2.475; stroke-dashoffset: 0; stroke: #ff0000; stroke-width: 1.5"/>
   </g>
   <g id="patch_3">
    <path d="M 43.78125 170.28 
L 43.78125 7.2 
" style="fill: none; stroke: #000000; stroke-width: 0.8; stroke-linejoin: miter; stroke-linecap: square"/>
   </g>
   <g id="patch_4">
    <path d="M 378.58125 170.28 
L 378.58125 7.2 
" style="fill: none; stroke: #000000; stroke-width: 0.8; stroke-linejoin: miter; stroke-linecap: square"/>
   </g>
   <g id="patch_5">
    <path d="M 43.78125 170.28 
L 378.58125 170.28 
" style="fill: none; stroke: #000000; stroke-width: 0.8; stroke-linejoin: miter; stroke-linecap: square"/>
   </g>
   <g id="patch_6">
    <path d="M 43.78125 7.2 
L 378.58125 7.2 
" style="fill: none; stroke: #000000; stroke-width: 0.8; stroke-linejoin: miter; stroke-linecap: square"/>
   </g>
   <g id="legend_1">
    <g id="patch_7">
     <path d="M 160.6375 73.9125 
L 261.725 73.9125 
Q 263.725 73.9125 263.725 71.9125 
L 263.725 14.2 
Q 263.725 12.2 261.725 12.2 
L 160.6375 12.2 
Q 158.6375 12.2 158.6375 14.2 
L 158.6375 71.9125 
Q 158.6375 73.9125 160.6375 73.9125 
z
" style="fill: #ffffff; opacity: 0.8; stroke: #cccccc; stroke-linejoin: miter"/>
    </g>
    <g id="line2d_25">
     <path d="M 162.6375 20.298437 
L 172.6375 20.298437 
L 182.6375 20.298437 
" style="fill: none; stroke: #1f77b4; stroke-width: 1.5; stroke-linecap: square"/>
    </g>
    <g id="text_13">
     <!-- 1-step preds -->
     <g transform="translate(190.6375 23.798437)scale(0.1 -0.1)">
      <defs>
       <path id="DejaVuSans-2d" d="M 313 2009 
L 1997 2009 
L 1997 1497 
L 313 1497 
L 313 2009 
z
" transform="scale(0.015625)"/>
       <path id="DejaVuSans-73" d="M 2834 3397 
L 2834 2853 
Q 2591 2978 2328 3040 
Q 2066 3103 1784 3103 
Q 1356 3103 1142 2972 
Q 928 2841 928 2578 
Q 928 2378 1081 2264 
Q 1234 2150 1697 2047 
L 1894 2003 
Q 2506 1872 2764 1633 
Q 3022 1394 3022 966 
Q 3022 478 2636 193 
Q 2250 -91 1575 -91 
Q 1294 -91 989 -36 
Q 684 19 347 128 
L 347 722 
Q 666 556 975 473 
Q 1284 391 1588 391 
Q 1994 391 2212 530 
Q 2431 669 2431 922 
Q 2431 1156 2273 1281 
Q 2116 1406 1581 1522 
L 1381 1569 
Q 847 1681 609 1914 
Q 372 2147 372 2553 
Q 372 3047 722 3315 
Q 1072 3584 1716 3584 
Q 2034 3584 2315 3537 
Q 2597 3491 2834 3397 
z
" transform="scale(0.015625)"/>
       <path id="DejaVuSans-70" d="M 1159 525 
L 1159 -1331 
L 581 -1331 
L 581 3500 
L 1159 3500 
L 1159 2969 
Q 1341 3281 1617 3432 
Q 1894 3584 2278 3584 
Q 2916 3584 3314 3078 
Q 3713 2572 3713 1747 
Q 3713 922 3314 415 
Q 2916 -91 2278 -91 
Q 1894 -91 1617 61 
Q 1341 213 1159 525 
z
M 3116 1747 
Q 3116 2381 2855 2742 
Q 2594 3103 2138 3103 
Q 1681 3103 1420 2742 
Q 1159 2381 1159 1747 
Q 1159 1113 1420 752 
Q 1681 391 2138 391 
Q 2594 391 2855 752 
Q 3116 1113 3116 1747 
z
" transform="scale(0.015625)"/>
       <path id="DejaVuSans-20" transform="scale(0.015625)"/>
       <path id="DejaVuSans-72" d="M 2631 2963 
Q 2534 3019 2420 3045 
Q 2306 3072 2169 3072 
Q 1681 3072 1420 2755 
Q 1159 2438 1159 1844 
L 1159 0 
L 581 0 
L 581 3500 
L 1159 3500 
L 1159 2956 
Q 1341 3275 1631 3429 
Q 1922 3584 2338 3584 
Q 2397 3584 2469 3576 
Q 2541 3569 2628 3553 
L 2631 2963 
z
" transform="scale(0.015625)"/>
       <path id="DejaVuSans-64" d="M 2906 2969 
L 2906 4863 
L 3481 4863 
L 3481 0 
L 2906 0 
L 2906 525 
Q 2725 213 2448 61 
Q 2172 -91 1784 -91 
Q 1150 -91 751 415 
Q 353 922 353 1747 
Q 353 2572 751 3078 
Q 1150 3584 1784 3584 
Q 2172 3584 2448 3432 
Q 2725 3281 2906 2969 
z
M 947 1747 
Q 947 1113 1208 752 
Q 1469 391 1925 391 
Q 2381 391 2643 752 
Q 2906 1113 2906 1747 
Q 2906 2381 2643 2742 
Q 2381 3103 1925 3103 
Q 1469 3103 1208 2742 
Q 947 2381 947 1747 
z
" transform="scale(0.015625)"/>
      </defs>
      <use xlink:href="#DejaVuSans-31"/>
      <use xlink:href="#DejaVuSans-2d" x="63.623047"/>
      <use xlink:href="#DejaVuSans-73" x="99.707031"/>
      <use xlink:href="#DejaVuSans-74" x="151.806641"/>
      <use xlink:href="#DejaVuSans-65" x="191.015625"/>
      <use xlink:href="#DejaVuSans-70" x="252.539062"/>
      <use xlink:href="#DejaVuSans-20" x="316.015625"/>
      <use xlink:href="#DejaVuSans-70" x="347.802734"/>
      <use xlink:href="#DejaVuSans-72" x="411.279297"/>
      <use xlink:href="#DejaVuSans-65" x="450.142578"/>
      <use xlink:href="#DejaVuSans-64" x="511.666016"/>
      <use xlink:href="#DejaVuSans-73" x="575.142578"/>
     </g>
    </g>
    <g id="line2d_26">
     <path d="M 162.6375 34.976562 
L 172.6375 34.976562 
L 182.6375 34.976562 
" style="fill: none; stroke-dasharray: 5.55,2.4; stroke-dashoffset: 0; stroke: #bf00bf; stroke-width: 1.5"/>
    </g>
    <g id="text_14">
     <!-- 4-step preds -->
     <g transform="translate(190.6375 38.476562)scale(0.1 -0.1)">
      <use xlink:href="#DejaVuSans-34"/>
      <use xlink:href="#DejaVuSans-2d" x="63.623047"/>
      <use xlink:href="#DejaVuSans-73" x="99.707031"/>
      <use xlink:href="#DejaVuSans-74" x="151.806641"/>
      <use xlink:href="#DejaVuSans-65" x="191.015625"/>
      <use xlink:href="#DejaVuSans-70" x="252.539062"/>
      <use xlink:href="#DejaVuSans-20" x="316.015625"/>
      <use xlink:href="#DejaVuSans-70" x="347.802734"/>
      <use xlink:href="#DejaVuSans-72" x="411.279297"/>
      <use xlink:href="#DejaVuSans-65" x="450.142578"/>
      <use xlink:href="#DejaVuSans-64" x="511.666016"/>
      <use xlink:href="#DejaVuSans-73" x="575.142578"/>
     </g>
    </g>
    <g id="line2d_27">
     <path d="M 162.6375 49.654687 
L 172.6375 49.654687 
L 182.6375 49.654687 
" style="fill: none; stroke-dasharray: 9.6,2.4,1.5,2.4; stroke-dashoffset: 0; stroke: #008000; stroke-width: 1.5"/>
    </g>
    <g id="text_15">
     <!-- 16-step preds -->
     <g transform="translate(190.6375 53.154687)scale(0.1 -0.1)">
      <use xlink:href="#DejaVuSans-31"/>
      <use xlink:href="#DejaVuSans-36" x="63.623047"/>
      <use xlink:href="#DejaVuSans-2d" x="127.246094"/>
      <use xlink:href="#DejaVuSans-73" x="163.330078"/>
      <use xlink:href="#DejaVuSans-74" x="215.429688"/>
      <use xlink:href="#DejaVuSans-65" x="254.638672"/>
      <use xlink:href="#DejaVuSans-70" x="316.162109"/>
      <use xlink:href="#DejaVuSans-20" x="379.638672"/>
      <use xlink:href="#DejaVuSans-70" x="411.425781"/>
      <use xlink:href="#DejaVuSans-72" x="474.902344"/>
      <use xlink:href="#DejaVuSans-65" x="513.765625"/>
      <use xlink:href="#DejaVuSans-64" x="575.289062"/>
      <use xlink:href="#DejaVuSans-73" x="638.765625"/>
     </g>
    </g>
    <g id="line2d_28">
     <path d="M 162.6375 64.332812 
L 172.6375 64.332812 
L 182.6375 64.332812 
" style="fill: none; stroke-dasharray: 1.5,2.475; stroke-dashoffset: 0; stroke: #ff0000; stroke-width: 1.5"/>
    </g>
    <g id="text_16">
     <!-- 64-step preds -->
     <g transform="translate(190.6375 67.832812)scale(0.1 -0.1)">
      <use xlink:href="#DejaVuSans-36"/>
      <use xlink:href="#DejaVuSans-34" x="63.623047"/>
      <use xlink:href="#DejaVuSans-2d" x="127.246094"/>
      <use xlink:href="#DejaVuSans-73" x="163.330078"/>
      <use xlink:href="#DejaVuSans-74" x="215.429688"/>
      <use xlink:href="#DejaVuSans-65" x="254.638672"/>
      <use xlink:href="#DejaVuSans-70" x="316.162109"/>
      <use xlink:href="#DejaVuSans-20" x="379.638672"/>
      <use xlink:href="#DejaVuSans-70" x="411.425781"/>
      <use xlink:href="#DejaVuSans-72" x="474.902344"/>
      <use xlink:href="#DejaVuSans-65" x="513.765625"/>
      <use xlink:href="#DejaVuSans-64" x="575.289062"/>
      <use xlink:href="#DejaVuSans-73" x="638.765625"/>
     </g>
    </g>
   </g>
  </g>
 </g>
 <defs>
  <clipPath id="p12d8184233">
   <rect x="43.78125" y="7.2" width="334.8" height="163.08"/>
  </clipPath>
 </defs>
</svg>
