<?xml version="1.0" encoding="utf-8" standalone="no"?>
<!DOCTYPE svg PUBLIC "-//W3C//DTD SVG 1.1//EN"
  "http://www.w3.org/Graphics/SVG/1.1/DTD/svg11.dtd">
<svg xmlns:xlink="http://www.w3.org/1999/xlink" width="406.885938pt" height="207.83625pt" viewBox="0 0 406.885938 207.83625" xmlns="http://www.w3.org/2000/svg" version="1.1">
 <metadata>
  <rdf:RDF xmlns:dc="http://purl.org/dc/elements/1.1/" xmlns:cc="http://creativecommons.org/ns#" xmlns:rdf="http://www.w3.org/1999/02/22-rdf-syntax-ns#">
   <cc:Work>
    <dc:type rdf:resource="http://purl.org/dc/dcmitype/StillImage"/>
    <dc:date>2022-08-11T13:49:27.157185</dc:date>
    <dc:format>image/svg+xml</dc:format>
    <dc:creator>
     <cc:Agent>
      <dc:title>Matplotlib v3.5.2, https://matplotlib.org/</dc:title>
     </cc:Agent>
    </dc:creator>
   </cc:Work>
  </rdf:RDF>
 </metadata>
 <defs>
  <style type="text/css">*{stroke-linejoin: round; stroke-linecap: butt}</style>
 </defs>
 <g id="figure_1">
  <g id="patch_1">
   <path d="M 0 207.83625 
L 406.885938 207.83625 
L 406.885938 0 
L 0 0 
L 0 207.83625 
z
" style="fill: none"/>
  </g>
  <g id="axes_1">
   <g id="patch_2">
    <path d="M 52.160938 170.28 
L 386.960938 170.28 
L 386.960938 7.2 
L 52.160938 7.2 
z
" style="fill: #ffffff"/>
   </g>
   <g id="matplotlib.axis_1">
    <g id="xtick_1">
     <g id="line2d_1">
      <path d="M 118.852829 170.28 
L 118.852829 7.2 
" clip-path="url(#p11abb6a87f)" style="fill: none; stroke: #b0b0b0; stroke-width: 0.8; stroke-linecap: square"/>
     </g>
     <g id="line2d_2">
      <defs>
       <path id="m58aa0438b7" d="M 0 0 
L 0 3.5 
" style="stroke: #000000; stroke-width: 0.8"/>
      </defs>
      <g>
       <use xlink:href="#m58aa0438b7" x="118.852829" y="170.28" style="stroke: #000000; stroke-width: 0.8"/>
      </g>
     </g>
     <g id="text_1">
      <!-- 200 -->
      <g transform="translate(109.309079 184.878438)scale(0.1 -0.1)">
       <defs>
        <path id="DejaVuSans-32" d="M 1228 531 
L 3431 531 
L 3431 0 
L 469 0 
L 469 531 
Q 828 903 1448 1529 
Q 2069 2156 2228 2338 
Q 2531 2678 2651 2914 
Q 2772 3150 2772 3378 
Q 2772 3750 2511 3984 
Q 2250 4219 1831 4219 
Q 1534 4219 1204 4116 
Q 875 4013 500 3803 
L 500 4441 
Q 881 4594 1212 4672 
Q 1544 4750 1819 4750 
Q 2544 4750 2975 4387 
Q 3406 4025 3406 3419 
Q 3406 3131 3298 2873 
Q 3191 2616 2906 2266 
Q 2828 2175 2409 1742 
Q 1991 1309 1228 531 
z
" transform="scale(0.015625)"/>
        <path id="DejaVuSans-30" d="M 2034 4250 
Q 1547 4250 1301 3770 
Q 1056 3291 1056 2328 
Q 1056 1369 1301 889 
Q 1547 409 2034 409 
Q 2525 409 2770 889 
Q 3016 1369 3016 2328 
Q 3016 3291 2770 3770 
Q 2525 4250 2034 4250 
z
M 2034 4750 
Q 2819 4750 3233 4129 
Q 3647 3509 3647 2328 
Q 3647 1150 3233 529 
Q 2819 -91 2034 -91 
Q 1250 -91 836 529 
Q 422 1150 422 2328 
Q 422 3509 836 4129 
Q 1250 4750 2034 4750 
z
" transform="scale(0.015625)"/>
       </defs>
       <use xlink:href="#DejaVuSans-32"/>
       <use xlink:href="#DejaVuSans-30" x="63.623047"/>
       <use xlink:href="#DejaVuSans-30" x="127.246094"/>
      </g>
     </g>
    </g>
    <g id="xtick_2">
     <g id="line2d_3">
      <path d="M 185.879856 170.28 
L 185.879856 7.2 
" clip-path="url(#p11abb6a87f)" style="fill: none; stroke: #b0b0b0; stroke-width: 0.8; stroke-linecap: square"/>
     </g>
     <g id="line2d_4">
      <g>
       <use xlink:href="#m58aa0438b7" x="185.879856" y="170.28" style="stroke: #000000; stroke-width: 0.8"/>
      </g>
     </g>
     <g id="text_2">
      <!-- 400 -->
      <g transform="translate(176.336106 184.878438)scale(0.1 -0.1)">
       <defs>
        <path id="DejaVuSans-34" d="M 2419 4116 
L 825 1625 
L 2419 1625 
L 2419 4116 
z
M 2253 4666 
L 3047 4666 
L 3047 1625 
L 3713 1625 
L 3713 1100 
L 3047 1100 
L 3047 0 
L 2419 0 
L 2419 1100 
L 313 1100 
L 313 1709 
L 2253 4666 
z
" transform="scale(0.015625)"/>
       </defs>
       <use xlink:href="#DejaVuSans-34"/>
       <use xlink:href="#DejaVuSans-30" x="63.623047"/>
       <use xlink:href="#DejaVuSans-30" x="127.246094"/>
      </g>
     </g>
    </g>
    <g id="xtick_3">
     <g id="line2d_5">
      <path d="M 252.906883 170.28 
L 252.906883 7.2 
" clip-path="url(#p11abb6a87f)" style="fill: none; stroke: #b0b0b0; stroke-width: 0.8; stroke-linecap: square"/>
     </g>
     <g id="line2d_6">
      <g>
       <use xlink:href="#m58aa0438b7" x="252.906883" y="170.28" style="stroke: #000000; stroke-width: 0.8"/>
      </g>
     </g>
     <g id="text_3">
      <!-- 600 -->
      <g transform="translate(243.363133 184.878438)scale(0.1 -0.1)">
       <defs>
        <path id="DejaVuSans-36" d="M 2113 2584 
Q 1688 2584 1439 2293 
Q 1191 2003 1191 1497 
Q 1191 994 1439 701 
Q 1688 409 2113 409 
Q 2538 409 2786 701 
Q 3034 994 3034 1497 
Q 3034 2003 2786 2293 
Q 2538 2584 2113 2584 
z
M 3366 4563 
L 3366 3988 
Q 3128 4100 2886 4159 
Q 2644 4219 2406 4219 
Q 1781 4219 1451 3797 
Q 1122 3375 1075 2522 
Q 1259 2794 1537 2939 
Q 1816 3084 2150 3084 
Q 2853 3084 3261 2657 
Q 3669 2231 3669 1497 
Q 3669 778 3244 343 
Q 2819 -91 2113 -91 
Q 1303 -91 875 529 
Q 447 1150 447 2328 
Q 447 3434 972 4092 
Q 1497 4750 2381 4750 
Q 2619 4750 2861 4703 
Q 3103 4656 3366 4563 
z
" transform="scale(0.015625)"/>
       </defs>
       <use xlink:href="#DejaVuSans-36"/>
       <use xlink:href="#DejaVuSans-30" x="63.623047"/>
       <use xlink:href="#DejaVuSans-30" x="127.246094"/>
      </g>
     </g>
    </g>
    <g id="xtick_4">
     <g id="line2d_7">
      <path d="M 319.93391 170.28 
L 319.93391 7.2 
" clip-path="url(#p11abb6a87f)" style="fill: none; stroke: #b0b0b0; stroke-width: 0.8; stroke-linecap: square"/>
     </g>
     <g id="line2d_8">
      <g>
       <use xlink:href="#m58aa0438b7" x="319.93391" y="170.28" style="stroke: #000000; stroke-width: 0.8"/>
      </g>
     </g>
     <g id="text_4">
      <!-- 800 -->
      <g transform="translate(310.39016 184.878438)scale(0.1 -0.1)">
       <defs>
        <path id="DejaVuSans-38" d="M 2034 2216 
Q 1584 2216 1326 1975 
Q 1069 1734 1069 1313 
Q 1069 891 1326 650 
Q 1584 409 2034 409 
Q 2484 409 2743 651 
Q 3003 894 3003 1313 
Q 3003 1734 2745 1975 
Q 2488 2216 2034 2216 
z
M 1403 2484 
Q 997 2584 770 2862 
Q 544 3141 544 3541 
Q 544 4100 942 4425 
Q 1341 4750 2034 4750 
Q 2731 4750 3128 4425 
Q 3525 4100 3525 3541 
Q 3525 3141 3298 2862 
Q 3072 2584 2669 2484 
Q 3125 2378 3379 2068 
Q 3634 1759 3634 1313 
Q 3634 634 3220 271 
Q 2806 -91 2034 -91 
Q 1263 -91 848 271 
Q 434 634 434 1313 
Q 434 1759 690 2068 
Q 947 2378 1403 2484 
z
M 1172 3481 
Q 1172 3119 1398 2916 
Q 1625 2713 2034 2713 
Q 2441 2713 2670 2916 
Q 2900 3119 2900 3481 
Q 2900 3844 2670 4047 
Q 2441 4250 2034 4250 
Q 1625 4250 1398 4047 
Q 1172 3844 1172 3481 
z
" transform="scale(0.015625)"/>
       </defs>
       <use xlink:href="#DejaVuSans-38"/>
       <use xlink:href="#DejaVuSans-30" x="63.623047"/>
       <use xlink:href="#DejaVuSans-30" x="127.246094"/>
      </g>
     </g>
    </g>
    <g id="xtick_5">
     <g id="line2d_9">
      <path d="M 386.960938 170.28 
L 386.960938 7.2 
" clip-path="url(#p11abb6a87f)" style="fill: none; stroke: #b0b0b0; stroke-width: 0.8; stroke-linecap: square"/>
     </g>
     <g id="line2d_10">
      <g>
       <use xlink:href="#m58aa0438b7" x="386.960938" y="170.28" style="stroke: #000000; stroke-width: 0.8"/>
      </g>
     </g>
     <g id="text_5">
      <!-- 1000 -->
      <g transform="translate(374.235937 184.878438)scale(0.1 -0.1)">
       <defs>
        <path id="DejaVuSans-31" d="M 794 531 
L 1825 531 
L 1825 4091 
L 703 3866 
L 703 4441 
L 1819 4666 
L 2450 4666 
L 2450 531 
L 3481 531 
L 3481 0 
L 794 0 
L 794 531 
z
" transform="scale(0.015625)"/>
       </defs>
       <use xlink:href="#DejaVuSans-31"/>
       <use xlink:href="#DejaVuSans-30" x="63.623047"/>
       <use xlink:href="#DejaVuSans-30" x="127.246094"/>
       <use xlink:href="#DejaVuSans-30" x="190.869141"/>
      </g>
     </g>
    </g>
    <g id="text_6">
     <!-- tiempo -->
     <g transform="translate(202.03125 198.556563)scale(0.1 -0.1)">
      <defs>
       <path id="DejaVuSans-74" d="M 1172 4494 
L 1172 3500 
L 2356 3500 
L 2356 3053 
L 1172 3053 
L 1172 1153 
Q 1172 725 1289 603 
Q 1406 481 1766 481 
L 2356 481 
L 2356 0 
L 1766 0 
Q 1100 0 847 248 
Q 594 497 594 1153 
L 594 3053 
L 172 3053 
L 172 3500 
L 594 3500 
L 594 4494 
L 1172 4494 
z
" transform="scale(0.015625)"/>
       <path id="DejaVuSans-69" d="M 603 3500 
L 1178 3500 
L 1178 0 
L 603 0 
L 603 3500 
z
M 603 4863 
L 1178 4863 
L 1178 4134 
L 603 4134 
L 603 4863 
z
" transform="scale(0.015625)"/>
       <path id="DejaVuSans-65" d="M 3597 1894 
L 3597 1613 
L 953 1613 
Q 991 1019 1311 708 
Q 1631 397 2203 397 
Q 2534 397 2845 478 
Q 3156 559 3463 722 
L 3463 178 
Q 3153 47 2828 -22 
Q 2503 -91 2169 -91 
Q 1331 -91 842 396 
Q 353 884 353 1716 
Q 353 2575 817 3079 
Q 1281 3584 2069 3584 
Q 2775 3584 3186 3129 
Q 3597 2675 3597 1894 
z
M 3022 2063 
Q 3016 2534 2758 2815 
Q 2500 3097 2075 3097 
Q 1594 3097 1305 2825 
Q 1016 2553 972 2059 
L 3022 2063 
z
" transform="scale(0.015625)"/>
       <path id="DejaVuSans-6d" d="M 3328 2828 
Q 3544 3216 3844 3400 
Q 4144 3584 4550 3584 
Q 5097 3584 5394 3201 
Q 5691 2819 5691 2113 
L 5691 0 
L 5113 0 
L 5113 2094 
Q 5113 2597 4934 2840 
Q 4756 3084 4391 3084 
Q 3944 3084 3684 2787 
Q 3425 2491 3425 1978 
L 3425 0 
L 2847 0 
L 2847 2094 
Q 2847 2600 2669 2842 
Q 2491 3084 2119 3084 
Q 1678 3084 1418 2786 
Q 1159 2488 1159 1978 
L 1159 0 
L 581 0 
L 581 3500 
L 1159 3500 
L 1159 2956 
Q 1356 3278 1631 3431 
Q 1906 3584 2284 3584 
Q 2666 3584 2933 3390 
Q 3200 3197 3328 2828 
z
" transform="scale(0.015625)"/>
       <path id="DejaVuSans-70" d="M 1159 525 
L 1159 -1331 
L 581 -1331 
L 581 3500 
L 1159 3500 
L 1159 2969 
Q 1341 3281 1617 3432 
Q 1894 3584 2278 3584 
Q 2916 3584 3314 3078 
Q 3713 2572 3713 1747 
Q 3713 922 3314 415 
Q 2916 -91 2278 -91 
Q 1894 -91 1617 61 
Q 1341 213 1159 525 
z
M 3116 1747 
Q 3116 2381 2855 2742 
Q 2594 3103 2138 3103 
Q 1681 3103 1420 2742 
Q 1159 2381 1159 1747 
Q 1159 1113 1420 752 
Q 1681 391 2138 391 
Q 2594 391 2855 752 
Q 3116 1113 3116 1747 
z
" transform="scale(0.015625)"/>
       <path id="DejaVuSans-6f" d="M 1959 3097 
Q 1497 3097 1228 2736 
Q 959 2375 959 1747 
Q 959 1119 1226 758 
Q 1494 397 1959 397 
Q 2419 397 2687 759 
Q 2956 1122 2956 1747 
Q 2956 2369 2687 2733 
Q 2419 3097 1959 3097 
z
M 1959 3584 
Q 2709 3584 3137 3096 
Q 3566 2609 3566 1747 
Q 3566 888 3137 398 
Q 2709 -91 1959 -91 
Q 1206 -91 779 398 
Q 353 888 353 1747 
Q 353 2609 779 3096 
Q 1206 3584 1959 3584 
z
" transform="scale(0.015625)"/>
      </defs>
      <use xlink:href="#DejaVuSans-74"/>
      <use xlink:href="#DejaVuSans-69" x="39.208984"/>
      <use xlink:href="#DejaVuSans-65" x="66.992188"/>
      <use xlink:href="#DejaVuSans-6d" x="128.515625"/>
      <use xlink:href="#DejaVuSans-70" x="225.927734"/>
      <use xlink:href="#DejaVuSans-6f" x="289.404297"/>
     </g>
    </g>
   </g>
   <g id="matplotlib.axis_2">
    <g id="ytick_1">
     <g id="line2d_11">
      <path d="M 52.160938 166.398248 
L 386.960938 166.398248 
" clip-path="url(#p11abb6a87f)" style="fill: none; stroke: #b0b0b0; stroke-width: 0.8; stroke-linecap: square"/>
     </g>
     <g id="line2d_12">
      <defs>
       <path id="ma753b2d966" d="M 0 0 
L -3.5 0 
" style="stroke: #000000; stroke-width: 0.8"/>
      </defs>
      <g>
       <use xlink:href="#ma753b2d966" x="52.160938" y="166.398248" style="stroke: #000000; stroke-width: 0.8"/>
      </g>
     </g>
     <g id="text_7">
      <!-- −1.5 -->
      <g transform="translate(20.878125 170.197466)scale(0.1 -0.1)">
       <defs>
        <path id="DejaVuSans-2212" d="M 678 2272 
L 4684 2272 
L 4684 1741 
L 678 1741 
L 678 2272 
z
" transform="scale(0.015625)"/>
        <path id="DejaVuSans-2e" d="M 684 794 
L 1344 794 
L 1344 0 
L 684 0 
L 684 794 
z
" transform="scale(0.015625)"/>
        <path id="DejaVuSans-35" d="M 691 4666 
L 3169 4666 
L 3169 4134 
L 1269 4134 
L 1269 2991 
Q 1406 3038 1543 3061 
Q 1681 3084 1819 3084 
Q 2600 3084 3056 2656 
Q 3513 2228 3513 1497 
Q 3513 744 3044 326 
Q 2575 -91 1722 -91 
Q 1428 -91 1123 -41 
Q 819 9 494 109 
L 494 744 
Q 775 591 1075 516 
Q 1375 441 1709 441 
Q 2250 441 2565 725 
Q 2881 1009 2881 1497 
Q 2881 1984 2565 2268 
Q 2250 2553 1709 2553 
Q 1456 2553 1204 2497 
Q 953 2441 691 2322 
L 691 4666 
z
" transform="scale(0.015625)"/>
       </defs>
       <use xlink:href="#DejaVuSans-2212"/>
       <use xlink:href="#DejaVuSans-31" x="83.789062"/>
       <use xlink:href="#DejaVuSans-2e" x="147.412109"/>
       <use xlink:href="#DejaVuSans-35" x="179.199219"/>
      </g>
     </g>
    </g>
    <g id="ytick_2">
     <g id="line2d_13">
      <path d="M 52.160938 140.698074 
L 386.960938 140.698074 
" clip-path="url(#p11abb6a87f)" style="fill: none; stroke: #b0b0b0; stroke-width: 0.8; stroke-linecap: square"/>
     </g>
     <g id="line2d_14">
      <g>
       <use xlink:href="#ma753b2d966" x="52.160938" y="140.698074" style="stroke: #000000; stroke-width: 0.8"/>
      </g>
     </g>
     <g id="text_8">
      <!-- −1.0 -->
      <g transform="translate(20.878125 144.497293)scale(0.1 -0.1)">
       <use xlink:href="#DejaVuSans-2212"/>
       <use xlink:href="#DejaVuSans-31" x="83.789062"/>
       <use xlink:href="#DejaVuSans-2e" x="147.412109"/>
       <use xlink:href="#DejaVuSans-30" x="179.199219"/>
      </g>
     </g>
    </g>
    <g id="ytick_3">
     <g id="line2d_15">
      <path d="M 52.160938 114.997901 
L 386.960938 114.997901 
" clip-path="url(#p11abb6a87f)" style="fill: none; stroke: #b0b0b0; stroke-width: 0.8; stroke-linecap: square"/>
     </g>
     <g id="line2d_16">
      <g>
       <use xlink:href="#ma753b2d966" x="52.160938" y="114.997901" style="stroke: #000000; stroke-width: 0.8"/>
      </g>
     </g>
     <g id="text_9">
      <!-- −0.5 -->
      <g transform="translate(20.878125 118.79712)scale(0.1 -0.1)">
       <use xlink:href="#DejaVuSans-2212"/>
       <use xlink:href="#DejaVuSans-30" x="83.789062"/>
       <use xlink:href="#DejaVuSans-2e" x="147.412109"/>
       <use xlink:href="#DejaVuSans-35" x="179.199219"/>
      </g>
     </g>
    </g>
    <g id="ytick_4">
     <g id="line2d_17">
      <path d="M 52.160938 89.297728 
L 386.960938 89.297728 
" clip-path="url(#p11abb6a87f)" style="fill: none; stroke: #b0b0b0; stroke-width: 0.8; stroke-linecap: square"/>
     </g>
     <g id="line2d_18">
      <g>
       <use xlink:href="#ma753b2d966" x="52.160938" y="89.297728" style="stroke: #000000; stroke-width: 0.8"/>
      </g>
     </g>
     <g id="text_10">
      <!-- 0.0 -->
      <g transform="translate(29.257812 93.096947)scale(0.1 -0.1)">
       <use xlink:href="#DejaVuSans-30"/>
       <use xlink:href="#DejaVuSans-2e" x="63.623047"/>
       <use xlink:href="#DejaVuSans-30" x="95.410156"/>
      </g>
     </g>
    </g>
    <g id="ytick_5">
     <g id="line2d_19">
      <path d="M 52.160938 63.597555 
L 386.960938 63.597555 
" clip-path="url(#p11abb6a87f)" style="fill: none; stroke: #b0b0b0; stroke-width: 0.8; stroke-linecap: square"/>
     </g>
     <g id="line2d_20">
      <g>
       <use xlink:href="#ma753b2d966" x="52.160938" y="63.597555" style="stroke: #000000; stroke-width: 0.8"/>
      </g>
     </g>
     <g id="text_11">
      <!-- 0.5 -->
      <g transform="translate(29.257812 67.396774)scale(0.1 -0.1)">
       <use xlink:href="#DejaVuSans-30"/>
       <use xlink:href="#DejaVuSans-2e" x="63.623047"/>
       <use xlink:href="#DejaVuSans-35" x="95.410156"/>
      </g>
     </g>
    </g>
    <g id="ytick_6">
     <g id="line2d_21">
      <path d="M 52.160938 37.897382 
L 386.960938 37.897382 
" clip-path="url(#p11abb6a87f)" style="fill: none; stroke: #b0b0b0; stroke-width: 0.8; stroke-linecap: square"/>
     </g>
     <g id="line2d_22">
      <g>
       <use xlink:href="#ma753b2d966" x="52.160938" y="37.897382" style="stroke: #000000; stroke-width: 0.8"/>
      </g>
     </g>
     <g id="text_12">
      <!-- 1.0 -->
      <g transform="translate(29.257812 41.696601)scale(0.1 -0.1)">
       <use xlink:href="#DejaVuSans-31"/>
       <use xlink:href="#DejaVuSans-2e" x="63.623047"/>
       <use xlink:href="#DejaVuSans-30" x="95.410156"/>
      </g>
     </g>
    </g>
    <g id="ytick_7">
     <g id="line2d_23">
      <path d="M 52.160938 12.197209 
L 386.960938 12.197209 
" clip-path="url(#p11abb6a87f)" style="fill: none; stroke: #b0b0b0; stroke-width: 0.8; stroke-linecap: square"/>
     </g>
     <g id="line2d_24">
      <g>
       <use xlink:href="#ma753b2d966" x="52.160938" y="12.197209" style="stroke: #000000; stroke-width: 0.8"/>
      </g>
     </g>
     <g id="text_13">
      <!-- 1.5 -->
      <g transform="translate(29.257812 15.996427)scale(0.1 -0.1)">
       <use xlink:href="#DejaVuSans-31"/>
       <use xlink:href="#DejaVuSans-2e" x="63.623047"/>
       <use xlink:href="#DejaVuSans-35" x="95.410156"/>
      </g>
     </g>
    </g>
    <g id="text_14">
     <!-- x -->
     <g transform="translate(14.798438 91.699375)rotate(-90)scale(0.1 -0.1)">
      <defs>
       <path id="DejaVuSans-78" d="M 3513 3500 
L 2247 1797 
L 3578 0 
L 2900 0 
L 1881 1375 
L 863 0 
L 184 0 
L 1544 1831 
L 300 3500 
L 978 3500 
L 1906 2253 
L 2834 3500 
L 3513 3500 
z
" transform="scale(0.015625)"/>
      </defs>
      <use xlink:href="#DejaVuSans-78"/>
     </g>
    </g>
   </g>
   <g id="line2d_25">
    <path d="M 52.160938 91.810549 
L 52.496073 80.181557 
L 52.831208 88.477452 
L 53.166343 74.583691 
L 53.836613 93.487947 
L 54.171748 75.821948 
L 54.506883 82.963363 
L 54.842019 77.833056 
L 55.177154 79.475264 
L 55.512289 83.067898 
L 56.182559 68.372458 
L 57.5231 94.283102 
L 57.858235 86.234301 
L 58.19337 52.291126 
L 58.528505 76.943851 
L 58.86364 80.279237 
L 59.198775 72.568451 
L 59.53391 90.173049 
L 59.869046 61.23884 
L 60.204181 79.886421 
L 60.539316 73.588087 
L 60.874451 76.498601 
L 61.209586 75.86403 
L 61.544721 86.100161 
L 61.879856 68.838223 
L 62.214992 69.630881 
L 62.550127 86.262662 
L 62.885262 61.892701 
L 63.220397 66.812279 
L 63.555532 62.324367 
L 63.890667 77.750971 
L 64.225802 74.533808 
L 64.560938 77.207281 
L 64.896073 82.988612 
L 65.231208 82.187896 
L 65.566343 83.356945 
L 65.901478 54.507237 
L 66.236613 70.697545 
L 66.571748 68.444261 
L 66.906883 83.582446 
L 67.242019 42.59266 
L 67.577154 70.660702 
L 67.912289 62.939022 
L 68.247424 68.853892 
L 68.582559 71.837515 
L 68.917694 56.734243 
L 69.252829 76.28824 
L 69.587965 55.046053 
L 69.9231 49.723176 
L 70.258235 70.367739 
L 70.59337 72.631795 
L 70.928505 48.919013 
L 71.26364 84.086019 
L 71.598775 57.811085 
L 72.269046 63.228826 
L 72.939316 48.901822 
L 73.274451 46.998864 
L 73.609586 50.7009 
L 73.944721 52.453517 
L 74.279856 59.908263 
L 74.950127 47.812015 
L 75.285262 55.876763 
L 75.620397 43.76144 
L 76.290667 74.754649 
L 76.625802 56.80534 
L 76.960938 66.646144 
L 77.296073 60.889193 
L 77.631208 47.0433 
L 77.966343 58.945505 
L 78.301478 42.35814 
L 78.636613 74.76689 
L 78.971748 58.211002 
L 79.306883 59.612261 
L 79.977154 30.274346 
L 80.312289 35.844097 
L 80.647424 55.717282 
L 80.982559 40.913759 
L 81.317694 47.230427 
L 81.652829 61.554306 
L 82.3231 43.601031 
L 82.658235 58.171373 
L 82.99337 50.977374 
L 83.328505 72.636744 
L 83.66364 35.012351 
L 83.998775 40.66476 
L 84.33391 48.877873 
L 84.669046 67.919537 
L 85.004181 36.787691 
L 85.339316 56.340644 
L 85.674451 38.300543 
L 86.009586 55.185641 
L 86.344721 40.013632 
L 87.014992 22.842081 
L 87.350127 44.965496 
L 87.685262 53.132598 
L 88.020397 41.301752 
L 88.355532 42.429396 
L 88.690667 46.89505 
L 89.025802 40.946418 
L 89.360938 52.081011 
L 89.696073 53.989117 
L 90.031208 35.268679 
L 90.701478 55.2149 
L 91.036613 38.779219 
L 91.371748 27.985126 
L 91.706883 44.218541 
L 92.042019 26.353712 
L 92.377154 44.278495 
L 92.712289 40.622068 
L 93.047424 43.190979 
L 93.382559 57.203826 
L 93.717694 25.637168 
L 94.387965 57.668702 
L 94.7231 35.031126 
L 95.058235 50.187593 
L 95.39337 29.047617 
L 95.728505 37.268784 
L 96.06364 33.538228 
L 96.398775 32.035103 
L 96.73391 36.624733 
L 97.069046 47.239422 
L 97.404181 27.546067 
L 97.739316 29.079228 
L 98.074451 39.773015 
L 98.409586 30.234432 
L 98.744721 25.263409 
L 99.079856 39.118502 
L 99.414992 33.064071 
L 99.750127 41.658005 
L 100.085262 26.511253 
L 100.420397 53.45679 
L 100.755532 50.188625 
L 101.090667 54.432713 
L 101.425802 29.298772 
L 101.760938 44.310029 
L 102.096073 32.860948 
L 102.431208 64.547813 
L 102.766343 45.704898 
L 103.101478 37.160862 
L 103.436613 47.180657 
L 103.771748 25.495159 
L 104.106883 52.529573 
L 104.442019 26.090534 
L 104.777154 40.984675 
L 105.112289 47.157634 
L 105.782559 32.236462 
L 106.117694 24.116727 
L 106.452829 41.974167 
L 106.787965 35.367881 
L 107.1231 44.99844 
L 107.458235 49.290103 
L 107.79337 35.02112 
L 108.128505 36.422204 
L 108.46364 41.140789 
L 108.798775 36.321182 
L 109.13391 36.154504 
L 109.469046 22.088963 
L 109.804181 43.992066 
L 110.139316 33.187195 
L 110.474451 33.863066 
L 110.809586 34.860343 
L 111.144721 52.600529 
L 111.479856 43.112365 
L 111.814992 24.545982 
L 112.150127 29.201647 
L 112.485262 30.970535 
L 112.820397 42.983095 
L 113.155532 72.908309 
L 113.825802 20.951313 
L 114.160938 34.635626 
L 114.496073 32.867388 
L 114.831208 34.066416 
L 115.166343 57.548195 
L 115.501478 40.797225 
L 115.836613 34.601037 
L 116.171748 54.205699 
L 116.506883 40.436505 
L 116.842019 31.689383 
L 117.177154 55.556312 
L 117.847424 48.364174 
L 118.182559 37.601202 
L 118.517694 14.612727 
L 118.852829 49.846061 
L 119.187965 56.385049 
L 119.5231 45.778454 
L 119.858235 39.842099 
L 120.19337 49.748515 
L 120.528505 34.513189 
L 120.86364 58.386882 
L 121.198775 46.264648 
L 121.53391 41.262286 
L 121.869046 48.89541 
L 122.539316 53.870273 
L 122.874451 43.497239 
L 123.209586 60.337564 
L 123.544721 49.376114 
L 123.879856 53.523471 
L 124.214992 37.068676 
L 124.550127 52.622259 
L 124.885262 48.12822 
L 125.220397 30.475166 
L 125.555532 65.139029 
L 125.890667 40.536734 
L 126.225802 44.013822 
L 126.560938 52.943804 
L 126.896073 44.480834 
L 127.231208 56.570176 
L 127.566343 51.196135 
L 127.901478 40.198327 
L 128.571748 35.600526 
L 128.906883 65.682189 
L 129.242019 47.150887 
L 129.577154 40.887068 
L 129.912289 54.100044 
L 130.247424 62.16579 
L 130.582559 55.739368 
L 130.917694 46.062052 
L 131.252829 44.347434 
L 131.587965 53.153539 
L 131.9231 49.385054 
L 132.258235 48.761857 
L 132.59337 52.64767 
L 132.928505 48.081284 
L 133.26364 67.625664 
L 133.93391 51.215553 
L 134.269046 51.52021 
L 134.604181 73.357829 
L 134.939316 59.595953 
L 135.274451 56.682694 
L 135.609586 61.371597 
L 135.944721 63.900875 
L 136.279856 63.251106 
L 136.614992 64.544793 
L 136.950127 62.460454 
L 137.285262 66.371376 
L 137.620397 63.504379 
L 137.955532 65.173821 
L 138.625802 35.443512 
L 139.296073 73.427713 
L 139.631208 66.722776 
L 139.966343 67.978184 
L 140.301478 68.152368 
L 140.636613 73.65348 
L 140.971748 49.994258 
L 141.306883 55.295166 
L 141.642019 57.499975 
L 141.977154 92.052064 
L 142.312289 69.33413 
L 142.647424 87.728106 
L 142.982559 68.369383 
L 143.317694 69.38698 
L 143.652829 77.187824 
L 143.987965 77.345328 
L 144.3231 67.638208 
L 144.658235 63.605413 
L 144.99337 76.814478 
L 145.328505 82.242637 
L 145.998775 75.853049 
L 146.33391 60.663603 
L 146.669046 68.869679 
L 147.004181 72.733562 
L 147.339316 84.22062 
L 147.674451 71.827793 
L 148.009586 66.902873 
L 148.344721 67.554883 
L 148.679856 79.101783 
L 149.014992 84.063882 
L 149.350127 66.650035 
L 149.685262 82.424142 
L 150.020397 73.69225 
L 150.355532 98.042915 
L 150.690667 72.167179 
L 151.025802 92.681023 
L 151.360938 77.510758 
L 151.696073 91.12458 
L 152.031208 89.367474 
L 152.366343 97.163098 
L 152.701478 90.383273 
L 153.036613 73.444576 
L 153.706883 97.67353 
L 154.042019 95.381656 
L 154.377154 70.564201 
L 154.712289 75.407463 
L 155.047424 72.820842 
L 155.382559 110.779619 
L 155.717694 62.648081 
L 156.052829 90.50196 
L 156.387965 84.995946 
L 156.7231 82.833457 
L 157.058235 98.138329 
L 157.39337 105.369667 
L 157.728505 80.372083 
L 158.06364 95.307683 
L 158.398775 93.179166 
L 158.73391 81.053782 
L 159.069046 95.543477 
L 159.739316 90.105288 
L 160.074451 110.817102 
L 160.409586 84.443924 
L 160.744721 78.854182 
L 161.079856 100.916286 
L 161.414992 109.815249 
L 161.750127 85.589274 
L 162.085262 82.958622 
L 162.420397 99.095086 
L 162.755532 87.741586 
L 163.090667 84.84519 
L 163.425802 90.023261 
L 163.760938 90.558562 
L 164.096073 85.574566 
L 164.431208 103.296222 
L 164.766343 103.552012 
L 165.436613 82.864463 
L 165.771748 84.215403 
L 166.106883 108.871127 
L 166.442019 98.537216 
L 166.777154 117.929439 
L 167.112289 109.939528 
L 167.447424 107.915875 
L 167.782559 96.051277 
L 168.117694 101.448767 
L 168.452829 94.80132 
L 168.787965 97.053375 
L 169.1231 107.650306 
L 169.458235 111.669069 
L 169.79337 113.425225 
L 170.128505 94.167599 
L 170.46364 91.040895 
L 171.13391 124.346455 
L 171.469046 118.963302 
L 171.804181 100.106551 
L 172.139316 119.552213 
L 172.809586 100.45649 
L 173.144721 83.256583 
L 173.479856 100.030002 
L 173.814992 94.859733 
L 174.150127 111.951584 
L 174.485262 134.9218 
L 175.155532 95.654685 
L 175.490667 112.400849 
L 175.825802 123.545846 
L 176.160938 110.326379 
L 176.496073 122.137758 
L 176.831208 113.963869 
L 177.166343 122.342281 
L 177.501478 107.551238 
L 177.836613 112.16431 
L 178.171748 126.664438 
L 178.506883 130.28611 
L 178.842019 117.272759 
L 179.177154 112.783461 
L 179.512289 117.629723 
L 179.847424 104.336394 
L 180.182559 120.534827 
L 180.517694 115.074031 
L 180.852829 114.919918 
L 181.187965 134.553834 
L 181.5231 141.542369 
L 181.858235 113.910024 
L 182.19337 129.699675 
L 182.528505 122.833202 
L 182.86364 127.686843 
L 183.198775 116.229416 
L 183.53391 123.828353 
L 183.869046 128.737328 
L 184.204181 116.814228 
L 184.539316 132.516989 
L 184.874451 127.546486 
L 185.209586 141.710327 
L 185.544721 126.908774 
L 185.879856 138.244808 
L 186.214992 139.86064 
L 186.550127 133.579884 
L 186.885262 143.782472 
L 187.220397 120.000028 
L 187.555532 132.038191 
L 187.890667 131.437164 
L 188.225802 138.965608 
L 188.896073 134.24328 
L 189.231208 125.577327 
L 189.566343 127.684641 
L 189.901478 141.208358 
L 190.236613 123.254807 
L 190.571748 125.654299 
L 190.906883 138.158062 
L 191.242019 140.827822 
L 191.577154 126.38172 
L 191.912289 148.664404 
L 192.247424 128.424352 
L 192.582559 140.28446 
L 192.917694 142.306308 
L 193.252829 131.444529 
L 193.587965 140.769097 
L 193.9231 127.94791 
L 194.258235 126.155012 
L 194.59337 134.111614 
L 194.928505 134.638144 
L 195.26364 125.529166 
L 195.598775 141.429459 
L 195.93391 148.828428 
L 196.269046 124.855109 
L 196.604181 131.93049 
L 196.939316 154.157433 
L 197.274451 124.911993 
L 197.609586 142.317883 
L 197.944721 125.046357 
L 198.279856 142.063577 
L 198.614992 145.735201 
L 198.950127 142.751611 
L 199.285262 151.991606 
L 199.620397 142.245053 
L 199.955532 126.387522 
L 200.290667 139.65433 
L 200.625802 135.240596 
L 200.960938 136.931544 
L 201.296073 134.885743 
L 201.631208 140.134394 
L 201.966343 117.724097 
L 202.301478 138.266039 
L 202.636613 144.379072 
L 202.971748 119.679632 
L 203.306883 145.028099 
L 203.642019 148.053588 
L 203.977154 162.867273 
L 204.312289 150.080047 
L 204.647424 142.820556 
L 204.982559 147.773069 
L 205.317694 138.183335 
L 205.652829 138.851901 
L 205.987965 149.141967 
L 206.3231 121.375494 
L 206.658235 133.899842 
L 206.99337 133.199413 
L 207.328505 152.194582 
L 207.998775 125.245302 
L 208.33391 130.12681 
L 208.669046 144.952683 
L 209.004181 154.809057 
L 209.339316 136.812136 
L 209.674451 143.456893 
L 210.009586 140.476327 
L 210.344721 124.749329 
L 210.679856 127.526624 
L 211.014992 148.136786 
L 211.350127 134.885845 
L 211.685262 130.324352 
L 212.020397 160.20952 
L 212.355532 146.572185 
L 212.690667 159.357284 
L 213.025802 141.391947 
L 213.360938 141.605475 
L 213.696073 143.440747 
L 214.031208 138.579529 
L 214.366343 142.831512 
L 214.701478 140.591948 
L 215.036613 147.428152 
L 215.371748 133.085459 
L 215.706883 131.960912 
L 216.377154 142.998974 
L 216.712289 139.211629 
L 217.047424 122.533303 
L 217.382559 156.87812 
L 218.387965 138.861601 
L 218.7231 143.268095 
L 219.058235 136.607175 
L 219.39337 142.700606 
L 219.728505 122.012713 
L 220.398775 141.300373 
L 220.73391 126.184087 
L 221.069046 120.725285 
L 221.404181 157.82764 
L 222.074451 130.035435 
L 222.409586 124.782312 
L 222.744721 130.723705 
L 223.079856 155.724386 
L 223.414992 138.611389 
L 223.750127 155.610227 
L 224.420397 135.171489 
L 224.755532 152.632758 
L 225.090667 133.577642 
L 225.425802 136.58178 
L 225.760938 149.113934 
L 226.096073 136.50084 
L 226.431208 142.324151 
L 226.766343 140.366021 
L 227.101478 158.282428 
L 227.436613 126.174344 
L 227.771748 131.313887 
L 228.106883 153.016946 
L 228.442019 144.124117 
L 228.777154 142.799858 
L 229.112289 142.100783 
L 229.447424 142.391038 
L 229.782559 120.181267 
L 230.452829 135.404143 
L 230.787965 127.932233 
L 231.1231 115.971128 
L 231.458235 123.812596 
L 231.79337 135.132399 
L 232.128505 130.155168 
L 232.46364 132.141824 
L 232.798775 124.374274 
L 233.13391 139.661876 
L 233.469046 133.779831 
L 233.804181 104.750328 
L 234.139316 125.964692 
L 234.474451 130.999857 
L 234.809586 125.941613 
L 235.144721 110.327618 
L 235.479856 133.357748 
L 235.814992 127.079287 
L 236.150127 125.061624 
L 236.485262 114.845565 
L 236.820397 123.475286 
L 237.155532 126.52121 
L 237.490667 120.512257 
L 237.825802 122.595833 
L 238.160938 114.843929 
L 238.496073 119.724592 
L 238.831208 119.205607 
L 239.166343 119.96981 
L 239.501478 139.801256 
L 239.836613 115.127612 
L 240.506883 127.21034 
L 241.177154 118.197712 
L 241.512289 106.391734 
L 241.847424 123.452455 
L 242.182559 113.569749 
L 242.517694 124.90793 
L 242.852829 105.781779 
L 243.5231 124.650555 
L 243.858235 122.890264 
L 244.19337 115.934459 
L 244.528505 135.845291 
L 244.86364 110.696856 
L 245.198775 104.557402 
L 245.53391 121.912199 
L 245.869046 107.464013 
L 246.204181 109.420809 
L 246.539316 107.721013 
L 246.874451 100.690345 
L 247.544721 112.793456 
L 247.879856 103.828744 
L 248.214992 119.89301 
L 248.550127 109.022298 
L 248.885262 114.426387 
L 249.220397 115.471583 
L 249.555532 95.229147 
L 249.890667 108.323516 
L 250.225802 109.970919 
L 250.560938 122.989549 
L 250.896073 116.245623 
L 251.231208 91.44026 
L 251.566343 114.474906 
L 251.901478 96.536515 
L 252.236613 118.744757 
L 252.571748 109.605718 
L 252.906883 108.058809 
L 253.242019 84.685583 
L 253.577154 87.160395 
L 253.912289 105.696936 
L 254.247424 93.705497 
L 254.582559 86.043992 
L 254.917694 111.556046 
L 255.252829 87.795916 
L 255.587965 97.637519 
L 255.9231 87.377607 
L 256.258235 91.808916 
L 256.59337 98.030746 
L 256.928505 95.978809 
L 257.26364 99.01539 
L 257.598775 103.581286 
L 257.93391 87.231046 
L 258.269046 99.020205 
L 258.604181 100.721666 
L 258.939316 105.154606 
L 259.274451 98.869678 
L 259.609586 110.08586 
L 260.279856 94.512137 
L 260.614992 107.637167 
L 260.950127 85.610569 
L 261.285262 91.773037 
L 261.620397 93.781422 
L 261.955532 85.339183 
L 262.290667 112.258602 
L 262.625802 81.237137 
L 262.960938 90.941589 
L 263.296073 90.560036 
L 263.631208 88.922394 
L 263.966343 94.152142 
L 264.301478 79.593661 
L 264.636613 87.458397 
L 264.971748 92.398682 
L 265.306883 110.901046 
L 265.642019 72.39291 
L 265.977154 91.495305 
L 266.312289 95.828489 
L 266.647424 84.571547 
L 266.982559 78.296236 
L 267.317694 68.650596 
L 267.652829 80.510219 
L 267.987965 83.133856 
L 268.3231 66.666466 
L 268.658235 68.033206 
L 268.99337 72.843365 
L 269.328505 75.739968 
L 269.66364 71.058499 
L 269.998775 88.857055 
L 270.33391 75.400143 
L 270.669046 90.375961 
L 271.004181 94.226487 
L 271.339316 79.437302 
L 271.674451 70.966982 
L 272.009586 83.497058 
L 272.344721 61.463204 
L 272.679856 76.342203 
L 273.014992 69.436347 
L 273.350127 87.911738 
L 273.685262 87.854968 
L 274.020397 73.192495 
L 274.355532 65.159316 
L 274.690667 59.834793 
L 275.025802 64.531882 
L 275.360937 75.798494 
L 275.696073 65.452103 
L 276.031208 67.782473 
L 276.366343 58.849666 
L 276.701478 74.592887 
L 277.036613 71.634715 
L 277.371748 71.946935 
L 277.706883 54.650943 
L 278.042019 76.604618 
L 278.377154 63.794866 
L 278.712289 62.948048 
L 279.047424 61.412822 
L 279.382559 60.903791 
L 279.717694 63.733779 
L 280.052829 51.478933 
L 280.387965 72.521514 
L 280.7231 60.662902 
L 281.058235 66.29013 
L 281.39337 80.457344 
L 281.728505 61.90135 
L 282.06364 68.155315 
L 282.73391 58.432936 
L 283.069046 60.534698 
L 283.404181 61.449788 
L 283.739316 58.58215 
L 284.074451 64.243784 
L 284.744721 43.216252 
L 285.079856 59.029129 
L 285.414992 43.890155 
L 285.750127 50.472762 
L 286.085262 65.719995 
L 286.755532 49.616954 
L 287.090667 53.427029 
L 287.425802 41.989056 
L 287.760938 43.01376 
L 288.096073 87.247957 
L 288.431208 63.457287 
L 288.766343 58.918814 
L 289.101478 62.059535 
L 289.436613 69.152871 
L 289.771748 71.545833 
L 290.106883 41.613401 
L 290.442019 46.810376 
L 290.777154 24.507361 
L 291.112289 52.356511 
L 291.447424 38.455772 
L 291.782559 58.412905 
L 292.117694 49.295364 
L 292.452829 49.013218 
L 292.787965 53.400871 
L 293.1231 55.610861 
L 293.458235 54.607273 
L 293.79337 47.189628 
L 294.128505 51.469536 
L 294.46364 37.790146 
L 294.798775 56.031222 
L 295.13391 26.888658 
L 295.469046 61.194169 
L 295.804181 45.522602 
L 296.139316 50.163049 
L 296.474451 24.862383 
L 297.144721 47.44829 
L 297.479856 54.256593 
L 297.814992 55.449849 
L 298.485262 42.207866 
L 298.820397 43.062215 
L 299.155532 47.776106 
L 299.490667 30.292594 
L 299.825802 43.528982 
L 300.496073 51.313401 
L 300.831208 28.617694 
L 301.166343 54.395207 
L 301.501478 43.651377 
L 301.836613 42.433936 
L 302.171748 25.654177 
L 302.506883 56.32788 
L 302.842019 45.527764 
L 303.512289 33.27122 
L 303.847424 38.367457 
L 304.182559 40.61052 
L 304.517694 56.091314 
L 304.852829 29.244833 
L 305.187965 42.295295 
L 305.5231 37.91891 
L 305.858235 31.296262 
L 306.19337 45.45395 
L 306.528505 29.1134 
L 306.86364 49.909357 
L 307.53391 36.478019 
L 307.869046 50.058877 
L 308.204181 49.299003 
L 308.539316 53.662192 
L 308.874451 50.442618 
L 309.209586 17.676666 
L 309.544721 42.068082 
L 309.879856 49.879501 
L 310.214992 33.414846 
L 310.550127 41.387 
L 310.885262 44.936348 
L 311.220397 38.417445 
L 311.555532 46.046635 
L 311.890667 44.359729 
L 312.225802 47.354881 
L 312.896073 24.820729 
L 313.231208 40.324451 
L 313.566343 69.956468 
L 313.901478 29.241604 
L 314.236613 26.327205 
L 314.571748 19.96338 
L 314.906883 37.218252 
L 315.242019 27.970187 
L 315.577154 29.962131 
L 315.912289 40.829468 
L 316.247424 36.886116 
L 316.582559 41.183831 
L 316.917694 36.449373 
L 317.252829 44.740363 
L 317.587965 42.327736 
L 317.9231 25.127019 
L 318.258235 53.395755 
L 318.59337 34.287897 
L 318.928505 39.05573 
L 319.26364 20.603767 
L 319.598775 32.058957 
L 319.93391 38.103155 
L 320.269046 33.207128 
L 320.939316 49.947668 
L 321.274451 28.724978 
L 321.609586 24.369029 
L 321.944721 47.826893 
L 322.279856 48.955933 
L 322.614992 28.6377 
L 322.950127 27.688676 
L 323.285262 34.68244 
L 323.620397 33.376428 
L 323.955532 36.340361 
L 324.290667 48.918066 
L 324.625802 49.393534 
L 324.960938 30.619521 
L 325.296073 35.535453 
L 325.631208 22.785023 
L 325.966343 50.340563 
L 326.301478 59.57145 
L 326.636613 40.419244 
L 326.971748 45.180028 
L 327.306883 42.249541 
L 327.642019 31.542271 
L 327.977154 49.077789 
L 328.312289 47.589726 
L 328.647424 28.609881 
L 328.982559 44.250321 
L 329.317694 39.279266 
L 329.652829 49.47398 
L 330.3231 36.156962 
L 330.99337 66.035495 
L 331.328505 51.542979 
L 331.66364 49.584025 
L 331.998775 28.030425 
L 332.33391 41.389769 
L 332.669046 61.46927 
L 333.004181 32.418838 
L 333.339316 36.813506 
L 333.674451 36.962794 
L 334.009586 27.810237 
L 334.344721 48.814798 
L 335.014992 34.973534 
L 335.350127 53.506942 
L 335.685262 33.99777 
L 336.020397 58.41108 
L 336.355532 50.77457 
L 336.690667 51.306131 
L 337.025802 60.857278 
L 337.360937 47.308723 
L 337.696073 49.060415 
L 338.031208 35.349009 
L 338.366343 45.155825 
L 338.701478 41.914042 
L 339.371748 54.400008 
L 339.706883 51.499861 
L 340.042019 47.275886 
L 340.377154 51.389825 
L 340.712289 43.50939 
L 341.047424 61.001021 
L 341.717694 39.524678 
L 342.052829 51.155645 
L 342.387965 56.708539 
L 342.7231 50.952773 
L 343.058235 63.206085 
L 343.39337 58.760081 
L 343.728505 61.57923 
L 344.06364 52.335488 
L 344.398775 61.099984 
L 344.73391 62.835938 
L 345.069046 41.49634 
L 345.404181 68.586596 
L 345.739316 70.398346 
L 346.074451 52.269526 
L 346.409586 47.225449 
L 346.744721 56.945372 
L 347.079856 42.054038 
L 347.414992 79.299852 
L 348.085262 60.911466 
L 348.420397 57.128005 
L 348.755532 64.877498 
L 349.090667 80.131895 
L 349.425802 52.162181 
L 349.760938 51.19256 
L 350.096073 60.731182 
L 350.431208 83.805607 
L 350.766343 74.872244 
L 351.101478 54.966633 
L 351.436613 78.319891 
L 351.771748 58.063264 
L 352.106883 63.71093 
L 352.442019 51.722702 
L 352.777154 52.933216 
L 353.112289 52.907962 
L 353.447424 85.173114 
L 353.782559 80.726071 
L 354.117694 55.391559 
L 354.452829 72.726327 
L 354.787965 67.323283 
L 355.1231 69.01163 
L 355.458235 57.018086 
L 355.79337 77.342617 
L 356.128505 69.271145 
L 356.46364 66.237113 
L 356.798775 67.401459 
L 357.13391 76.828567 
L 357.469046 53.466364 
L 357.804181 75.898931 
L 358.139316 57.527417 
L 358.474451 65.379387 
L 358.809586 79.014899 
L 359.144721 82.391468 
L 359.479856 67.685994 
L 359.814992 69.648982 
L 360.150127 51.638726 
L 360.485262 73.207229 
L 360.820397 71.903753 
L 361.490667 76.49765 
L 361.825802 82.588629 
L 362.160938 95.639801 
L 362.496073 77.245798 
L 362.831208 77.118057 
L 363.166343 57.954006 
L 363.501478 79.841644 
L 363.836613 80.969967 
L 364.171748 78.125692 
L 364.506883 88.233122 
L 364.842019 82.42406 
L 365.177154 91.684786 
L 365.512289 75.967027 
L 365.847424 81.852212 
L 366.182559 116.831167 
L 366.517694 93.231763 
L 366.852829 90.080097 
L 367.187965 105.989037 
L 367.5231 100.02127 
L 367.858235 105.544161 
L 368.19337 89.177986 
L 368.86364 69.062478 
L 369.53391 98.817118 
L 369.869046 87.336294 
L 370.204181 107.970283 
L 370.539316 97.192312 
L 370.874451 97.55705 
L 371.209586 93.710189 
L 371.544721 97.337633 
L 371.879856 83.951175 
L 372.550127 101.489868 
L 372.885262 107.6158 
L 373.555532 94.720136 
L 373.890667 107.341396 
L 374.225802 105.766411 
L 374.560938 77.967305 
L 374.896073 101.605468 
L 375.231208 94.873022 
L 375.566343 90.705582 
L 375.901478 122.627113 
L 376.236613 97.665371 
L 376.571748 110.256646 
L 376.906883 93.294427 
L 377.242019 101.323678 
L 377.577154 105.396266 
L 377.912289 92.516933 
L 378.247424 109.92194 
L 378.582559 100.697534 
L 378.917694 106.879522 
L 379.252829 116.287339 
L 379.587965 102.945349 
L 379.9231 110.744391 
L 380.258235 111.189188 
L 380.59337 103.003677 
L 380.928505 110.107298 
L 381.26364 127.1705 
L 381.598775 111.510344 
L 381.93391 107.517251 
L 382.269046 115.468887 
L 382.604181 118.783466 
L 382.939316 107.910547 
L 383.274451 134.858602 
L 383.609586 116.313356 
L 383.944721 123.870623 
L 384.279856 110.904852 
L 384.614992 128.702564 
L 384.950127 101.088992 
L 385.285262 107.528409 
L 385.620397 129.884398 
L 385.955532 105.450221 
L 386.290667 125.449519 
L 386.625802 105.759276 
L 386.960938 96.900056 
L 386.960938 96.900056 
" clip-path="url(#p11abb6a87f)" style="fill: none; stroke: #1f77b4; stroke-width: 1.5; stroke-linecap: square"/>
   </g>
   <g id="line2d_26">
    <path d="M 53.501478 86.17133 
L 53.836613 79.039631 
L 54.171748 78.88895 
L 54.506883 88.149221 
L 55.512289 73.559155 
L 55.847424 71.993746 
L 56.182559 76.746014 
L 56.517694 75.290884 
L 56.852829 67.836508 
L 57.187965 66.276913 
L 58.19337 89.040444 
L 58.528505 95.09934 
L 58.86364 76.093873 
L 59.198775 71.608115 
L 59.53391 76.731387 
L 59.869046 72.482427 
L 60.204181 91.74785 
L 60.539316 77.851997 
L 60.874451 78.285912 
L 61.209586 71.832592 
L 61.544721 70.740012 
L 61.879856 69.145608 
L 62.214992 83.215307 
L 62.885262 63.765636 
L 63.220397 85.486771 
L 63.555532 72.844262 
L 63.890667 70.53957 
L 64.225802 61.646561 
L 64.560938 70.348404 
L 64.896073 71.220924 
L 65.231208 69.35212 
L 65.566343 74.623879 
L 65.901478 74.954149 
L 66.236613 89.921333 
L 66.571748 71.7969 
L 66.906883 69.170841 
L 67.242019 65.602455 
L 67.577154 92.896195 
L 67.912289 69.486981 
L 68.247424 71.596914 
L 68.582559 67.118334 
L 68.917694 65.584545 
L 69.252829 74.514049 
L 69.587965 61.679118 
L 69.9231 79.085625 
L 70.258235 71.327219 
L 70.59337 54.768853 
L 71.26364 78.797455 
L 71.598775 62.812335 
L 71.93391 86.086001 
L 72.269046 70.929404 
L 72.604181 63.599556 
L 72.939316 68.422762 
L 73.274451 69.072089 
L 73.944721 60.133743 
L 74.279856 61.117622 
L 74.614992 60.190124 
L 74.950127 66.682498 
L 75.285262 66.982391 
L 75.620397 59.444741 
L 75.955532 66.866792 
L 76.290667 56.437818 
L 76.625802 58.325532 
L 76.960938 76.07781 
L 77.296073 65.186206 
L 77.631208 67.941853 
L 77.966343 72.646834 
L 78.301478 59.694227 
L 78.636613 68.25598 
L 78.971748 51.92649 
L 79.306883 73.552871 
L 79.642019 69.387558 
L 79.977154 72.495043 
L 80.312289 68.155797 
L 80.647424 55.90312 
L 80.982559 48.865208 
L 81.317694 65.814757 
L 81.652829 61.228317 
L 81.987965 54.201122 
L 82.3231 66.792822 
L 82.658235 68.933377 
L 82.99337 56.358554 
L 83.328505 64.208748 
L 83.66364 56.780876 
L 83.998775 83.399628 
L 84.33391 64.516423 
L 84.669046 53.488281 
L 85.004181 53.46773 
L 85.339316 76.022259 
L 85.674451 58.382679 
L 86.009586 68.331179 
L 86.344721 57.123575 
L 86.679856 65.274792 
L 87.014992 66.351122 
L 87.350127 61.124445 
L 87.685262 47.177986 
L 88.020397 52.742709 
L 88.355532 67.1008 
L 89.025802 57.620912 
L 89.360938 62.79107 
L 89.696073 56.88142 
L 90.031208 59.745183 
L 90.366343 70.769396 
L 90.701478 58.072081 
L 91.036613 54.324236 
L 91.371748 68.579403 
L 91.706883 66.862809 
L 92.042019 51.015429 
L 92.377154 63.409723 
L 92.712289 52.827267 
L 93.047424 57.435772 
L 93.382559 60.109815 
L 93.717694 54.34772 
L 94.052829 73.651078 
L 94.387965 56.79658 
L 94.7231 48.134399 
L 95.058235 70.160538 
L 95.39337 57.643672 
L 95.728505 66.07572 
L 96.06364 57.939506 
L 96.398775 57.172983 
L 96.73391 59.007821 
L 97.069046 55.253643 
L 97.404181 53.246644 
L 97.739316 66.907128 
L 98.409586 50.69257 
L 98.744721 60.62573 
L 99.079856 60.609106 
L 99.414992 50.143684 
L 99.750127 58.160806 
L 100.085262 55.821295 
L 100.420397 63.413298 
L 100.755532 48.584585 
L 101.090667 58.319205 
L 101.425802 62.785803 
L 101.760938 72.17103 
L 102.096073 55.825179 
L 102.431208 60.570151 
L 102.766343 48.298044 
L 103.101478 67.53129 
L 103.436613 69.664053 
L 103.771748 55.618744 
L 104.106883 67.170049 
L 104.442019 49.6734 
L 104.777154 66.256123 
L 105.112289 56.167364 
L 105.447424 52.964392 
L 105.782559 64.1527 
L 106.117694 63.271265 
L 106.452829 60.849861 
L 106.787965 49.09778 
L 107.1231 58.274151 
L 107.458235 56.446485 
L 107.79337 56.933368 
L 108.128505 67.070552 
L 108.798775 55.488163 
L 109.13391 60.535152 
L 109.469046 59.445957 
L 109.804181 63.19136 
L 110.139316 48.474381 
L 110.474451 59.353823 
L 110.809586 60.184131 
L 111.144721 56.392289 
L 111.479856 50.882317 
L 111.814992 63.096992 
L 112.150127 70.016149 
L 112.485262 56.224726 
L 112.820397 53.466364 
L 113.155532 51.831629 
L 113.490667 47.044776 
L 113.825802 77.056949 
L 114.160938 76.44842 
L 114.496073 51.713575 
L 115.166343 57.619968 
L 115.501478 48.333233 
L 115.836613 66.159328 
L 116.171748 66.448223 
L 116.506883 50.833231 
L 116.842019 64.484845 
L 117.177154 66.490027 
L 117.512289 49.000666 
L 117.847424 60.237375 
L 118.182559 66.051612 
L 118.517694 66.452218 
L 118.852829 69.279519 
L 119.187965 42.554885 
L 119.5231 52.628399 
L 119.858235 68.586397 
L 120.19337 65.850106 
L 120.528505 56.317963 
L 120.86364 65.695867 
L 121.198775 52.304646 
L 121.53391 63.774808 
L 121.869046 66.74879 
L 122.204181 57.347041 
L 122.874451 61.635403 
L 123.209586 67.041839 
L 123.544721 56.390723 
L 123.879856 65.722433 
L 124.214992 63.732493 
L 124.550127 68.313275 
L 124.885262 56.213424 
L 125.220397 60.898724 
L 125.555532 70.088492 
L 125.890667 46.868745 
L 126.225802 69.862786 
L 126.560938 64.897991 
L 126.896073 55.375661 
L 127.231208 64.783488 
L 127.566343 58.353862 
L 128.236613 68.581814 
L 128.571748 62.419847 
L 128.906883 59.344871 
L 129.242019 46.968233 
L 129.577154 69.223536 
L 129.912289 69.123157 
L 130.247424 55.1185 
L 130.582559 57.617581 
L 130.917694 67.512258 
L 131.252829 69.543111 
L 131.9231 57.287471 
L 132.258235 62.884145 
L 132.59337 63.648535 
L 132.928505 60.540476 
L 133.26364 64.108647 
L 133.598775 55.638554 
L 133.93391 67.250903 
L 134.269046 71.044737 
L 134.604181 64.049248 
L 134.939316 54.282665 
L 135.274451 71.777825 
L 135.609586 70.372292 
L 135.944721 62.73967 
L 136.279856 63.897703 
L 136.614992 66.67107 
L 136.950127 66.312385 
L 137.285262 67.428775 
L 137.620397 65.33232 
L 137.955532 67.676142 
L 138.290667 66.778726 
L 138.625802 71.609827 
L 138.960938 72.070194 
L 139.296073 52.580317 
L 139.631208 54.502458 
L 139.966343 72.630088 
L 140.301478 69.291198 
L 140.971748 66.033358 
L 141.306883 79.568331 
L 141.642019 65.653313 
L 141.977154 61.047837 
L 142.312289 53.802813 
L 142.647424 87.048484 
L 142.982559 79.195683 
L 143.317694 88.773045 
L 143.987965 65.252777 
L 144.658235 74.888078 
L 144.99337 71.470619 
L 145.328505 62.12341 
L 145.998775 75.592764 
L 146.33391 73.924029 
L 146.669046 79.74695 
L 147.004181 66.421376 
L 147.339316 64.437309 
L 147.674451 66.901206 
L 148.009586 78.460558 
L 148.344721 74.182863 
L 149.014992 63.205781 
L 149.685262 80.321221 
L 150.020397 74.3208 
L 150.355532 79.214435 
L 150.690667 75.629162 
L 151.025802 97.406765 
L 151.360938 86.742746 
L 151.696073 93.030323 
L 152.031208 82.415057 
L 152.366343 87.029324 
L 152.701478 88.0521 
L 153.036613 95.986526 
L 153.371748 91.910343 
L 153.706883 82.387459 
L 154.042019 77.685483 
L 154.377154 89.976434 
L 154.712289 92.947087 
L 155.717694 71.713016 
L 156.052829 109.507007 
L 156.387965 96.065092 
L 157.058235 80.823157 
L 157.39337 82.593809 
L 157.728505 92.074208 
L 158.06364 95.795487 
L 158.398775 96.741299 
L 158.73391 94.968266 
L 159.069046 89.094282 
L 159.404181 87.99083 
L 159.739316 92.284761 
L 160.074451 90.534342 
L 160.409586 92.649362 
L 160.744721 103.039952 
L 161.079856 97.783709 
L 161.414992 84.863229 
L 162.420397 101.422452 
L 162.755532 88.697029 
L 163.090667 95.373021 
L 163.425802 88.935963 
L 163.760938 88.712488 
L 164.096073 86.862271 
L 164.431208 87.371997 
L 164.766343 88.802785 
L 165.101478 98.819936 
L 165.436613 98.655246 
L 165.771748 102.20105 
L 166.442019 81.508171 
L 166.777154 100.543235 
L 167.447424 110.699249 
L 167.782559 110.883779 
L 168.117694 113.824008 
L 168.452829 109.334549 
L 168.787965 106.368456 
L 169.1231 101.690589 
L 169.458235 102.277274 
L 169.79337 104.156839 
L 170.128505 109.56519 
L 170.46364 110.749387 
L 170.798775 109.751518 
L 171.13391 99.588671 
L 171.469046 99.12979 
L 171.804181 110.181937 
L 172.139316 114.90035 
L 172.474451 116.274474 
L 172.809586 113.961749 
L 173.144721 109.607463 
L 173.479856 111.259254 
L 173.814992 98.580842 
L 174.150127 99.31954 
L 174.485262 101.124987 
L 174.820397 101.463212 
L 175.155532 115.001893 
L 175.490667 116.576972 
L 175.825802 119.983346 
L 176.160938 108.048291 
L 176.831208 117.300872 
L 177.166343 118.793586 
L 177.501478 117.160803 
L 177.836613 120.817089 
L 178.171748 117.701723 
L 178.506883 113.398825 
L 178.842019 114.705339 
L 179.177154 123.628967 
L 179.512289 125.737243 
L 179.847424 120.252176 
L 180.182559 118.012848 
L 180.517694 114.014711 
L 180.852829 114.696289 
L 181.187965 116.274232 
L 181.5231 115.372432 
L 181.858235 117.620465 
L 182.19337 127.768757 
L 182.528505 128.721822 
L 182.86364 124.587571 
L 183.198775 122.112353 
L 183.53391 125.842496 
L 183.869046 122.387771 
L 184.204181 120.243898 
L 184.539316 123.416843 
L 184.874451 121.884157 
L 185.209586 122.853796 
L 185.544721 122.917681 
L 185.879856 129.951702 
L 186.214992 129.081044 
L 186.550127 129.107714 
L 186.885262 131.41278 
L 187.220397 131.638954 
L 187.555532 135.305844 
L 188.225802 126.710822 
L 188.560938 124.81146 
L 188.896073 129.318698 
L 189.231208 131.85277 
L 189.566343 133.302093 
L 189.901478 129.598705 
L 190.236613 124.353407 
L 190.571748 128.879888 
L 190.906883 129.867266 
L 191.242019 124.969351 
L 191.577154 124.41817 
L 191.912289 132.342352 
L 192.247424 129.560158 
L 192.582559 132.714331 
L 192.917694 131.421689 
L 193.252829 131.332918 
L 193.587965 133.381409 
L 193.9231 132.952301 
L 194.258235 133.220623 
L 194.59337 131.631825 
L 194.928505 127.339938 
L 195.26364 125.588025 
L 195.598775 129.620531 
L 195.93391 127.213998 
L 196.269046 126.491645 
L 196.604181 135.60324 
L 196.939316 135.280244 
L 197.274451 126.428147 
L 197.609586 133.062242 
L 198.279856 134.111314 
L 198.614992 127.695667 
L 198.950127 128.578775 
L 199.620397 135.647385 
L 200.290667 141.673844 
L 200.625802 134.502536 
L 200.960938 130.002767 
L 201.296073 130.268868 
L 201.631208 132.219636 
L 201.966343 130.681303 
L 202.301478 134.643956 
L 202.636613 127.967454 
L 202.971748 124.642503 
L 203.306883 131.20117 
L 203.642019 129.786249 
L 203.977154 127.346414 
L 204.312289 130.035846 
L 204.647424 142.053326 
L 204.982559 146.438356 
L 205.652829 139.403664 
L 205.987965 137.39764 
L 206.3231 133.54668 
L 206.658235 137.970184 
L 207.66364 124.319001 
L 207.998775 133.183184 
L 208.33391 138.849974 
L 208.669046 134.156797 
L 209.004181 125.162101 
L 209.339316 126.133122 
L 209.674451 137.63072 
L 210.009586 139.493443 
L 210.344721 136.851297 
L 210.679856 136.956057 
L 211.014992 133.293465 
L 211.350127 124.394466 
L 211.685262 128.580733 
L 212.020397 134.494135 
L 212.355532 128.859885 
L 213.025802 138.165856 
L 213.360938 145.252386 
L 213.696073 142.898828 
L 214.031208 138.74647 
L 214.366343 135.985048 
L 214.701478 135.015035 
L 215.036613 134.86343 
L 215.371748 133.929943 
L 215.706883 137.605751 
L 216.042019 136.562172 
L 216.712289 128.353192 
L 217.047424 131.895171 
L 217.382559 136.801603 
L 217.717694 127.96356 
L 218.052829 129.601303 
L 218.387965 138.309127 
L 218.7231 143.208365 
L 219.058235 137.604274 
L 219.728505 133.913356 
L 220.06364 136.671696 
L 220.73391 126.085212 
L 221.404181 132.563184 
L 221.739316 122.194234 
L 222.074451 127.439912 
L 222.409586 137.011828 
L 222.744721 138.86623 
L 223.414992 121.771716 
L 223.750127 131.011689 
L 224.420397 139.694826 
L 224.755532 141.821251 
L 225.090667 137.012999 
L 225.425802 137.432548 
L 225.760938 136.667389 
L 226.096073 132.351565 
L 226.766343 135.583608 
L 227.101478 135.23753 
L 227.436613 131.695388 
L 227.771748 140.869347 
L 228.106883 138.892695 
L 228.442019 129.026979 
L 228.777154 130.143155 
L 229.112289 137.572124 
L 229.447424 138.852162 
L 229.782559 136.193735 
L 230.117694 138.841304 
L 230.787965 124.838792 
L 231.1231 125.575026 
L 231.458235 130.172625 
L 232.128505 119.292806 
L 233.13391 129.684378 
L 233.469046 125.371952 
L 233.804181 127.225919 
L 234.139316 128.050419 
L 234.474451 126.330384 
L 234.809586 117.396686 
L 235.144721 120.874208 
L 235.479856 127.347196 
L 235.814992 120.82075 
L 236.150127 120.036176 
L 236.820397 127.852495 
L 237.155532 122.121198 
L 237.490667 119.373918 
L 237.825802 121.948979 
L 238.160938 123.32336 
L 238.496073 123.29344 
L 238.831208 120.256717 
L 239.166343 119.006176 
L 239.501478 118.927341 
L 239.836613 117.174862 
L 240.171748 125.377672 
L 240.506883 126.345516 
L 240.842019 121.919968 
L 241.177154 120.626282 
L 241.512289 124.147698 
L 241.847424 123.74036 
L 242.182559 116.680696 
L 242.852829 116.271098 
L 243.187965 121.728628 
L 243.858235 114.110544 
L 244.19337 115.786589 
L 244.528505 122.11944 
L 244.86364 119.246082 
L 245.198775 124.376755 
L 245.53391 119.400119 
L 245.869046 116.490943 
L 246.204181 114.646449 
L 246.539316 113.600784 
L 246.874451 115.319286 
L 247.209586 110.942222 
L 247.544721 110.589535 
L 247.879856 108.365874 
L 248.214992 109.900209 
L 248.550127 110.873399 
L 248.885262 114.148503 
L 249.220397 114.688152 
L 249.555532 115.517609 
L 249.890667 112.361649 
L 250.225802 113.390075 
L 250.560938 108.691659 
L 250.896073 107.249548 
L 251.231208 115.185057 
L 251.566343 113.016144 
L 251.901478 115.258138 
L 252.236613 110.602951 
L 252.571748 109.359147 
L 252.906883 111.405683 
L 253.242019 110.163485 
L 253.577154 111.240069 
L 253.912289 103.189249 
L 254.247424 89.077138 
L 254.582559 98.688894 
L 255.252829 92.160489 
L 255.587965 104.71673 
L 255.9231 101.253266 
L 256.258235 102.35508 
L 256.59337 90.167161 
L 257.93391 103.622327 
L 258.269046 100.643545 
L 258.604181 99.032444 
L 258.939316 100.972504 
L 259.274451 101.029763 
L 259.609586 105.488843 
L 259.944721 106.765753 
L 260.279856 109.046497 
L 260.614992 104.783975 
L 260.950127 106.844637 
L 262.290667 91.045858 
L 262.625802 91.120704 
L 262.960938 105.767422 
L 263.631208 93.52827 
L 263.966343 86.916164 
L 264.301478 90.192305 
L 264.636613 91.265641 
L 264.971748 85.270184 
L 265.306883 84.743547 
L 265.642019 89.802736 
L 265.977154 102.185354 
L 266.312289 99.272665 
L 266.647424 87.469608 
L 266.982559 88.949516 
L 267.317694 88.978055 
L 267.652829 82.091801 
L 267.987965 70.165489 
L 268.3231 72.403895 
L 268.658235 79.550703 
L 269.328505 65.227109 
L 269.66364 67.606565 
L 269.998775 71.796364 
L 270.33391 67.916271 
L 270.669046 84.05929 
L 271.004181 78.914198 
L 271.674451 88.439665 
L 272.009586 85.456983 
L 272.344721 72.835341 
L 272.679856 84.873072 
L 273.014992 71.817139 
L 273.350127 74.215444 
L 273.685262 66.981723 
L 274.020397 80.222062 
L 274.355532 82.339468 
L 274.690667 78.492714 
L 275.360937 64.48252 
L 275.696073 61.500836 
L 276.031208 72.762981 
L 276.366343 69.040517 
L 276.701478 71.047507 
L 277.036613 61.263871 
L 277.371748 68.346807 
L 277.706883 70.369712 
L 278.042019 77.303952 
L 278.377154 61.964511 
L 278.712289 74.908264 
L 279.382559 66.629836 
L 279.717694 66.449289 
L 280.052829 64.793982 
L 280.387965 70.667345 
L 280.7231 57.704768 
L 281.058235 70.613108 
L 281.39337 67.071285 
L 281.728505 60.473599 
L 282.06364 77.801303 
L 282.398775 68.321596 
L 282.73391 70.157962 
L 283.069046 69.334501 
L 283.404181 64.875819 
L 283.739316 64.730646 
L 284.074451 66.961151 
L 284.409586 63.616516 
L 284.744721 69.84657 
L 285.079856 69.507315 
L 285.414992 55.869557 
L 285.750127 67.138631 
L 286.085262 61.944046 
L 286.420397 54.79437 
L 286.755532 67.828821 
L 287.090667 70.310482 
L 287.425802 62.264034 
L 287.760938 66.596016 
L 288.096073 62.11583 
L 288.431208 41.538316 
L 288.766343 81.93388 
L 289.101478 75.297316 
L 289.436613 64.050906 
L 289.771748 62.655688 
L 290.106883 66.302688 
L 290.442019 81.018816 
L 290.777154 64.260971 
L 291.112289 69.034129 
L 291.447424 48.973951 
L 291.782559 61.341575 
L 292.117694 55.524085 
L 292.452829 63.583827 
L 292.787965 65.11806 
L 293.1231 60.119012 
L 293.458235 61.716012 
L 294.128505 66.941574 
L 294.46364 61.455671 
L 294.798775 66.765668 
L 295.13391 54.854465 
L 295.469046 70.664247 
L 295.804181 49.321898 
L 296.139316 64.762318 
L 296.474451 64.121925 
L 296.809586 70.255819 
L 297.144721 55.805685 
L 297.479856 50.473828 
L 298.150127 62.364146 
L 298.485262 66.621772 
L 298.820397 66.015062 
L 299.155532 60.786304 
L 299.490667 58.013022 
L 299.825802 67.319677 
L 300.160938 55.212078 
L 300.496073 55.383584 
L 300.831208 59.928732 
L 301.166343 70.678791 
L 301.501478 51.054387 
L 301.836613 61.220755 
L 302.171748 64.313462 
L 302.506883 66.118351 
L 302.842019 46.824561 
L 303.177154 61.165998 
L 303.512289 67.09035 
L 304.182559 56.230378 
L 304.517694 56.624266 
L 304.852829 53.455861 
L 305.187965 71.214108 
L 305.5231 57.407023 
L 305.858235 57.655822 
L 306.19337 62.641644 
L 306.528505 52.488474 
L 306.86364 63.847488 
L 307.198775 52.198246 
L 307.53391 59.909158 
L 307.869046 64.977687 
L 308.204181 54.135721 
L 308.539316 59.582635 
L 308.874451 61.336762 
L 309.209586 63.813916 
L 309.544721 75.697259 
L 309.879856 49.962524 
L 310.214992 50.299482 
L 310.550127 67.999025 
L 310.885262 58.080405 
L 311.220397 55.992396 
L 311.555532 62.894427 
L 311.890667 57.484859 
L 312.225802 59.922868 
L 312.560938 60.238138 
L 312.896073 64.868984 
L 313.231208 65.111222 
L 313.566343 50.797535 
L 313.901478 44.51754 
L 314.236613 79.443687 
L 314.906883 56.169931 
L 315.242019 47.810193 
L 315.577154 57.987385 
L 315.912289 57.530447 
L 316.247424 51.275139 
L 316.582559 58.844063 
L 316.917694 58.042336 
L 317.252829 60.365187 
L 317.587965 56.282553 
L 317.9231 59.728703 
L 318.258235 67.348782 
L 318.59337 47.595614 
L 318.928505 63.780865 
L 319.26364 61.026204 
L 319.598775 64.058436 
L 319.93391 53.067115 
L 320.269046 51.331437 
L 320.604181 59.790366 
L 320.939316 55.11975 
L 321.274451 54.981835 
L 321.609586 69.125394 
L 321.944721 62.232303 
L 322.279856 45.615934 
L 322.614992 56.192738 
L 322.950127 70.516966 
L 323.620397 52.138471 
L 323.955532 56.624238 
L 324.290667 56.720175 
L 324.625802 52.773716 
L 324.960938 59.39317 
L 325.296073 69.723998 
L 325.631208 58.510058 
L 325.966343 60.811166 
L 326.301478 46.526674 
L 326.636613 53.709327 
L 326.971748 71.867736 
L 327.306883 62.093147 
L 327.642019 60.154294 
L 327.977154 64.84365 
L 328.312289 52.224021 
L 328.647424 58.522013 
L 328.982559 69.874588 
L 329.317694 53.823974 
L 329.652829 58.348485 
L 329.987965 57.010273 
L 330.3231 62.525723 
L 330.658235 64.349096 
L 330.99337 53.806045 
L 331.328505 53.377866 
L 331.66364 70.733321 
L 331.998775 67.385219 
L 332.33391 70.120321 
L 332.669046 55.017429 
L 333.004181 48.443432 
L 333.339316 73.246756 
L 333.674451 62.306163 
L 334.009586 56.027797 
L 334.344721 61.951013 
L 334.679856 49.574234 
L 335.014992 59.570965 
L 335.350127 65.192903 
L 335.685262 52.110012 
L 336.020397 66.579686 
L 336.355532 53.227855 
L 336.690667 61.768462 
L 337.025802 65.162885 
L 337.360937 58.795442 
L 337.696073 68.889556 
L 338.031208 64.202057 
L 338.366343 66.283466 
L 338.701478 57.145098 
L 339.036613 59.446827 
L 339.371748 58.342701 
L 339.706883 58.484712 
L 340.042019 64.076647 
L 340.377154 65.316701 
L 340.712289 60.788155 
L 341.047424 64.748002 
L 341.382559 55.689972 
L 341.717694 66.121418 
L 342.052829 69.20047 
L 342.387965 56.381915 
L 342.7231 57.807276 
L 343.058235 66.018576 
L 343.39337 59.587604 
L 343.728505 65.362834 
L 344.06364 65.577042 
L 344.398775 68.694414 
L 344.73391 61.934986 
L 345.069046 62.969123 
L 345.404181 74.435361 
L 345.739316 54.191842 
L 346.074451 62.575912 
L 346.409586 76.395654 
L 346.744721 68.906915 
L 347.079856 58.162215 
L 347.414992 67.887993 
L 347.750127 49.566259 
L 348.085262 73.753682 
L 348.420397 75.64894 
L 349.090667 62.128073 
L 349.425802 60.009491 
L 349.760938 81.509738 
L 350.431208 58.167381 
L 350.766343 56.31986 
L 351.101478 76.041044 
L 351.436613 80.532905 
L 351.771748 65.974698 
L 352.106883 79.989877 
L 352.442019 68.123068 
L 352.777154 71.546139 
L 353.112289 65.276254 
L 353.447424 62.549512 
L 353.782559 51.304578 
L 354.117694 76.045568 
L 354.452829 83.858363 
L 354.787965 70.294223 
L 355.1231 71.028493 
L 355.458235 69.096996 
L 355.79337 72.537794 
L 356.128505 59.592739 
L 356.46364 72.55939 
L 356.798775 72.166952 
L 357.469046 63.928836 
L 357.804181 79.935515 
L 358.139316 65.294507 
L 358.474451 78.294371 
L 358.809586 66.693249 
L 359.144721 59.628885 
L 359.479856 71.163449 
L 359.814992 78.157613 
L 360.150127 71.690685 
L 360.485262 78.65622 
L 360.820397 59.525059 
L 361.155532 67.252208 
L 361.490667 70.134331 
L 361.825802 68.496953 
L 362.160938 69.341618 
L 362.496073 75.608886 
L 362.831208 90.935683 
L 363.166343 84.372438 
L 363.501478 85.311516 
L 363.836613 67.464274 
L 364.171748 73.432692 
L 364.506883 76.481063 
L 364.842019 74.159502 
L 365.177154 82.21174 
L 365.512289 81.419758 
L 365.847424 88.603234 
L 366.517694 74.547783 
L 366.852829 105.075262 
L 367.187965 99.988145 
L 367.5231 99.142104 
L 367.858235 102.166163 
L 368.19337 103.171914 
L 368.528505 105.544661 
L 368.86364 100.367742 
L 369.198775 88.663839 
L 369.53391 71.462951 
L 369.869046 70.492695 
L 370.204181 91.753502 
L 370.539316 96.304765 
L 370.874451 103.368589 
L 371.209586 99.727517 
L 371.544721 105.487924 
L 371.879856 100.133153 
L 372.214992 98.353032 
L 372.550127 90.741477 
L 372.885262 92.294978 
L 373.555532 104.620294 
L 374.225802 106.273493 
L 374.560938 105.845632 
L 374.896073 99.234766 
L 375.231208 98.996318 
L 375.566343 98.953737 
L 375.901478 93.148352 
L 376.236613 93.451446 
L 376.571748 109.380752 
L 376.906883 109.39373 
L 377.242019 112.707238 
L 377.577154 104.216945 
L 377.912289 105.85509 
L 378.247424 101.701382 
L 378.917694 107.123526 
L 379.252829 105.237402 
L 379.9231 110.362276 
L 380.258235 112.935002 
L 380.59337 112.181108 
L 380.928505 110.699133 
L 381.26364 112.383365 
L 381.598775 108.37028 
L 381.93391 115.537247 
L 382.269046 116.81072 
L 382.604181 116.480428 
L 382.939316 112.874516 
L 383.274451 116.008876 
L 383.609586 113.694303 
L 383.944721 119.409834 
L 384.279856 121.534736 
L 384.614992 124.381115 
L 384.950127 117.507665 
L 385.285262 121.6871 
L 385.955532 110.666939 
L 386.960938 120.253705 
L 386.960938 120.253705 
" clip-path="url(#p11abb6a87f)" style="fill: none; stroke-dasharray: 5.55,2.4; stroke-dashoffset: 0; stroke: #bf00bf; stroke-width: 1.5"/>
   </g>
   <g id="patch_3">
    <path d="M 52.160938 170.28 
L 52.160938 7.2 
" style="fill: none; stroke: #000000; stroke-width: 0.8; stroke-linejoin: miter; stroke-linecap: square"/>
   </g>
   <g id="patch_4">
    <path d="M 386.960938 170.28 
L 386.960938 7.2 
" style="fill: none; stroke: #000000; stroke-width: 0.8; stroke-linejoin: miter; stroke-linecap: square"/>
   </g>
   <g id="patch_5">
    <path d="M 52.160938 170.28 
L 386.960938 170.28 
" style="fill: none; stroke: #000000; stroke-width: 0.8; stroke-linejoin: miter; stroke-linecap: square"/>
   </g>
   <g id="patch_6">
    <path d="M 52.160938 7.2 
L 386.960938 7.2 
" style="fill: none; stroke: #000000; stroke-width: 0.8; stroke-linejoin: miter; stroke-linecap: square"/>
   </g>
   <g id="legend_1">
    <g id="patch_7">
     <path d="M 59.160938 165.28 
L 150.35625 165.28 
Q 152.35625 165.28 152.35625 163.28 
L 152.35625 134.92375 
Q 152.35625 132.92375 150.35625 132.92375 
L 59.160938 132.92375 
Q 57.160938 132.92375 57.160938 134.92375 
L 57.160938 163.28 
Q 57.160938 165.28 59.160938 165.28 
z
" style="fill: #ffffff; opacity: 0.8; stroke: #cccccc; stroke-linejoin: miter"/>
    </g>
    <g id="line2d_27">
     <path d="M 61.160938 141.022188 
L 71.160938 141.022188 
L 81.160938 141.022188 
" style="fill: none; stroke: #1f77b4; stroke-width: 1.5; stroke-linecap: square"/>
    </g>
    <g id="text_15">
     <!-- datos -->
     <g transform="translate(89.160938 144.522188)scale(0.1 -0.1)">
      <defs>
       <path id="DejaVuSans-64" d="M 2906 2969 
L 2906 4863 
L 3481 4863 
L 3481 0 
L 2906 0 
L 2906 525 
Q 2725 213 2448 61 
Q 2172 -91 1784 -91 
Q 1150 -91 751 415 
Q 353 922 353 1747 
Q 353 2572 751 3078 
Q 1150 3584 1784 3584 
Q 2172 3584 2448 3432 
Q 2725 3281 2906 2969 
z
M 947 1747 
Q 947 1113 1208 752 
Q 1469 391 1925 391 
Q 2381 391 2643 752 
Q 2906 1113 2906 1747 
Q 2906 2381 2643 2742 
Q 2381 3103 1925 3103 
Q 1469 3103 1208 2742 
Q 947 2381 947 1747 
z
" transform="scale(0.015625)"/>
       <path id="DejaVuSans-61" d="M 2194 1759 
Q 1497 1759 1228 1600 
Q 959 1441 959 1056 
Q 959 750 1161 570 
Q 1363 391 1709 391 
Q 2188 391 2477 730 
Q 2766 1069 2766 1631 
L 2766 1759 
L 2194 1759 
z
M 3341 1997 
L 3341 0 
L 2766 0 
L 2766 531 
Q 2569 213 2275 61 
Q 1981 -91 1556 -91 
Q 1019 -91 701 211 
Q 384 513 384 1019 
Q 384 1609 779 1909 
Q 1175 2209 1959 2209 
L 2766 2209 
L 2766 2266 
Q 2766 2663 2505 2880 
Q 2244 3097 1772 3097 
Q 1472 3097 1187 3025 
Q 903 2953 641 2809 
L 641 3341 
Q 956 3463 1253 3523 
Q 1550 3584 1831 3584 
Q 2591 3584 2966 3190 
Q 3341 2797 3341 1997 
z
" transform="scale(0.015625)"/>
       <path id="DejaVuSans-73" d="M 2834 3397 
L 2834 2853 
Q 2591 2978 2328 3040 
Q 2066 3103 1784 3103 
Q 1356 3103 1142 2972 
Q 928 2841 928 2578 
Q 928 2378 1081 2264 
Q 1234 2150 1697 2047 
L 1894 2003 
Q 2506 1872 2764 1633 
Q 3022 1394 3022 966 
Q 3022 478 2636 193 
Q 2250 -91 1575 -91 
Q 1294 -91 989 -36 
Q 684 19 347 128 
L 347 722 
Q 666 556 975 473 
Q 1284 391 1588 391 
Q 1994 391 2212 530 
Q 2431 669 2431 922 
Q 2431 1156 2273 1281 
Q 2116 1406 1581 1522 
L 1381 1569 
Q 847 1681 609 1914 
Q 372 2147 372 2553 
Q 372 3047 722 3315 
Q 1072 3584 1716 3584 
Q 2034 3584 2315 3537 
Q 2597 3491 2834 3397 
z
" transform="scale(0.015625)"/>
      </defs>
      <use xlink:href="#DejaVuSans-64"/>
      <use xlink:href="#DejaVuSans-61" x="63.476562"/>
      <use xlink:href="#DejaVuSans-74" x="124.755859"/>
      <use xlink:href="#DejaVuSans-6f" x="163.964844"/>
      <use xlink:href="#DejaVuSans-73" x="225.146484"/>
     </g>
    </g>
    <g id="line2d_28">
     <path d="M 61.160938 155.700312 
L 71.160938 155.700312 
L 81.160938 155.700312 
" style="fill: none; stroke-dasharray: 5.55,2.4; stroke-dashoffset: 0; stroke: #bf00bf; stroke-width: 1.5"/>
    </g>
    <g id="text_16">
     <!-- Pred 1-paso -->
     <g transform="translate(89.160938 159.200312)scale(0.1 -0.1)">
      <defs>
       <path id="DejaVuSans-50" d="M 1259 4147 
L 1259 2394 
L 2053 2394 
Q 2494 2394 2734 2622 
Q 2975 2850 2975 3272 
Q 2975 3691 2734 3919 
Q 2494 4147 2053 4147 
L 1259 4147 
z
M 628 4666 
L 2053 4666 
Q 2838 4666 3239 4311 
Q 3641 3956 3641 3272 
Q 3641 2581 3239 2228 
Q 2838 1875 2053 1875 
L 1259 1875 
L 1259 0 
L 628 0 
L 628 4666 
z
" transform="scale(0.015625)"/>
       <path id="DejaVuSans-72" d="M 2631 2963 
Q 2534 3019 2420 3045 
Q 2306 3072 2169 3072 
Q 1681 3072 1420 2755 
Q 1159 2438 1159 1844 
L 1159 0 
L 581 0 
L 581 3500 
L 1159 3500 
L 1159 2956 
Q 1341 3275 1631 3429 
Q 1922 3584 2338 3584 
Q 2397 3584 2469 3576 
Q 2541 3569 2628 3553 
L 2631 2963 
z
" transform="scale(0.015625)"/>
       <path id="DejaVuSans-20" transform="scale(0.015625)"/>
       <path id="DejaVuSans-2d" d="M 313 2009 
L 1997 2009 
L 1997 1497 
L 313 1497 
L 313 2009 
z
" transform="scale(0.015625)"/>
      </defs>
      <use xlink:href="#DejaVuSans-50"/>
      <use xlink:href="#DejaVuSans-72" x="58.552734"/>
      <use xlink:href="#DejaVuSans-65" x="97.416016"/>
      <use xlink:href="#DejaVuSans-64" x="158.939453"/>
      <use xlink:href="#DejaVuSans-20" x="222.416016"/>
      <use xlink:href="#DejaVuSans-31" x="254.203125"/>
      <use xlink:href="#DejaVuSans-2d" x="317.826172"/>
      <use xlink:href="#DejaVuSans-70" x="353.910156"/>
      <use xlink:href="#DejaVuSans-61" x="417.386719"/>
      <use xlink:href="#DejaVuSans-73" x="478.666016"/>
      <use xlink:href="#DejaVuSans-6f" x="530.765625"/>
     </g>
    </g>
   </g>
  </g>
 </g>
 <defs>
  <clipPath id="p11abb6a87f">
   <rect x="52.160938" y="7.2" width="334.8" height="163.08"/>
  </clipPath>
 </defs>
</svg>
