<?xml version="1.0" encoding="utf-8" standalone="no"?>
<!DOCTYPE svg PUBLIC "-//W3C//DTD SVG 1.1//EN"
  "http://www.w3.org/Graphics/SVG/1.1/DTD/svg11.dtd">
<svg xmlns:xlink="http://www.w3.org/1999/xlink" width="406.885938pt" height="209.36845pt" viewBox="0 0 406.885938 209.36845" xmlns="http://www.w3.org/2000/svg" version="1.1">
 <metadata>
  <rdf:RDF xmlns:dc="http://purl.org/dc/elements/1.1/" xmlns:cc="http://creativecommons.org/ns#" xmlns:rdf="http://www.w3.org/1999/02/22-rdf-syntax-ns#">
   <cc:Work>
    <dc:type rdf:resource="http://purl.org/dc/dcmitype/StillImage"/>
    <dc:date>2022-08-11T13:49:29.619165</dc:date>
    <dc:format>image/svg+xml</dc:format>
    <dc:creator>
     <cc:Agent>
      <dc:title>Matplotlib v3.5.2, https://matplotlib.org/</dc:title>
     </cc:Agent>
    </dc:creator>
   </cc:Work>
  </rdf:RDF>
 </metadata>
 <defs>
  <style type="text/css">*{stroke-linejoin: round; stroke-linecap: butt}</style>
 </defs>
 <g id="figure_1">
  <g id="patch_1">
   <path d="M 0 209.36845 
L 406.885938 209.36845 
L 406.885938 0 
L 0 0 
L 0 209.36845 
z
" style="fill: none"/>
  </g>
  <g id="axes_1">
   <g id="patch_2">
    <path d="M 52.160938 171.8122 
L 386.960938 171.8122 
L 386.960938 8.7322 
L 52.160938 8.7322 
z
" style="fill: #ffffff"/>
   </g>
   <g id="matplotlib.axis_1">
    <g id="xtick_1">
     <g id="line2d_1">
      <path d="M 117.775008 171.8122 
L 117.775008 8.7322 
" clip-path="url(#p350b862267)" style="fill: none; stroke: #b0b0b0; stroke-width: 0.8; stroke-linecap: square"/>
     </g>
     <g id="line2d_2">
      <defs>
       <path id="m32cb3add80" d="M 0 0 
L 0 3.5 
" style="stroke: #000000; stroke-width: 0.8"/>
      </defs>
      <g>
       <use xlink:href="#m32cb3add80" x="117.775008" y="171.8122" style="stroke: #000000; stroke-width: 0.8"/>
      </g>
     </g>
     <g id="text_1">
      <!-- 200 -->
      <g transform="translate(108.231258 186.410637)scale(0.1 -0.1)">
       <defs>
        <path id="DejaVuSans-32" d="M 1228 531 
L 3431 531 
L 3431 0 
L 469 0 
L 469 531 
Q 828 903 1448 1529 
Q 2069 2156 2228 2338 
Q 2531 2678 2651 2914 
Q 2772 3150 2772 3378 
Q 2772 3750 2511 3984 
Q 2250 4219 1831 4219 
Q 1534 4219 1204 4116 
Q 875 4013 500 3803 
L 500 4441 
Q 881 4594 1212 4672 
Q 1544 4750 1819 4750 
Q 2544 4750 2975 4387 
Q 3406 4025 3406 3419 
Q 3406 3131 3298 2873 
Q 3191 2616 2906 2266 
Q 2828 2175 2409 1742 
Q 1991 1309 1228 531 
z
" transform="scale(0.015625)"/>
        <path id="DejaVuSans-30" d="M 2034 4250 
Q 1547 4250 1301 3770 
Q 1056 3291 1056 2328 
Q 1056 1369 1301 889 
Q 1547 409 2034 409 
Q 2525 409 2770 889 
Q 3016 1369 3016 2328 
Q 3016 3291 2770 3770 
Q 2525 4250 2034 4250 
z
M 2034 4750 
Q 2819 4750 3233 4129 
Q 3647 3509 3647 2328 
Q 3647 1150 3233 529 
Q 2819 -91 2034 -91 
Q 1250 -91 836 529 
Q 422 1150 422 2328 
Q 422 3509 836 4129 
Q 1250 4750 2034 4750 
z
" transform="scale(0.015625)"/>
       </defs>
       <use xlink:href="#DejaVuSans-32"/>
       <use xlink:href="#DejaVuSans-30" x="63.623047"/>
       <use xlink:href="#DejaVuSans-30" x="127.246094"/>
      </g>
     </g>
    </g>
    <g id="xtick_2">
     <g id="line2d_3">
      <path d="M 185.07149 171.8122 
L 185.07149 8.7322 
" clip-path="url(#p350b862267)" style="fill: none; stroke: #b0b0b0; stroke-width: 0.8; stroke-linecap: square"/>
     </g>
     <g id="line2d_4">
      <g>
       <use xlink:href="#m32cb3add80" x="185.07149" y="171.8122" style="stroke: #000000; stroke-width: 0.8"/>
      </g>
     </g>
     <g id="text_2">
      <!-- 400 -->
      <g transform="translate(175.52774 186.410637)scale(0.1 -0.1)">
       <defs>
        <path id="DejaVuSans-34" d="M 2419 4116 
L 825 1625 
L 2419 1625 
L 2419 4116 
z
M 2253 4666 
L 3047 4666 
L 3047 1625 
L 3713 1625 
L 3713 1100 
L 3047 1100 
L 3047 0 
L 2419 0 
L 2419 1100 
L 313 1100 
L 313 1709 
L 2253 4666 
z
" transform="scale(0.015625)"/>
       </defs>
       <use xlink:href="#DejaVuSans-34"/>
       <use xlink:href="#DejaVuSans-30" x="63.623047"/>
       <use xlink:href="#DejaVuSans-30" x="127.246094"/>
      </g>
     </g>
    </g>
    <g id="xtick_3">
     <g id="line2d_5">
      <path d="M 252.367973 171.8122 
L 252.367973 8.7322 
" clip-path="url(#p350b862267)" style="fill: none; stroke: #b0b0b0; stroke-width: 0.8; stroke-linecap: square"/>
     </g>
     <g id="line2d_6">
      <g>
       <use xlink:href="#m32cb3add80" x="252.367973" y="171.8122" style="stroke: #000000; stroke-width: 0.8"/>
      </g>
     </g>
     <g id="text_3">
      <!-- 600 -->
      <g transform="translate(242.824223 186.410637)scale(0.1 -0.1)">
       <defs>
        <path id="DejaVuSans-36" d="M 2113 2584 
Q 1688 2584 1439 2293 
Q 1191 2003 1191 1497 
Q 1191 994 1439 701 
Q 1688 409 2113 409 
Q 2538 409 2786 701 
Q 3034 994 3034 1497 
Q 3034 2003 2786 2293 
Q 2538 2584 2113 2584 
z
M 3366 4563 
L 3366 3988 
Q 3128 4100 2886 4159 
Q 2644 4219 2406 4219 
Q 1781 4219 1451 3797 
Q 1122 3375 1075 2522 
Q 1259 2794 1537 2939 
Q 1816 3084 2150 3084 
Q 2853 3084 3261 2657 
Q 3669 2231 3669 1497 
Q 3669 778 3244 343 
Q 2819 -91 2113 -91 
Q 1303 -91 875 529 
Q 447 1150 447 2328 
Q 447 3434 972 4092 
Q 1497 4750 2381 4750 
Q 2619 4750 2861 4703 
Q 3103 4656 3366 4563 
z
" transform="scale(0.015625)"/>
       </defs>
       <use xlink:href="#DejaVuSans-36"/>
       <use xlink:href="#DejaVuSans-30" x="63.623047"/>
       <use xlink:href="#DejaVuSans-30" x="127.246094"/>
      </g>
     </g>
    </g>
    <g id="xtick_4">
     <g id="line2d_7">
      <path d="M 319.664455 171.8122 
L 319.664455 8.7322 
" clip-path="url(#p350b862267)" style="fill: none; stroke: #b0b0b0; stroke-width: 0.8; stroke-linecap: square"/>
     </g>
     <g id="line2d_8">
      <g>
       <use xlink:href="#m32cb3add80" x="319.664455" y="171.8122" style="stroke: #000000; stroke-width: 0.8"/>
      </g>
     </g>
     <g id="text_4">
      <!-- 800 -->
      <g transform="translate(310.120705 186.410637)scale(0.1 -0.1)">
       <defs>
        <path id="DejaVuSans-38" d="M 2034 2216 
Q 1584 2216 1326 1975 
Q 1069 1734 1069 1313 
Q 1069 891 1326 650 
Q 1584 409 2034 409 
Q 2484 409 2743 651 
Q 3003 894 3003 1313 
Q 3003 1734 2745 1975 
Q 2488 2216 2034 2216 
z
M 1403 2484 
Q 997 2584 770 2862 
Q 544 3141 544 3541 
Q 544 4100 942 4425 
Q 1341 4750 2034 4750 
Q 2731 4750 3128 4425 
Q 3525 4100 3525 3541 
Q 3525 3141 3298 2862 
Q 3072 2584 2669 2484 
Q 3125 2378 3379 2068 
Q 3634 1759 3634 1313 
Q 3634 634 3220 271 
Q 2806 -91 2034 -91 
Q 1263 -91 848 271 
Q 434 634 434 1313 
Q 434 1759 690 2068 
Q 947 2378 1403 2484 
z
M 1172 3481 
Q 1172 3119 1398 2916 
Q 1625 2713 2034 2713 
Q 2441 2713 2670 2916 
Q 2900 3119 2900 3481 
Q 2900 3844 2670 4047 
Q 2441 4250 2034 4250 
Q 1625 4250 1398 4047 
Q 1172 3844 1172 3481 
z
" transform="scale(0.015625)"/>
       </defs>
       <use xlink:href="#DejaVuSans-38"/>
       <use xlink:href="#DejaVuSans-30" x="63.623047"/>
       <use xlink:href="#DejaVuSans-30" x="127.246094"/>
      </g>
     </g>
    </g>
    <g id="xtick_5">
     <g id="line2d_9">
      <path d="M 386.960938 171.8122 
L 386.960938 8.7322 
" clip-path="url(#p350b862267)" style="fill: none; stroke: #b0b0b0; stroke-width: 0.8; stroke-linecap: square"/>
     </g>
     <g id="line2d_10">
      <g>
       <use xlink:href="#m32cb3add80" x="386.960938" y="171.8122" style="stroke: #000000; stroke-width: 0.8"/>
      </g>
     </g>
     <g id="text_5">
      <!-- 1000 -->
      <g transform="translate(374.235938 186.410637)scale(0.1 -0.1)">
       <defs>
        <path id="DejaVuSans-31" d="M 794 531 
L 1825 531 
L 1825 4091 
L 703 3866 
L 703 4441 
L 1819 4666 
L 2450 4666 
L 2450 531 
L 3481 531 
L 3481 0 
L 794 0 
L 794 531 
z
" transform="scale(0.015625)"/>
       </defs>
       <use xlink:href="#DejaVuSans-31"/>
       <use xlink:href="#DejaVuSans-30" x="63.623047"/>
       <use xlink:href="#DejaVuSans-30" x="127.246094"/>
       <use xlink:href="#DejaVuSans-30" x="190.869141"/>
      </g>
     </g>
    </g>
    <g id="text_6">
     <!-- time -->
     <g transform="translate(208.264844 200.088762)scale(0.1 -0.1)">
      <defs>
       <path id="DejaVuSans-74" d="M 1172 4494 
L 1172 3500 
L 2356 3500 
L 2356 3053 
L 1172 3053 
L 1172 1153 
Q 1172 725 1289 603 
Q 1406 481 1766 481 
L 2356 481 
L 2356 0 
L 1766 0 
Q 1100 0 847 248 
Q 594 497 594 1153 
L 594 3053 
L 172 3053 
L 172 3500 
L 594 3500 
L 594 4494 
L 1172 4494 
z
" transform="scale(0.015625)"/>
       <path id="DejaVuSans-69" d="M 603 3500 
L 1178 3500 
L 1178 0 
L 603 0 
L 603 3500 
z
M 603 4863 
L 1178 4863 
L 1178 4134 
L 603 4134 
L 603 4863 
z
" transform="scale(0.015625)"/>
       <path id="DejaVuSans-6d" d="M 3328 2828 
Q 3544 3216 3844 3400 
Q 4144 3584 4550 3584 
Q 5097 3584 5394 3201 
Q 5691 2819 5691 2113 
L 5691 0 
L 5113 0 
L 5113 2094 
Q 5113 2597 4934 2840 
Q 4756 3084 4391 3084 
Q 3944 3084 3684 2787 
Q 3425 2491 3425 1978 
L 3425 0 
L 2847 0 
L 2847 2094 
Q 2847 2600 2669 2842 
Q 2491 3084 2119 3084 
Q 1678 3084 1418 2786 
Q 1159 2488 1159 1978 
L 1159 0 
L 581 0 
L 581 3500 
L 1159 3500 
L 1159 2956 
Q 1356 3278 1631 3431 
Q 1906 3584 2284 3584 
Q 2666 3584 2933 3390 
Q 3200 3197 3328 2828 
z
" transform="scale(0.015625)"/>
       <path id="DejaVuSans-65" d="M 3597 1894 
L 3597 1613 
L 953 1613 
Q 991 1019 1311 708 
Q 1631 397 2203 397 
Q 2534 397 2845 478 
Q 3156 559 3463 722 
L 3463 178 
Q 3153 47 2828 -22 
Q 2503 -91 2169 -91 
Q 1331 -91 842 396 
Q 353 884 353 1716 
Q 353 2575 817 3079 
Q 1281 3584 2069 3584 
Q 2775 3584 3186 3129 
Q 3597 2675 3597 1894 
z
M 3022 2063 
Q 3016 2534 2758 2815 
Q 2500 3097 2075 3097 
Q 1594 3097 1305 2825 
Q 1016 2553 972 2059 
L 3022 2063 
z
" transform="scale(0.015625)"/>
      </defs>
      <use xlink:href="#DejaVuSans-74"/>
      <use xlink:href="#DejaVuSans-69" x="39.208984"/>
      <use xlink:href="#DejaVuSans-6d" x="66.992188"/>
      <use xlink:href="#DejaVuSans-65" x="164.404297"/>
     </g>
    </g>
   </g>
   <g id="matplotlib.axis_2">
    <g id="ytick_1">
     <g id="line2d_11">
      <path d="M 52.160938 156.286769 
L 386.960938 156.286769 
" clip-path="url(#p350b862267)" style="fill: none; stroke: #b0b0b0; stroke-width: 0.8; stroke-linecap: square"/>
     </g>
     <g id="line2d_12">
      <defs>
       <path id="m9e82fe8020" d="M 0 0 
L -3.5 0 
" style="stroke: #000000; stroke-width: 0.8"/>
      </defs>
      <g>
       <use xlink:href="#m9e82fe8020" x="52.160938" y="156.286769" style="stroke: #000000; stroke-width: 0.8"/>
      </g>
     </g>
     <g id="text_7">
      <!-- −1.0 -->
      <g transform="translate(20.878125 160.085988)scale(0.1 -0.1)">
       <defs>
        <path id="DejaVuSans-2212" d="M 678 2272 
L 4684 2272 
L 4684 1741 
L 678 1741 
L 678 2272 
z
" transform="scale(0.015625)"/>
        <path id="DejaVuSans-2e" d="M 684 794 
L 1344 794 
L 1344 0 
L 684 0 
L 684 794 
z
" transform="scale(0.015625)"/>
       </defs>
       <use xlink:href="#DejaVuSans-2212"/>
       <use xlink:href="#DejaVuSans-31" x="83.789062"/>
       <use xlink:href="#DejaVuSans-2e" x="147.412109"/>
       <use xlink:href="#DejaVuSans-30" x="179.199219"/>
      </g>
     </g>
    </g>
    <g id="ytick_2">
     <g id="line2d_13">
      <path d="M 52.160938 119.964882 
L 386.960938 119.964882 
" clip-path="url(#p350b862267)" style="fill: none; stroke: #b0b0b0; stroke-width: 0.8; stroke-linecap: square"/>
     </g>
     <g id="line2d_14">
      <g>
       <use xlink:href="#m9e82fe8020" x="52.160938" y="119.964882" style="stroke: #000000; stroke-width: 0.8"/>
      </g>
     </g>
     <g id="text_8">
      <!-- −0.5 -->
      <g transform="translate(20.878125 123.764101)scale(0.1 -0.1)">
       <defs>
        <path id="DejaVuSans-35" d="M 691 4666 
L 3169 4666 
L 3169 4134 
L 1269 4134 
L 1269 2991 
Q 1406 3038 1543 3061 
Q 1681 3084 1819 3084 
Q 2600 3084 3056 2656 
Q 3513 2228 3513 1497 
Q 3513 744 3044 326 
Q 2575 -91 1722 -91 
Q 1428 -91 1123 -41 
Q 819 9 494 109 
L 494 744 
Q 775 591 1075 516 
Q 1375 441 1709 441 
Q 2250 441 2565 725 
Q 2881 1009 2881 1497 
Q 2881 1984 2565 2268 
Q 2250 2553 1709 2553 
Q 1456 2553 1204 2497 
Q 953 2441 691 2322 
L 691 4666 
z
" transform="scale(0.015625)"/>
       </defs>
       <use xlink:href="#DejaVuSans-2212"/>
       <use xlink:href="#DejaVuSans-30" x="83.789062"/>
       <use xlink:href="#DejaVuSans-2e" x="147.412109"/>
       <use xlink:href="#DejaVuSans-35" x="179.199219"/>
      </g>
     </g>
    </g>
    <g id="ytick_3">
     <g id="line2d_15">
      <path d="M 52.160938 83.642994 
L 386.960938 83.642994 
" clip-path="url(#p350b862267)" style="fill: none; stroke: #b0b0b0; stroke-width: 0.8; stroke-linecap: square"/>
     </g>
     <g id="line2d_16">
      <g>
       <use xlink:href="#m9e82fe8020" x="52.160938" y="83.642994" style="stroke: #000000; stroke-width: 0.8"/>
      </g>
     </g>
     <g id="text_9">
      <!-- 0.0 -->
      <g transform="translate(29.257812 87.442213)scale(0.1 -0.1)">
       <use xlink:href="#DejaVuSans-30"/>
       <use xlink:href="#DejaVuSans-2e" x="63.623047"/>
       <use xlink:href="#DejaVuSans-30" x="95.410156"/>
      </g>
     </g>
    </g>
    <g id="ytick_4">
     <g id="line2d_17">
      <path d="M 52.160938 47.321106 
L 386.960938 47.321106 
" clip-path="url(#p350b862267)" style="fill: none; stroke: #b0b0b0; stroke-width: 0.8; stroke-linecap: square"/>
     </g>
     <g id="line2d_18">
      <g>
       <use xlink:href="#m9e82fe8020" x="52.160938" y="47.321106" style="stroke: #000000; stroke-width: 0.8"/>
      </g>
     </g>
     <g id="text_10">
      <!-- 0.5 -->
      <g transform="translate(29.257812 51.120325)scale(0.1 -0.1)">
       <use xlink:href="#DejaVuSans-30"/>
       <use xlink:href="#DejaVuSans-2e" x="63.623047"/>
       <use xlink:href="#DejaVuSans-35" x="95.410156"/>
      </g>
     </g>
    </g>
    <g id="ytick_5">
     <g id="line2d_19">
      <path d="M 52.160938 10.999219 
L 386.960938 10.999219 
" clip-path="url(#p350b862267)" style="fill: none; stroke: #b0b0b0; stroke-width: 0.8; stroke-linecap: square"/>
     </g>
     <g id="line2d_20">
      <g>
       <use xlink:href="#m9e82fe8020" x="52.160938" y="10.999219" style="stroke: #000000; stroke-width: 0.8"/>
      </g>
     </g>
     <g id="text_11">
      <!-- 1.0 -->
      <g transform="translate(29.257812 14.798438)scale(0.1 -0.1)">
       <use xlink:href="#DejaVuSans-31"/>
       <use xlink:href="#DejaVuSans-2e" x="63.623047"/>
       <use xlink:href="#DejaVuSans-30" x="95.410156"/>
      </g>
     </g>
    </g>
    <g id="text_12">
     <!-- x -->
     <g transform="translate(14.798438 93.231575)rotate(-90)scale(0.1 -0.1)">
      <defs>
       <path id="DejaVuSans-78" d="M 3513 3500 
L 2247 1797 
L 3578 0 
L 2900 0 
L 1881 1375 
L 863 0 
L 184 0 
L 1544 1831 
L 300 3500 
L 978 3500 
L 1906 2253 
L 2834 3500 
L 3513 3500 
z
" transform="scale(0.015625)"/>
      </defs>
      <use xlink:href="#DejaVuSans-78"/>
     </g>
    </g>
   </g>
   <g id="line2d_21">
    <path d="M 52.160938 79.224477 
L 52.49742 69.145292 
L 52.833902 68.932336 
L 53.170385 82.019816 
L 54.179832 61.399771 
L 54.516314 59.187388 
L 54.852797 65.903739 
L 55.189279 63.847212 
L 55.525762 53.311991 
L 55.862244 51.107826 
L 56.871691 83.279376 
L 57.208174 91.842374 
L 57.544656 64.982072 
L 57.881139 58.642379 
L 58.217621 65.883066 
L 58.554103 59.878039 
L 58.890586 87.105736 
L 59.227068 67.466817 
L 59.563551 68.080067 
L 59.900033 58.959631 
L 60.236515 57.415495 
L 60.572998 55.162134 
L 60.90948 75.046749 
L 61.582445 47.558654 
L 61.918927 78.256993 
L 62.25541 60.389418 
L 62.591892 57.132211 
L 62.928375 44.563779 
L 63.264857 56.862038 
L 63.60134 58.095165 
L 63.937822 55.453996 
L 64.274304 62.904539 
L 64.610787 63.371307 
L 64.947269 84.524331 
L 65.283752 58.909187 
L 65.620234 55.197795 
L 65.956716 50.154619 
L 66.293199 88.728685 
L 66.629681 55.644594 
L 66.966164 58.626548 
L 67.302646 52.297 
L 67.639128 50.129306 
L 67.975611 62.749316 
L 68.312093 44.609793 
L 68.648576 69.210295 
L 68.985058 58.245391 
L 69.321541 34.843559 
L 69.994505 68.803026 
L 70.330988 46.21136 
L 70.66747 79.103881 
L 71.003953 57.683161 
L 71.340435 47.323934 
L 71.676917 54.14054 
L 72.0134 55.058229 
L 72.686365 42.425723 
L 73.022847 43.816233 
L 73.359329 42.505406 
L 73.695812 51.681036 
L 74.032294 52.104874 
L 74.368777 41.451962 
L 74.705259 51.941498 
L 75.041742 37.202297 
L 75.378224 39.87019 
L 75.714706 64.95937 
L 76.051189 49.566336 
L 76.387671 53.460875 
L 76.724154 60.110394 
L 77.060636 41.804559 
L 77.397118 53.904829 
L 77.733601 30.826466 
L 78.070083 61.390891 
L 78.406566 55.50408 
L 78.743048 59.895869 
L 79.07953 53.763241 
L 79.416013 36.446611 
L 79.752495 26.499976 
L 80.088978 50.454664 
L 80.42546 43.972677 
L 80.761943 34.041188 
L 81.098425 51.836956 
L 81.434907 54.862188 
L 81.77139 37.090274 
L 82.107872 48.184901 
L 82.444355 37.687138 
L 82.780837 75.307248 
L 83.117319 48.619736 
L 83.453802 33.033736 
L 83.790284 33.004691 
L 84.126767 64.88086 
L 84.463249 39.950956 
L 84.799731 54.011106 
L 85.136214 38.171473 
L 85.472696 49.691535 
L 85.809179 51.212705 
L 86.145661 43.825876 
L 86.482144 24.115436 
L 86.818626 31.980023 
L 87.155108 52.27222 
L 87.828073 38.874355 
L 88.164556 46.181306 
L 88.501038 37.829237 
L 88.83752 41.876574 
L 89.174003 57.457023 
L 89.510485 39.51199 
L 89.846968 34.215185 
L 90.18345 54.36192 
L 90.519932 51.935869 
L 90.856415 29.538869 
L 91.192897 47.055644 
L 91.52938 32.099528 
L 91.865862 38.612699 
L 92.202345 42.391906 
L 92.538827 34.248374 
L 92.875309 61.529686 
L 93.211792 37.709333 
L 93.548274 25.467129 
L 93.884757 56.596528 
L 94.221239 38.906522 
L 94.557721 50.823481 
L 94.894204 39.324622 
L 95.230686 38.241301 
L 95.567169 40.834465 
L 95.903651 35.52871 
L 96.240133 32.692232 
L 96.576616 51.998505 
L 97.249581 29.082575 
L 97.586063 43.121045 
L 97.922546 43.097551 
L 98.259028 28.306838 
L 98.59551 39.637384 
L 98.931993 36.330968 
L 99.268475 47.060697 
L 99.604958 26.103374 
L 99.94144 39.861249 
L 100.277922 46.173863 
L 100.614405 59.437943 
L 100.950887 36.336459 
L 101.28737 43.042496 
L 101.623852 25.698407 
L 101.960334 52.880628 
L 102.296817 55.894849 
L 102.633299 36.044705 
L 102.969782 52.370089 
L 103.306264 27.642188 
L 103.642747 51.078443 
L 103.979229 36.820066 
L 104.315711 32.293326 
L 104.652194 48.10569 
L 104.988676 46.859963 
L 105.325159 43.437808 
L 105.661641 26.828668 
L 105.998123 39.797574 
L 106.334606 37.214546 
L 106.671088 37.902655 
L 107.007571 52.229471 
L 107.680535 35.860156 
L 108.017018 42.993032 
L 108.3535 41.453681 
L 108.689983 46.747034 
L 109.026465 25.947623 
L 109.362948 41.323467 
L 109.69943 42.496937 
L 110.035912 37.13795 
L 110.372395 29.350743 
L 110.708877 46.613665 
L 111.04536 56.392464 
L 111.381842 36.901135 
L 111.718324 33.00276 
L 112.054807 30.6924 
L 112.391289 23.927172 
L 112.727772 66.343181 
L 113.064254 65.483151 
L 113.400736 30.525555 
L 114.073701 38.873022 
L 114.410184 25.74814 
L 114.746666 50.941644 
L 115.083149 51.349937 
L 115.419631 29.28137 
L 115.756113 48.575108 
L 116.092596 51.409019 
L 116.429078 26.691419 
L 116.765561 42.572186 
L 117.102043 50.789409 
L 117.438525 51.355583 
L 117.775008 55.35139 
L 118.11149 17.581638 
L 118.447973 31.81847 
L 118.784455 54.371805 
L 119.120937 50.504622 
L 119.45742 37.032907 
L 119.793902 50.286638 
L 120.130385 31.360911 
L 120.466867 47.571617 
L 120.80335 51.774727 
L 121.139832 38.487296 
L 121.812797 44.548009 
L 122.149279 52.188891 
L 122.485762 37.135738 
L 122.822244 50.324182 
L 123.158726 47.511813 
L 123.495209 53.985802 
L 123.831691 36.885162 
L 124.168174 43.506866 
L 124.504656 56.494706 
L 124.841139 23.678388 
L 125.177621 56.175717 
L 125.514103 49.159004 
L 125.850586 35.701157 
L 126.187068 48.997179 
L 126.523551 39.910229 
L 127.196515 54.365327 
L 127.532998 45.65666 
L 127.86948 41.310815 
L 128.205963 23.818994 
L 128.542445 55.272269 
L 128.878927 55.130404 
L 129.21541 35.337714 
L 129.551892 38.869649 
L 129.888375 52.853731 
L 130.224857 55.723922 
L 130.897822 38.403106 
L 131.234304 46.312849 
L 131.570787 47.393156 
L 131.907269 43.000557 
L 132.243752 48.04343 
L 132.580234 36.072702 
L 132.916716 52.48436 
L 133.253199 57.846161 
L 133.589681 47.959482 
L 133.926164 34.156433 
L 134.262646 58.882229 
L 134.599128 56.895798 
L 134.935611 46.108663 
L 135.272093 47.745303 
L 135.608576 51.664886 
L 135.945058 51.157958 
L 136.281541 52.735745 
L 136.618023 49.772838 
L 136.954505 53.085346 
L 137.290988 51.817034 
L 137.62747 58.644799 
L 137.963953 59.295432 
L 138.300435 31.750516 
L 138.636917 34.467065 
L 138.9734 60.086727 
L 139.309882 55.367895 
L 139.982847 50.763612 
L 140.319329 69.892501 
L 140.655812 50.226495 
L 140.992294 43.717607 
L 141.328777 33.478261 
L 141.665259 80.464152 
L 142.001742 69.36584 
L 142.338224 82.901464 
L 143.011189 49.660421 
L 143.684154 63.277929 
L 144.020636 58.448057 
L 144.357118 45.237707 
L 145.030083 64.273857 
L 145.366566 61.915446 
L 145.703048 70.144942 
L 146.03953 51.311994 
L 146.376013 48.507925 
L 146.712495 51.990135 
L 147.048978 68.326892 
L 147.38546 62.281254 
L 148.058425 46.767415 
L 148.73139 70.956554 
L 149.067872 62.476199 
L 149.404355 69.392342 
L 149.740837 64.325298 
L 150.077319 95.103443 
L 150.413802 80.032055 
L 150.750284 88.918247 
L 151.086767 73.91576 
L 151.423249 80.437073 
L 151.759731 81.882557 
L 152.096214 93.096229 
L 152.432696 87.335386 
L 152.769179 73.876756 
L 153.105661 67.231484 
L 153.442144 84.602204 
L 153.778626 88.800609 
L 154.788073 58.790635 
L 155.124556 112.204637 
L 155.461038 93.207265 
L 156.134003 71.665938 
L 156.470485 74.168389 
L 156.806968 87.566975 
L 157.14345 92.826234 
L 157.479932 94.162944 
L 157.816415 91.657128 
L 158.152897 83.355464 
L 158.48938 81.795963 
L 158.825862 87.864548 
L 159.162345 85.390693 
L 159.498827 88.379836 
L 159.835309 103.064789 
L 160.171792 95.636176 
L 160.508274 77.375746 
L 161.517721 100.778788 
L 161.854204 82.79403 
L 162.190686 92.229166 
L 162.527169 83.131713 
L 162.863651 82.815879 
L 163.200133 80.200978 
L 163.536616 80.92137 
L 163.873098 82.943494 
L 164.209581 97.100669 
L 164.546063 96.867913 
L 164.882546 101.879174 
L 165.55551 72.634063 
L 165.891993 99.536196 
L 166.564958 113.889625 
L 166.90144 114.150419 
L 167.237922 118.305826 
L 167.574405 111.960903 
L 167.910887 107.768943 
L 168.24737 101.157744 
L 168.583852 101.986902 
L 168.920334 104.643278 
L 169.256817 112.286867 
L 169.593299 113.960484 
L 169.929782 112.550203 
L 170.266264 98.187116 
L 170.602747 97.538583 
L 170.939229 113.158511 
L 171.275711 119.827013 
L 171.612194 121.769054 
L 171.948676 118.500494 
L 172.285159 112.346611 
L 172.621641 114.681075 
L 172.958123 96.762759 
L 173.294606 97.806756 
L 173.631088 100.358382 
L 173.967571 100.836393 
L 174.304053 119.970524 
L 174.640535 122.196572 
L 174.977018 127.010778 
L 175.3135 110.143043 
L 175.986465 123.219655 
L 176.322948 125.329298 
L 176.65943 123.021696 
L 176.995912 128.189102 
L 177.332395 123.786176 
L 177.668877 117.704917 
L 178.00536 119.551406 
L 178.341842 132.163111 
L 178.678324 135.142724 
L 179.014807 127.390715 
L 179.351289 124.225886 
L 179.687772 118.575346 
L 180.024254 119.538615 
L 180.360736 121.768712 
L 180.697219 120.494204 
L 181.033701 123.671334 
L 181.370184 138.01385 
L 181.706666 139.36081 
L 182.043149 133.5179 
L 182.379631 130.019691 
L 182.716113 135.291478 
L 183.052596 130.408936 
L 183.389078 127.379015 
L 183.725561 131.863317 
L 184.062043 129.697182 
L 184.398525 131.067567 
L 184.735008 131.157854 
L 185.07149 141.09899 
L 185.407973 139.868496 
L 185.744455 139.906188 
L 186.080938 143.163923 
L 186.41742 143.483574 
L 186.753902 148.665965 
L 187.426867 136.518677 
L 187.76335 133.834321 
L 188.099832 140.204371 
L 188.436314 143.785758 
L 188.772797 145.834077 
L 189.109279 140.600103 
L 189.445762 133.186957 
L 189.782244 139.584203 
L 190.118726 140.979658 
L 190.455209 134.057467 
L 190.791691 133.278487 
L 191.128174 144.477681 
L 191.464656 140.545624 
L 191.801139 145.003397 
L 192.137621 143.176514 
L 192.474103 143.051055 
L 192.810586 145.946174 
L 193.147068 145.339718 
L 193.483551 145.718936 
L 193.820033 143.473498 
L 194.156515 137.407802 
L 194.492998 134.931835 
L 194.82948 140.630949 
L 195.165963 137.229812 
L 195.502445 136.208915 
L 195.838927 149.086274 
L 196.17541 148.629785 
L 196.511892 136.119174 
L 196.848375 145.495097 
L 197.52134 146.977743 
L 197.857822 137.910551 
L 198.194304 139.158643 
L 198.867269 149.148663 
L 199.540234 157.665819 
L 199.876716 147.530655 
L 200.213199 141.171161 
L 200.549681 141.54724 
L 200.886164 144.304247 
L 201.222646 142.130132 
L 201.559128 147.730524 
L 201.895611 138.294666 
L 202.232093 133.595535 
L 202.568576 142.864856 
L 202.905058 140.865158 
L 203.241541 137.416955 
L 203.578023 141.217911 
L 203.914505 158.202138 
L 204.250988 164.399473 
L 204.923953 154.457388 
L 205.260435 151.622287 
L 205.596917 146.17975 
L 205.9334 152.43146 
L 206.942847 133.138332 
L 207.279329 145.666024 
L 207.615812 153.674862 
L 207.952294 147.042025 
L 208.288777 134.329879 
L 208.625259 135.702217 
L 208.961742 151.951697 
L 209.298224 154.584272 
L 209.634706 150.850143 
L 209.971189 150.9982 
L 210.307671 145.821884 
L 210.644154 133.244986 
L 210.980636 139.161409 
L 211.317118 147.518783 
L 211.653601 139.555933 
L 212.326566 152.708002 
L 212.663048 162.723349 
L 212.99953 159.39708 
L 213.336013 153.52858 
L 213.672495 149.62588 
L 214.008978 148.254966 
L 214.34546 148.040705 
L 214.681943 146.721413 
L 215.018425 151.916409 
L 215.354907 150.441526 
L 216.027872 138.839827 
L 216.364355 143.845684 
L 216.700837 150.779912 
L 217.037319 138.289163 
L 217.373802 140.603775 
L 217.710284 152.910486 
L 218.046767 159.834548 
L 218.383249 151.914322 
L 219.056214 146.697971 
L 219.392696 150.596315 
L 220.065661 135.634506 
L 220.738626 144.789781 
L 221.075108 130.135412 
L 221.411591 137.549095 
L 221.748073 151.077022 
L 222.084556 153.697836 
L 222.75752 129.53827 
L 223.094003 142.597064 
L 223.766968 154.868885 
L 224.10345 157.874148 
L 224.439932 151.078676 
L 224.776415 151.671622 
L 225.112897 150.590228 
L 225.44938 144.490701 
L 226.122345 149.058528 
L 226.458827 148.569417 
L 226.795309 143.563331 
L 227.131792 156.528829 
L 227.468274 153.735238 
L 227.804757 139.792086 
L 228.141239 141.369571 
L 228.477721 151.868884 
L 228.814204 153.677953 
L 229.150686 149.920815 
L 229.487169 153.662608 
L 230.160133 133.872948 
L 230.496616 134.913464 
L 230.833098 141.41122 
L 231.506063 126.034843 
L 232.51551 140.721185 
L 232.851993 134.62646 
L 233.188475 137.24666 
L 233.524958 138.41192 
L 233.86144 135.981006 
L 234.197922 123.355069 
L 234.534405 128.269828 
L 234.870887 137.418059 
L 235.20737 128.194276 
L 235.543852 127.085443 
L 236.216817 138.132195 
L 236.553299 130.032191 
L 236.889782 126.149478 
L 237.226264 129.788794 
L 237.562747 131.731199 
L 237.899229 131.688913 
L 238.235711 127.397132 
L 238.572194 125.62975 
L 238.908676 125.518333 
L 239.245159 123.041566 
L 239.581641 134.634544 
L 239.918123 136.002392 
L 240.254606 129.747794 
L 240.591088 127.919435 
L 240.927571 132.89623 
L 241.264053 132.320543 
L 241.600535 122.343165 
L 242.2735 121.764283 
L 242.609983 129.477374 
L 243.282948 118.710785 
L 243.61943 121.07953 
L 243.955912 130.029706 
L 244.292395 125.968808 
L 244.628877 133.219955 
L 244.96536 126.186507 
L 245.301842 122.074988 
L 245.638324 119.468177 
L 245.974807 117.990345 
L 246.311289 120.419093 
L 246.647772 114.233017 
L 246.984254 113.734566 
L 247.320736 110.591881 
L 247.657219 112.760346 
L 247.993701 114.13575 
L 248.330184 118.764433 
L 248.666666 119.527115 
L 249.003149 120.699381 
L 249.339631 116.239084 
L 249.676113 117.692551 
L 250.012596 111.052311 
L 250.349078 109.014185 
L 250.685561 120.229387 
L 251.022043 117.164077 
L 251.358525 120.332673 
L 251.695008 113.753527 
L 252.03149 111.995667 
L 252.367973 114.888023 
L 252.704455 113.132432 
L 253.040938 114.653961 
L 253.37742 103.27579 
L 253.713902 83.331236 
L 254.050385 96.915468 
L 254.72335 87.688915 
L 255.059832 105.434569 
L 255.396314 100.539678 
L 255.732797 102.096865 
L 256.069279 84.871758 
L 257.415209 103.887857 
L 257.751691 99.677964 
L 258.088174 97.401004 
L 258.424656 100.142879 
L 258.761139 100.223802 
L 259.097621 106.525792 
L 259.434103 108.330441 
L 259.770586 111.5538 
L 260.107068 105.529606 
L 260.443551 108.441927 
L 261.78948 86.113615 
L 262.125963 86.219394 
L 262.462445 106.919506 
L 263.13541 89.621992 
L 263.471892 80.277146 
L 263.808375 84.907293 
L 264.144857 86.424233 
L 264.48134 77.950893 
L 264.817822 77.2066 
L 265.154304 84.356718 
L 265.490787 101.856992 
L 265.827269 97.740508 
L 266.163752 81.059324 
L 266.500234 83.150868 
L 266.836716 83.191202 
L 267.173199 73.458905 
L 267.509681 56.603525 
L 267.846164 59.76705 
L 268.182646 69.867587 
L 268.855611 49.624145 
L 269.192093 52.987014 
L 269.528576 58.90843 
L 269.865058 53.42472 
L 270.201541 76.239544 
L 270.538023 68.968019 
L 271.210988 82.430299 
L 271.54747 78.214895 
L 271.883953 60.376809 
L 272.220435 77.389657 
L 272.556917 58.937791 
L 272.8934 62.3273 
L 273.229882 52.10393 
L 273.566365 70.816415 
L 273.902847 73.80893 
L 274.239329 68.372337 
L 274.912294 48.571822 
L 275.248777 44.357827 
L 275.585259 60.274543 
L 275.921742 55.01361 
L 276.258224 57.850075 
L 276.594706 44.022926 
L 276.931189 54.033193 
L 277.267671 56.892152 
L 277.604154 66.692269 
L 277.940636 45.013136 
L 278.277118 63.306458 
L 278.950083 51.60661 
L 279.286566 51.351444 
L 279.623048 49.012008 
L 279.95953 57.312794 
L 280.296013 38.992869 
L 280.632495 57.236142 
L 280.968978 52.230506 
L 281.30546 42.906039 
L 281.641943 67.395172 
L 281.978425 53.997562 
L 282.314907 56.592887 
L 282.65139 55.429094 
L 282.987872 49.127669 
L 283.324355 48.922496 
L 283.660837 52.074854 
L 283.997319 47.347904 
L 284.333802 56.152799 
L 284.670284 55.673331 
L 285.006767 36.399177 
L 285.343249 52.325686 
L 285.679731 44.984213 
L 286.016214 34.879623 
L 286.352696 53.301127 
L 286.689179 56.808442 
L 287.025661 45.43645 
L 287.362144 51.558812 
L 287.698626 45.226995 
L 288.035108 16.144927 
L 288.371591 73.235715 
L 288.708073 63.856302 
L 289.044556 47.961824 
L 289.381038 45.989972 
L 289.71752 51.144254 
L 290.054003 71.942461 
L 290.390485 48.258709 
L 290.726968 55.004582 
L 291.06345 26.653662 
L 291.399932 44.132745 
L 291.736415 35.910924 
L 292.072897 47.301704 
L 292.40938 49.470026 
L 292.745862 42.404905 
L 293.082345 44.661933 
L 293.755309 52.047186 
L 294.091792 44.293995 
L 294.428274 51.79858 
L 294.764757 34.964554 
L 295.101239 57.308417 
L 295.437721 27.145414 
L 295.774204 48.967259 
L 296.110686 48.062196 
L 296.447169 56.731188 
L 296.783651 36.308907 
L 297.120133 28.773428 
L 297.793098 45.577938 
L 298.129581 51.595213 
L 298.466063 50.737753 
L 298.802546 43.347984 
L 299.139028 39.428523 
L 299.47551 52.581557 
L 299.811993 35.469966 
L 300.148475 35.712355 
L 300.484958 42.135983 
L 300.82144 57.328971 
L 301.157922 29.593928 
L 301.494405 43.961991 
L 301.830887 48.332893 
L 302.16737 50.883732 
L 302.503852 23.615943 
L 302.840334 43.884603 
L 303.176817 52.257451 
L 303.849782 36.909123 
L 304.186264 37.465802 
L 304.522747 32.987917 
L 304.859229 58.085531 
L 305.195711 38.572067 
L 305.532194 38.923695 
L 305.868676 45.970124 
L 306.205159 31.620714 
L 306.541641 47.674336 
L 306.878123 31.210538 
L 307.214606 42.108319 
L 307.551088 49.271638 
L 307.887571 33.948758 
L 308.224053 41.646846 
L 308.560535 44.125943 
L 308.897018 47.626889 
L 309.2335 64.421539 
L 309.569983 28.050806 
L 309.906465 28.527026 
L 310.242948 53.541675 
L 310.57943 39.523755 
L 310.915912 36.572785 
L 311.252395 46.32738 
L 311.588877 38.682073 
L 311.92536 42.127695 
L 312.261842 42.573264 
L 312.598324 49.118009 
L 312.934807 49.460362 
L 313.271289 29.230922 
L 313.607772 20.355445 
L 313.944254 69.716342 
L 314.617219 36.823694 
L 314.953701 25.00893 
L 315.290184 39.39229 
L 315.626666 38.746502 
L 315.963149 29.905915 
L 316.299631 40.603027 
L 316.636113 39.469951 
L 316.972596 42.752821 
L 317.309078 36.982862 
L 317.645561 41.853283 
L 317.982043 52.622691 
L 318.318525 24.705667 
L 318.655008 47.580178 
L 318.99149 43.687033 
L 319.327973 47.972467 
L 319.664455 32.438504 
L 320.000938 29.985482 
L 320.33742 41.940431 
L 320.673902 35.33948 
L 321.010385 35.144565 
L 321.346867 55.133565 
L 321.68335 45.391605 
L 322.019832 21.907799 
L 322.356314 36.855926 
L 322.692797 57.100265 
L 323.365762 31.126057 
L 323.702244 37.465763 
L 324.038726 37.60135 
L 324.375209 32.023846 
L 324.711691 41.379076 
L 325.048174 55.979568 
L 325.384656 40.130981 
L 325.721139 43.383121 
L 326.057621 23.194941 
L 326.394103 33.346139 
L 326.730586 59.009299 
L 327.067068 45.194936 
L 327.403551 42.454768 
L 327.740033 49.082205 
L 328.076515 31.246965 
L 328.412998 40.147876 
L 328.74948 56.192396 
L 329.085963 33.508168 
L 329.422445 39.90263 
L 329.758927 38.011344 
L 330.09541 45.806293 
L 330.431892 48.383254 
L 330.768375 33.482829 
L 331.104857 32.877686 
L 331.44134 57.406039 
L 331.777822 52.674187 
L 332.114304 56.539689 
L 332.450787 35.19487 
L 332.787269 25.903882 
L 333.123752 60.958259 
L 333.460234 45.49599 
L 333.796716 36.622817 
L 334.133199 44.994059 
L 334.469681 27.502038 
L 334.806164 41.630354 
L 335.142646 49.575801 
L 335.479128 31.085837 
L 335.815611 51.535733 
L 336.152093 32.665676 
L 336.488576 44.736061 
L 336.825058 49.533377 
L 337.161541 40.534312 
L 337.498023 54.800258 
L 337.834505 48.175445 
L 338.170988 51.117088 
L 338.50747 38.201891 
L 338.843953 41.45491 
L 339.180435 39.894455 
L 339.516917 40.095159 
L 339.8534 47.998204 
L 340.189882 49.750764 
L 340.526365 43.3506 
L 340.862847 48.947025 
L 341.199329 36.145371 
L 341.535812 50.888066 
L 341.872294 55.23967 
L 342.208777 37.123289 
L 342.545259 39.137743 
L 342.881742 50.74272 
L 343.218224 41.653869 
L 343.554706 49.815964 
L 343.891189 50.118702 
L 344.227671 54.524464 
L 344.564154 44.971409 
L 344.900636 46.432947 
L 345.237118 62.638107 
L 345.573601 34.028073 
L 345.910083 45.877226 
L 346.246566 65.408576 
L 346.583048 54.824791 
L 346.91953 39.639376 
L 347.256013 53.384755 
L 347.592495 27.490767 
L 347.928978 61.674694 
L 348.26546 64.35325 
L 348.938425 45.244297 
L 349.274907 42.250119 
L 349.61139 72.636278 
L 350.284355 39.646676 
L 350.620837 37.035587 
L 350.957319 64.907409 
L 351.293802 71.255727 
L 351.630284 50.680707 
L 351.966767 70.488269 
L 352.303249 53.716984 
L 352.639731 58.554789 
L 352.976214 49.693601 
L 353.312696 45.839915 
L 353.649179 29.947521 
L 353.985661 64.913802 
L 354.322144 75.955574 
L 354.658626 56.785464 
L 354.995108 57.823204 
L 355.331591 55.093431 
L 355.668073 59.956289 
L 356.004556 41.661126 
L 356.341038 59.98681 
L 356.67752 59.432179 
L 357.350485 47.789304 
L 357.686968 70.411439 
L 358.02345 49.719398 
L 358.359932 68.092022 
L 358.696415 51.69623 
L 359.032897 41.712211 
L 359.36938 58.013936 
L 359.705862 67.898742 
L 360.042345 58.759074 
L 360.378827 68.60342 
L 360.715309 41.565474 
L 361.051792 52.486204 
L 361.388274 56.55949 
L 361.724757 54.245393 
L 362.061239 55.439153 
L 362.397721 64.296643 
L 362.734204 85.957905 
L 363.070686 76.682114 
L 363.407169 78.009306 
L 363.743651 52.785916 
L 364.080133 61.221041 
L 364.416616 65.529284 
L 364.753098 62.248238 
L 365.089581 73.628413 
L 365.426063 72.509111 
L 365.762546 82.66147 
L 365.762546 82.66147 
" clip-path="url(#p350b862267)" style="fill: none; stroke: #1f77b4; stroke-width: 1.5; stroke-linecap: square"/>
   </g>
   <g id="line2d_22">
    <path d="M 53.170385 65.466073 
L 53.506867 66.281599 
L 53.84335 75.677798 
L 54.852797 57.403497 
L 55.525762 63.102273 
L 55.862244 57.21635 
L 56.198726 53.419399 
L 56.535209 55.909848 
L 56.871691 63.680056 
L 57.208174 65.626055 
L 57.544656 79.788862 
L 58.217621 75.91051 
L 58.554103 56.66291 
L 58.890586 62.036047 
L 59.227068 55.179051 
L 59.563551 76.279687 
L 59.900033 72.461216 
L 60.236515 59.767345 
L 60.572998 55.949783 
L 60.90948 56.823679 
L 61.245963 56.559282 
L 61.582445 69.728154 
L 62.25541 52.855108 
L 62.591892 73.840317 
L 63.264857 51.180807 
L 63.60134 51.760572 
L 63.937822 62.768294 
L 64.274304 57.105543 
L 64.610787 57.593316 
L 64.947269 63.706256 
L 65.283752 61.093681 
L 65.620234 63.256019 
L 65.956716 67.842061 
L 66.293199 52.72777 
L 66.629681 54.620263 
L 66.966164 67.774872 
L 67.302646 71.17145 
L 67.639128 53.144947 
L 67.975611 53.363777 
L 68.312093 52.615634 
L 68.648576 55.347164 
L 68.985058 49.707171 
L 69.321541 61.886061 
L 69.994505 45.179773 
L 70.330988 55.185442 
L 70.66747 57.195761 
L 71.003953 51.788353 
L 71.340435 74.905219 
L 72.0134 48.190413 
L 72.349882 52.081483 
L 72.686365 50.248907 
L 73.022847 46.682328 
L 73.359329 45.616894 
L 74.368777 50.393495 
L 74.705259 49.214033 
L 75.041742 45.988993 
L 75.378224 48.463816 
L 75.714706 46.369112 
L 76.051189 49.360328 
L 76.387671 62.927815 
L 76.724154 51.210008 
L 77.060636 51.082124 
L 77.397118 52.172875 
L 77.733601 45.307665 
L 78.070083 48.565608 
L 78.406566 45.9632 
L 78.743048 65.562096 
L 79.07953 52.064056 
L 79.416013 48.808685 
L 80.088978 38.526391 
L 80.42546 40.92092 
L 80.761943 48.798609 
L 81.434907 44.403126 
L 81.77139 51.146458 
L 82.107872 49.675705 
L 82.444355 44.193095 
L 82.780837 48.616008 
L 83.117319 49.279419 
L 83.453802 57.046544 
L 83.790284 54.467877 
L 84.126767 39.370593 
L 84.799731 55.710863 
L 85.136214 46.688213 
L 85.809179 44.40604 
L 86.145661 46.321673 
L 86.482144 46.112647 
L 86.818626 39.006179 
L 87.155108 36.710705 
L 87.828073 49.797189 
L 88.164556 45.061233 
L 88.501038 43.248457 
L 88.83752 46.049482 
L 89.174003 44.61288 
L 89.846968 49.503847 
L 90.18345 41.703572 
L 90.519932 43.365668 
L 90.856415 49.51517 
L 91.52938 37.622216 
L 91.865862 43.454076 
L 92.202345 40.770733 
L 92.538827 42.460293 
L 92.875309 45.776222 
L 93.211792 44.150472 
L 93.548274 49.195441 
L 93.884757 40.151777 
L 94.221239 39.777223 
L 94.557721 50.736073 
L 94.894204 42.671441 
L 95.230686 44.280204 
L 95.567169 41.284256 
L 95.903651 40.020966 
L 96.240133 42.364602 
L 96.576616 40.118212 
L 96.913098 42.097949 
L 97.249581 46.008205 
L 97.586063 39.748022 
L 97.922546 37.251 
L 98.259028 43.273848 
L 98.59551 41.235808 
L 98.931993 37.023645 
L 99.268475 42.20889 
L 99.94144 43.094503 
L 100.277922 39.908844 
L 100.950887 49.89637 
L 101.28737 47.985647 
L 101.623852 40.062222 
L 101.960334 42.139408 
L 102.296817 43.124938 
L 102.633299 50.103504 
L 102.969782 48.954152 
L 103.306264 40.653089 
L 103.642747 45.078414 
L 103.979229 38.829575 
L 104.315711 44.497159 
L 104.652194 40.778362 
L 104.988676 40.574173 
L 105.325159 47.355802 
L 106.334606 37.285189 
L 106.671088 42.691263 
L 107.007571 43.94542 
L 107.344053 44.133529 
L 107.680535 47.578255 
L 108.017018 42.486428 
L 108.3535 40.725624 
L 108.689983 44.040852 
L 109.362948 41.611276 
L 109.69943 37.281391 
L 110.035912 42.609939 
L 110.372395 43.738602 
L 110.708877 39.865332 
L 111.04536 41.842307 
L 111.381842 47.171655 
L 111.718324 46.809675 
L 112.054807 37.169121 
L 112.391289 37.597232 
L 113.064254 44.11876 
L 113.400736 66.318007 
L 113.737219 49.155935 
L 114.073701 41.170712 
L 114.410184 39.293049 
L 114.746666 42.604773 
L 115.083149 40.950242 
L 115.419631 49.026986 
L 115.756113 46.847991 
L 116.092596 39.782302 
L 116.429078 47.193578 
L 116.765561 46.310026 
L 117.102043 39.104918 
L 117.438525 47.180757 
L 117.775008 50.106812 
L 118.447973 42.809032 
L 118.784455 33.816388 
L 119.45742 52.415328 
L 119.793902 46.403114 
L 120.130385 42.623704 
L 120.466867 46.13634 
L 120.80335 43.121812 
L 121.139832 47.341232 
L 121.476314 48.782679 
L 121.812797 42.754696 
L 122.149279 46.059259 
L 122.485762 48.175882 
L 122.822244 48.532597 
L 123.158726 45.574184 
L 123.495209 48.98515 
L 123.831691 49.156567 
L 124.168174 47.115652 
L 124.504656 43.011585 
L 125.177621 48.274851 
L 125.514103 39.547318 
L 125.850586 50.431742 
L 126.523551 42.148925 
L 126.860033 48.259765 
L 127.196515 46.468427 
L 127.532998 48.025119 
L 127.86948 49.040192 
L 128.205963 43.39783 
L 128.542445 41.744988 
L 128.878927 41.882878 
L 129.21541 54.430202 
L 129.888375 41.941548 
L 130.56134 52.226518 
L 130.897822 50.160551 
L 131.234304 45.554747 
L 131.570787 44.485775 
L 131.907269 47.756219 
L 132.243752 47.96108 
L 132.580234 46.39048 
L 132.916716 47.896534 
L 133.253199 47.117514 
L 133.589681 52.056734 
L 133.926164 52.595625 
L 134.262646 47.037034 
L 134.599128 47.101714 
L 134.935611 60.065918 
L 135.272093 52.110619 
L 135.608576 48.359046 
L 135.945058 50.847607 
L 136.281541 52.407863 
L 136.618023 52.10448 
L 136.954505 52.202604 
L 137.290988 51.854479 
L 137.62747 52.589464 
L 137.963953 52.505684 
L 138.300435 52.202704 
L 138.636917 47.98986 
L 138.9734 40.875954 
L 139.309882 47.19673 
L 139.646365 64.398766 
L 139.982847 54.022342 
L 140.319329 52.777317 
L 140.655812 53.798257 
L 140.992294 55.271836 
L 141.328777 52.36798 
L 141.665259 46.712304 
L 142.001742 50.414383 
L 142.338224 90.225031 
L 142.674706 66.184913 
L 143.011189 71.841282 
L 143.347671 67.986837 
L 143.684154 52.831138 
L 144.020636 59.888448 
L 144.357118 58.69875 
L 144.693601 53.396238 
L 145.030083 51.433816 
L 145.366566 61.535903 
L 145.703048 62.200414 
L 146.03953 57.593195 
L 146.376013 56.557706 
L 147.048978 52.48297 
L 147.38546 56.463591 
L 147.721943 66.672675 
L 148.058425 57.686348 
L 148.394907 51.983376 
L 148.73139 53.090663 
L 149.067872 62.682004 
L 149.404355 62.30586 
L 149.740837 58.943372 
L 150.077319 64.58466 
L 150.413802 56.327875 
L 150.750284 90.956183 
L 151.086767 84.251574 
L 151.423249 82.090992 
L 151.759731 75.860676 
L 152.096214 76.257258 
L 152.432696 74.806182 
L 152.769179 94.054523 
L 153.105661 94.624973 
L 153.442144 74.22438 
L 153.778626 65.396545 
L 154.115108 84.288727 
L 154.451591 94.901558 
L 155.124556 63.075532 
L 155.461038 54.677942 
L 155.79752 102.720484 
L 156.134003 97.256459 
L 156.470485 80.735146 
L 156.806968 71.342037 
L 157.14345 65.227621 
L 157.479932 89.964122 
L 157.816415 102.404704 
L 158.152897 90.925039 
L 158.48938 97.608476 
L 158.825862 92.816725 
L 159.162345 74.336566 
L 159.498827 88.94551 
L 159.835309 89.367228 
L 160.171792 88.827235 
L 160.508274 107.729064 
L 160.844757 99.409133 
L 161.181239 83.859615 
L 161.517721 96.579368 
L 161.854204 100.975455 
L 162.190686 97.004342 
L 162.527169 90.909579 
L 162.863651 95.314525 
L 163.200133 90.275654 
L 163.536616 77.997066 
L 163.873098 78.473309 
L 164.209581 79.151773 
L 164.546063 74.407305 
L 164.882546 102.369878 
L 165.219028 107.24867 
L 165.55551 104.400643 
L 165.891993 94.465984 
L 166.228475 74.576808 
L 166.564958 100.576218 
L 166.90144 106.049965 
L 167.237922 118.429125 
L 167.574405 117.667966 
L 167.910887 118.678761 
L 168.24737 111.998456 
L 168.583852 112.686149 
L 168.920334 107.303304 
L 169.256817 106.880926 
L 169.593299 111.946138 
L 169.929782 114.261412 
L 170.266264 119.203922 
L 170.939229 103.432364 
L 171.948676 121.34494 
L 172.285159 118.183814 
L 172.621641 124.226882 
L 173.294606 115.239858 
L 173.631088 103.109911 
L 173.967571 104.359955 
L 174.304053 102.837993 
L 174.640535 113.375825 
L 174.977018 120.015693 
L 175.3135 124.264397 
L 175.649983 115.818109 
L 175.986465 122.66628 
L 176.322948 120.098213 
L 176.65943 120.834799 
L 176.995912 126.482569 
L 177.332395 124.514877 
L 177.668877 126.696981 
L 178.00536 123.525948 
L 178.341842 123.099604 
L 178.678324 125.136803 
L 179.014807 128.228028 
L 179.351289 129.720113 
L 179.687772 128.22772 
L 180.024254 126.061442 
L 180.360736 120.693393 
L 180.697219 123.59563 
L 181.033701 122.3536 
L 181.370184 123.926114 
L 182.043149 133.794741 
L 182.379631 132.033058 
L 182.716113 135.605638 
L 183.052596 130.841646 
L 183.389078 131.93477 
L 183.725561 129.767106 
L 184.398525 130.494517 
L 184.735008 129.120512 
L 185.07149 132.769623 
L 185.407973 132.059319 
L 185.744455 137.386914 
L 186.080938 136.618711 
L 186.41742 139.640392 
L 186.753902 140.019844 
L 187.090385 140.076275 
L 187.426867 142.968371 
L 187.76335 137.329595 
L 188.099832 137.816372 
L 188.436314 135.215942 
L 189.109279 139.514327 
L 189.445762 140.247523 
L 190.118726 135.82813 
L 190.455209 137.330842 
L 190.791691 134.947172 
L 191.464656 136.270872 
L 191.801139 138.164583 
L 192.137621 138.283369 
L 192.474103 143.054458 
L 192.810586 138.811349 
L 193.147068 141.987769 
L 193.483551 142.072276 
L 193.820033 140.647515 
L 194.156515 142.585915 
L 194.492998 138.62383 
L 194.82948 136.958976 
L 195.165963 136.428528 
L 195.502445 136.39214 
L 195.838927 135.959301 
L 196.511892 141.899473 
L 196.848375 140.168221 
L 197.184857 140.73543 
L 197.52134 142.681844 
L 197.857822 138.752108 
L 198.194304 143.687491 
L 198.530787 137.661828 
L 199.540234 144.270751 
L 199.876716 148.60109 
L 200.213199 147.507984 
L 200.549681 143.530869 
L 200.886164 142.461027 
L 201.222646 139.039665 
L 201.559128 140.324223 
L 201.895611 140.349293 
L 202.232093 141.274586 
L 202.568576 136.071324 
L 202.905058 138.229704 
L 203.241541 138.705397 
L 203.578023 135.945817 
L 203.914505 141.68132 
L 204.250988 141.708386 
L 204.58747 150.017022 
L 204.923953 152.791613 
L 205.260435 152.435157 
L 205.596917 150.613549 
L 205.9334 146.114187 
L 206.269882 144.964471 
L 206.606365 145.84501 
L 206.942847 139.829995 
L 207.279329 140.362374 
L 207.615812 136.872634 
L 207.952294 141.944435 
L 208.288777 143.043937 
L 208.625259 141.621052 
L 208.961742 138.896631 
L 209.298224 139.066831 
L 209.634706 144.31308 
L 209.971189 145.674294 
L 210.307671 147.762245 
L 210.644154 144.860887 
L 210.980636 140.153495 
L 211.317118 137.807668 
L 211.653601 139.477609 
L 211.990083 139.108701 
L 212.326566 140.72722 
L 212.663048 146.311094 
L 212.99953 145.98881 
L 213.336013 153.507952 
L 213.672495 151.005665 
L 214.008978 149.441642 
L 214.681943 144.249807 
L 215.018425 144.869733 
L 215.354907 144.10149 
L 215.69139 145.980116 
L 216.027872 143.496135 
L 216.700837 140.111412 
L 217.037319 140.949249 
L 217.373802 142.23421 
L 217.710284 139.191061 
L 218.046767 144.507419 
L 218.383249 144.521292 
L 218.719731 149.106728 
L 219.056214 148.370943 
L 219.392696 146.284253 
L 219.729179 143.382761 
L 220.065661 144.152666 
L 220.402144 138.733346 
L 221.075108 138.318554 
L 221.748073 135.452758 
L 222.084556 141.222397 
L 222.421038 140.677392 
L 222.75752 143.18882 
L 223.430485 135.996057 
L 223.766968 141.028452 
L 224.10345 142.268052 
L 224.439932 149.984643 
L 224.776415 149.172365 
L 225.112897 147.086796 
L 225.44938 148.781084 
L 225.785862 143.579209 
L 226.122345 143.889611 
L 226.458827 144.75599 
L 226.795309 142.801202 
L 227.131792 145.212826 
L 227.468274 143.989034 
L 227.804757 148.39884 
L 228.141239 143.600797 
L 228.477721 142.981374 
L 228.814204 143.505574 
L 229.150686 143.468904 
L 229.487169 147.224258 
L 229.823651 146.76198 
L 230.160133 145.516378 
L 230.496616 139.457255 
L 231.169581 135.246918 
L 231.506063 134.47293 
L 231.842546 132.567992 
L 232.179028 131.353506 
L 232.51551 132.093196 
L 232.851993 133.714461 
L 233.188475 136.78394 
L 233.524958 135.093272 
L 233.86144 137.502194 
L 234.197922 137.189362 
L 234.534405 127.795059 
L 234.870887 132.105346 
L 235.20737 128.882216 
L 235.543852 131.277182 
L 235.880334 128.943791 
L 236.216817 131.846383 
L 236.553299 129.966688 
L 236.889782 132.611703 
L 237.226264 130.260347 
L 237.562747 129.535841 
L 237.899229 129.269141 
L 238.235711 129.442588 
L 238.572194 130.405347 
L 238.908676 127.586318 
L 239.245159 127.336318 
L 239.581641 126.459066 
L 239.918123 126.996217 
L 240.254606 132.564836 
L 240.591088 130.052906 
L 240.927571 131.576387 
L 241.600535 129.521708 
L 241.937018 129.673026 
L 242.2735 124.368132 
L 242.609983 125.919993 
L 242.946465 123.161128 
L 243.282948 127.191431 
L 243.61943 123.507204 
L 243.955912 124.026226 
L 244.292395 124.875541 
L 244.96536 127.841397 
L 245.301842 132.14328 
L 245.974807 121.687072 
L 246.311289 124.762487 
L 246.647772 119.980638 
L 246.984254 120.437621 
L 247.320736 119.582412 
L 247.657219 114.828504 
L 247.993701 116.593924 
L 248.330184 117.497186 
L 248.666666 116.253888 
L 249.003149 121.613671 
L 249.339631 120.100945 
L 249.676113 122.483736 
L 250.012596 122.814441 
L 250.349078 112.747201 
L 250.685561 118.304086 
L 251.022043 116.055522 
L 251.358525 121.063297 
L 251.695008 123.715139 
L 252.03149 111.016554 
L 252.367973 121.275315 
L 252.704455 111.64094 
L 253.040938 120.449117 
L 253.37742 117.674721 
L 253.713902 118.439386 
L 254.050385 101.967102 
L 254.386867 93.727454 
L 254.72335 103.191093 
L 255.059832 103.290126 
L 255.396314 92.999926 
L 255.732797 108.177751 
L 256.069279 102.63289 
L 256.405762 105.440488 
L 257.078726 89.23513 
L 257.415209 101.004582 
L 257.751691 103.844021 
L 258.424656 111.332373 
L 258.761139 99.246683 
L 259.097621 105.414136 
L 259.434103 107.489451 
L 259.770586 110.706862 
L 260.107068 111.121671 
L 260.443551 115.759707 
L 260.780033 114.208176 
L 261.116515 107.703803 
L 261.452998 114.526974 
L 261.78948 99.548049 
L 262.125963 97.620894 
L 262.462445 94.751151 
L 262.798927 80.720082 
L 263.13541 107.936791 
L 263.471892 98.10353 
L 263.808375 94.366417 
L 264.144857 84.691746 
L 264.48134 79.733599 
L 264.817822 90.782416 
L 265.154304 75.393161 
L 265.490787 71.292983 
L 265.827269 77.069282 
L 266.163752 105.710068 
L 266.500234 89.937744 
L 266.836716 87.864384 
L 267.173199 84.525628 
L 267.509681 79.046542 
L 268.182646 58.273319 
L 268.519128 62.713409 
L 268.855611 61.213585 
L 269.192093 58.375089 
L 269.528576 51.818992 
L 270.201541 57.620321 
L 270.538023 55.136912 
L 270.874505 76.101381 
L 271.210988 62.674758 
L 271.54747 74.981792 
L 271.883953 79.675927 
L 272.556917 63.310165 
L 272.8934 64.26631 
L 273.229882 61.328419 
L 273.566365 56.594614 
L 273.902847 54.661406 
L 274.239329 75.671694 
L 274.575812 65.463514 
L 274.912294 62.178726 
L 275.248777 53.067494 
L 275.585259 50.113545 
L 275.921742 51.707977 
L 276.258224 60.021662 
L 276.594706 53.447625 
L 276.931189 52.384551 
L 277.267671 50.926875 
L 277.604154 58.75748 
L 278.613601 50.838969 
L 278.950083 62.08229 
L 279.286566 53.074227 
L 279.623048 50.541085 
L 279.95953 51.388304 
L 280.296013 50.973499 
L 280.632495 51.877536 
L 280.968978 48.205849 
L 281.30546 57.396955 
L 281.641943 52.944897 
L 281.978425 51.44106 
L 282.314907 64.663237 
L 282.65139 55.261886 
L 282.987872 52.449067 
L 283.324355 52.224388 
L 283.660837 49.893863 
L 283.997319 50.517998 
L 284.333802 51.424702 
L 284.670284 50.465415 
L 285.006767 51.670857 
L 285.343249 49.201697 
L 285.679731 43.981549 
L 286.016214 48.791603 
L 286.689179 45.54885 
L 287.025661 52.732502 
L 287.362144 51.573382 
L 287.698626 46.637457 
L 288.035108 47.567876 
L 288.708073 43.576166 
L 289.044556 91.80936 
L 289.381038 58.00877 
L 289.71752 48.01571 
L 290.390485 53.891099 
L 290.726968 55.236323 
L 291.06345 52.196109 
L 291.399932 43.084808 
L 291.736415 38.181323 
L 292.072897 44.373657 
L 292.40938 46.556635 
L 292.745862 47.553072 
L 293.082345 49.31292 
L 293.418827 45.898213 
L 293.755309 48.215617 
L 294.091792 49.434941 
L 294.428274 49.035113 
L 294.764757 46.517281 
L 295.101239 46.853481 
L 295.437721 43.787232 
L 295.774204 47.079602 
L 296.110686 40.202182 
L 296.447169 47.407311 
L 296.783651 49.42267 
L 297.120133 45.326176 
L 297.456616 38.532726 
L 297.793098 39.307368 
L 298.129581 46.874074 
L 298.466063 49.139607 
L 298.802546 49.531086 
L 299.139028 47.226914 
L 299.47551 44.036686 
L 299.811993 44.184916 
L 300.148475 46.274434 
L 300.484958 40.386307 
L 300.82144 42.610419 
L 301.157922 47.346107 
L 301.494405 47.637865 
L 301.830887 39.639017 
L 302.16737 45.194088 
L 302.503852 48.007319 
L 303.176817 38.47322 
L 303.513299 46.310186 
L 303.849782 49.013256 
L 304.186264 42.007597 
L 304.522747 40.729599 
L 305.195711 44.226566 
L 305.532194 48.603006 
L 305.868676 40.715388 
L 306.205159 41.249374 
L 306.541641 44.545377 
L 306.878123 39.88919 
L 307.214606 44.248224 
L 307.551088 41.514481 
L 308.224053 46.98789 
L 308.560535 41.501413 
L 308.897018 45.965781 
L 309.2335 48.20578 
L 309.906465 47.918811 
L 310.242948 39.957061 
L 310.57943 40.120178 
L 310.915912 49.115835 
L 311.252395 41.555152 
L 311.588877 42.190639 
L 311.92536 46.032652 
L 312.261842 43.479176 
L 312.934807 46.005347 
L 313.271289 45.869743 
L 313.607772 43.058257 
L 313.944254 37.111923 
L 314.280736 41.964419 
L 314.617219 65.657763 
L 315.290184 33.239844 
L 315.626666 36.387049 
L 315.963149 41.155597 
L 316.299631 41.107072 
L 316.636113 38.539827 
L 316.972596 43.57559 
L 317.309078 43.616218 
L 317.645561 43.382961 
L 317.982043 42.889607 
L 318.318525 44.41018 
L 318.655008 45.365331 
L 318.99149 37.723782 
L 319.327973 45.254256 
L 319.664455 45.189403 
L 320.33742 37.554773 
L 320.673902 38.327159 
L 321.010385 43.779005 
L 321.346867 41.611631 
L 321.68335 43.439848 
L 322.019832 47.541689 
L 322.356314 39.785181 
L 322.692797 35.53876 
L 323.029279 44.907526 
L 323.365762 48.791984 
L 323.702244 39.293811 
L 324.038726 36.86456 
L 324.375209 41.478417 
L 324.711691 41.835046 
L 325.048174 41.917154 
L 325.384656 46.350333 
L 325.721139 47.992246 
L 326.057621 39.937798 
L 326.394103 39.882176 
L 326.730586 38.187671 
L 327.403551 52.72706 
L 327.740033 43.923143 
L 328.076515 43.458211 
L 328.412998 45.209056 
L 328.74948 40.39278 
L 329.085963 44.977921 
L 329.422445 48.019243 
L 329.758927 39.095129 
L 330.431892 45.19365 
L 330.768375 45.848323 
L 331.104857 45.833697 
L 331.44134 41.521708 
L 331.777822 46.030435 
L 332.114304 54.773624 
L 332.450787 48.930056 
L 332.787269 45.731412 
L 333.123752 39.122468 
L 333.460234 41.564881 
L 333.796716 52.083397 
L 334.133199 42.187214 
L 334.469681 39.090201 
L 334.806164 43.221109 
L 335.142646 39.206108 
L 335.479128 44.785479 
L 335.815611 46.785454 
L 336.152093 41.048276 
L 336.488576 46.78919 
L 336.825058 43.392621 
L 337.498023 50.199425 
L 337.834505 46.746363 
L 338.170988 50.615758 
L 338.843953 45.523312 
L 339.180435 42.679702 
L 339.516917 43.734307 
L 339.8534 45.482442 
L 340.189882 46.08465 
L 340.526365 49.088319 
L 340.862847 48.279934 
L 341.199329 46.179323 
L 341.535812 47.123767 
L 341.872294 45.709701 
L 342.208777 49.38012 
L 342.545259 49.26394 
L 342.881742 42.39721 
L 343.554706 50.338601 
L 343.891189 48.226628 
L 344.227671 50.631389 
L 344.564154 51.656724 
L 344.900636 50.646228 
L 345.237118 48.861891 
L 345.573601 49.817627 
L 345.910083 52.482935 
L 346.246566 44.746003 
L 346.583048 53.402399 
L 346.91953 57.575836 
L 347.256013 49.466454 
L 347.592495 44.75116 
L 347.928978 48.848546 
L 348.26546 45.754784 
L 348.601943 74.731554 
L 348.938425 57.129531 
L 349.274907 50.053667 
L 349.61139 49.272448 
L 349.947872 51.79403 
L 350.284355 63.813142 
L 350.620837 56.011597 
L 350.957319 44.975709 
L 351.293802 50.642734 
L 351.630284 72.706978 
L 351.966767 57.737242 
L 352.303249 54.556345 
L 352.639731 61.820634 
L 352.976214 53.775282 
L 353.312696 49.776445 
L 353.649179 47.964405 
L 353.985661 47.098411 
L 354.322144 48.450658 
L 354.658626 81.449548 
L 354.995108 63.37785 
L 355.668073 53.794862 
L 356.004556 54.439672 
L 356.341038 53.217214 
L 356.67752 49.632519 
L 357.014003 64.439017 
L 357.350485 55.691573 
L 357.686968 52.251437 
L 358.02345 53.124623 
L 358.359932 59.733783 
L 358.696415 54.069569 
L 359.032897 59.030312 
L 359.36938 51.723392 
L 359.705862 50.399951 
L 360.042345 63.009397 
L 360.378827 61.512591 
L 361.051792 52.952167 
L 361.388274 50.417868 
L 361.724757 58.277251 
L 362.397721 55.191014 
L 362.734204 57.790729 
L 363.070686 63.322154 
L 363.407169 82.140049 
L 363.743651 74.737676 
L 364.080133 62.804384 
L 364.416616 60.922507 
L 364.753098 63.618523 
L 365.089581 61.804938 
L 365.426063 56.693968 
L 365.762546 69.774285 
L 366.099028 62.037649 
L 366.43551 76.0038 
L 366.771993 69.441916 
L 366.771993 69.441916 
" clip-path="url(#p350b862267)" style="fill: none; stroke-dasharray: 5.55,2.4; stroke-dashoffset: 0; stroke: #bf00bf; stroke-width: 1.5"/>
   </g>
   <g id="line2d_23">
    <path d="M 57.208174 53.928262 
L 57.544656 53.724046 
L 57.881139 54.06077 
L 58.217621 54.084814 
L 58.554103 53.726965 
L 60.90948 53.697764 
L 61.245963 53.743644 
L 61.582445 54.475935 
L 61.918927 54.826874 
L 62.25541 89.607094 
L 62.591892 53.65653 
L 63.264857 53.647559 
L 63.60134 54.024737 
L 63.937822 54.888562 
L 64.274304 53.680366 
L 65.620234 53.751572 
L 65.956716 53.896883 
L 66.293199 53.600393 
L 66.966164 54.103766 
L 67.302646 53.58662 
L 68.648576 53.639955 
L 69.321541 53.68131 
L 69.658023 53.701492 
L 69.994505 54.760111 
L 70.330988 53.604372 
L 71.003953 53.707705 
L 71.340435 73.875853 
L 71.676917 53.611556 
L 72.686365 53.613015 
L 73.359329 53.635595 
L 73.695812 53.95028 
L 74.032294 53.557163 
L 74.705259 53.622826 
L 75.041742 53.969279 
L 75.378224 54.043005 
L 75.714706 54.412666 
L 76.051189 53.561943 
L 78.406566 53.555639 
L 80.088978 53.55405 
L 80.761943 53.699431 
L 81.434907 53.571292 
L 81.77139 53.658388 
L 82.444355 53.501372 
L 82.780837 53.622129 
L 83.453802 53.551288 
L 83.790284 53.712685 
L 84.463249 53.44685 
L 84.799731 53.53156 
L 85.472696 53.49418 
L 86.145661 53.536665 
L 87.155108 53.530287 
L 87.491591 53.610023 
L 87.828073 54.965184 
L 88.164556 53.490582 
L 88.83752 53.593708 
L 89.174003 54.174703 
L 89.510485 53.519376 
L 93.211792 53.482061 
L 94.221239 53.689104 
L 94.557721 53.482494 
L 95.567169 53.540445 
L 96.240133 53.430825 
L 97.586063 53.539861 
L 97.922546 54.35646 
L 98.259028 53.451587 
L 98.931993 53.621038 
L 99.604958 53.476514 
L 100.950887 53.453462 
L 101.623852 53.497471 
L 101.960334 53.418576 
L 102.633299 53.440615 
L 103.642747 53.451297 
L 105.325159 53.531253 
L 105.661641 54.213192 
L 105.998123 53.472366 
L 106.334606 53.454921 
L 106.671088 53.560735 
L 107.680535 53.494553 
L 108.3535 53.501424 
L 111.381842 53.48504 
L 112.054807 53.483771 
L 113.400736 53.454835 
L 115.083149 53.449608 
L 115.756113 53.497753 
L 116.092596 54.031721 
L 116.429078 53.417325 
L 117.102043 53.477766 
L 117.438525 53.640566 
L 117.775008 54.054133 
L 118.11149 55.908549 
L 118.447973 53.432146 
L 122.149279 53.509097 
L 122.485762 53.479744 
L 122.822244 54.243471 
L 123.158726 53.483914 
L 123.495209 53.554613 
L 124.841139 53.461996 
L 125.514103 53.515891 
L 127.196515 53.495085 
L 127.86948 53.526356 
L 129.21541 53.51644 
L 129.551892 53.77769 
L 129.888375 53.560683 
L 132.916716 53.454601 
L 133.253199 53.576665 
L 134.262646 53.523892 
L 134.935611 53.548153 
L 136.618023 53.509508 
L 140.319329 53.577652 
L 142.674706 53.561865 
L 143.011189 53.956355 
L 143.347671 53.528469 
L 144.020636 53.59854 
L 145.030083 53.617245 
L 145.366566 54.033626 
L 145.703048 53.527767 
L 146.03953 53.550196 
L 146.376013 61.409158 
L 146.712495 54.075635 
L 147.048978 53.834554 
L 147.38546 54.26037 
L 147.721943 53.60671 
L 148.73139 53.618955 
L 149.404355 53.631638 
L 150.077319 53.650408 
L 150.413802 53.633963 
L 150.750284 53.832831 
L 151.086767 53.591772 
L 152.432696 53.601986 
L 153.105661 53.659557 
L 154.115108 53.684549 
L 154.451591 53.715755 
L 154.788073 108.186328 
L 155.124556 112.719844 
L 155.461038 54.897018 
L 155.79752 54.797127 
L 156.134003 54.022018 
L 156.470485 54.221267 
L 156.806968 116.850748 
L 157.14345 119.820687 
L 157.479932 54.502451 
L 157.816415 53.713412 
L 158.152897 57.615918 
L 158.48938 119.04359 
L 158.825862 55.119004 
L 159.162345 53.834117 
L 159.498827 53.61909 
L 159.835309 120.884255 
L 160.171792 121.763399 
L 160.508274 54.910259 
L 160.844757 54.135933 
L 161.181239 53.720466 
L 161.517721 108.758274 
L 161.854204 121.29179 
L 162.190686 118.532423 
L 162.527169 119.358097 
L 162.863651 118.976741 
L 163.200133 54.277712 
L 163.536616 102.018026 
L 163.873098 116.325141 
L 164.209581 113.74608 
L 164.546063 122.486052 
L 164.882546 122.091485 
L 165.219028 107.431517 
L 165.55551 117.949717 
L 165.891993 121.232098 
L 166.228475 120.879085 
L 166.564958 118.36593 
L 166.90144 117.554865 
L 167.237922 118.285943 
L 167.574405 54.491735 
L 167.910887 54.416355 
L 168.24737 54.606689 
L 168.583852 54.14542 
L 168.920334 120.570419 
L 169.256817 122.961753 
L 169.593299 122.620773 
L 169.929782 120.03261 
L 170.266264 54.272931 
L 170.602747 120.203702 
L 171.275711 125.45157 
L 171.612194 126.031973 
L 171.948676 126.001087 
L 172.285159 124.695976 
L 172.621641 124.224739 
L 172.958123 123.393211 
L 173.294606 122.951569 
L 173.967571 124.99696 
L 174.304053 126.251005 
L 174.640535 124.679752 
L 174.977018 122.503705 
L 175.3135 123.043307 
L 175.986465 127.21783 
L 176.322948 126.210863 
L 176.65943 126.716236 
L 176.995912 126.46637 
L 177.332395 125.231265 
L 177.668877 122.512824 
L 178.00536 121.460769 
L 178.341842 121.907247 
L 179.351289 128.137325 
L 179.687772 125.962084 
L 180.024254 126.009258 
L 180.697219 126.945016 
L 181.033701 127.810668 
L 181.370184 127.646807 
L 181.706666 127.993732 
L 182.379631 126.843163 
L 182.716113 127.664806 
L 183.052596 128.902099 
L 183.389078 129.073472 
L 183.725561 128.210816 
L 184.062043 127.693535 
L 184.398525 126.563512 
L 185.07149 127.185901 
L 185.407973 127.345536 
L 186.080938 130.498912 
L 186.41742 129.880675 
L 186.753902 129.887126 
L 187.090385 129.32995 
L 187.426867 129.469009 
L 187.76335 128.937249 
L 188.099832 128.767075 
L 188.436314 129.203759 
L 188.772797 128.877756 
L 189.109279 129.487467 
L 189.445762 129.800888 
L 189.782244 130.994768 
L 190.118726 131.016435 
L 190.455209 131.346071 
L 190.791691 131.833142 
L 191.128174 131.799858 
L 191.464656 132.342049 
L 191.801139 131.080669 
L 192.137621 130.601245 
L 192.474103 130.468767 
L 193.147068 131.709666 
L 193.483551 131.725583 
L 194.156515 130.299857 
L 194.492998 130.944351 
L 195.165963 130.15723 
L 195.502445 130.58677 
L 195.838927 131.508824 
L 196.17541 131.324257 
L 196.511892 132.186887 
L 196.848375 131.713762 
L 197.184857 131.91777 
L 197.52134 132.353575 
L 197.857822 131.952193 
L 198.194304 132.128451 
L 198.867269 130.589333 
L 199.203752 130.564839 
L 199.540234 130.878762 
L 199.876716 130.621747 
L 200.213199 131.24337 
L 200.549681 132.508365 
L 201.222646 131.339602 
L 201.559128 132.390531 
L 201.895611 131.853549 
L 202.232093 132.161834 
L 202.568576 131.164258 
L 202.905058 131.453011 
L 203.241541 132.450132 
L 203.578023 133.045689 
L 203.914505 133.959888 
L 204.250988 133.860786 
L 204.58747 132.400572 
L 204.923953 131.876441 
L 205.260435 131.587238 
L 205.596917 131.7592 
L 205.9334 131.752182 
L 206.269882 131.985607 
L 206.606365 130.663072 
L 206.942847 130.712112 
L 207.279329 131.650243 
L 207.615812 130.864863 
L 208.288777 132.559636 
L 208.625259 134.68064 
L 208.961742 135.47042 
L 210.307671 132.799002 
L 210.644154 133.196015 
L 210.980636 131.801798 
L 211.317118 131.190134 
L 211.653601 130.892492 
L 211.990083 132.305435 
L 212.326566 132.913835 
L 212.99953 130.922355 
L 213.336013 131.445187 
L 213.672495 133.252646 
L 214.008978 133.509375 
L 214.34546 133.405422 
L 214.681943 132.972891 
L 215.354907 130.650905 
L 215.69139 131.487404 
L 216.027872 131.92727 
L 216.364355 131.68641 
L 216.700837 133.179609 
L 217.037319 133.955619 
L 217.373802 135.252794 
L 217.710284 134.77169 
L 218.046767 133.860786 
L 218.719731 132.838005 
L 219.392696 132.82502 
L 219.729179 133.27362 
L 220.065661 132.707394 
L 220.402144 131.872068 
L 220.738626 131.553378 
L 221.411591 132.451488 
L 221.748073 131.353917 
L 222.421038 133.605663 
L 222.75752 134.249364 
L 223.766968 132.609018 
L 224.10345 132.670399 
L 224.439932 131.359814 
L 224.776415 130.83063 
L 225.112897 131.326816 
L 225.44938 131.028879 
L 225.785862 130.117469 
L 226.122345 131.690061 
L 226.458827 132.710022 
L 226.795309 132.475073 
L 227.131792 131.185055 
L 227.468274 130.357155 
L 227.804757 132.07566 
L 228.141239 132.906011 
L 228.477721 134.179791 
L 228.814204 134.386241 
L 229.150686 133.441412 
L 229.487169 133.706178 
L 230.160133 132.390994 
L 230.496616 132.882426 
L 230.833098 132.718981 
L 231.169581 132.876871 
L 231.506063 132.767848 
L 231.842546 133.956377 
L 232.51551 131.827137 
L 233.188475 133.167083 
L 233.524958 133.569954 
L 234.197922 133.119644 
L 234.870887 130.365867 
L 235.543852 130.413738 
L 235.880334 129.51559 
L 236.216817 128.985047 
L 237.226264 130.77442 
L 237.562747 130.316787 
L 238.235711 131.206397 
L 238.572194 128.764356 
L 238.908676 128.650769 
L 239.245159 128.966428 
L 239.581641 129.609116 
L 239.918123 128.619035 
L 240.927571 129.709353 
L 241.264053 128.916076 
L 241.600535 128.589055 
L 241.937018 128.907208 
L 242.609983 128.954313 
L 242.946465 128.298735 
L 243.282948 128.085145 
L 243.61943 128.065245 
L 243.955912 128.187236 
L 244.292395 129.698931 
L 244.628877 129.410057 
L 244.96536 128.96538 
L 245.638324 129.042479 
L 245.974807 128.814513 
L 246.311289 127.393988 
L 246.647772 127.519092 
L 246.984254 127.421098 
L 247.320736 128.134363 
L 247.657219 127.389463 
L 247.993701 127.010609 
L 248.666666 128.382008 
L 249.003149 128.402016 
L 249.339631 129.386117 
L 249.676113 128.656939 
L 250.012596 126.69205 
L 250.349078 127.051618 
L 251.022043 126.283155 
L 251.358525 126.095406 
L 251.695008 125.06016 
L 252.03149 125.193343 
L 252.367973 125.703683 
L 252.704455 125.512648 
L 253.040938 126.507981 
L 253.37742 126.597805 
L 254.050385 127.074367 
L 254.386867 125.086001 
L 255.059832 125.371753 
L 255.396314 126.740657 
L 255.732797 127.595515 
L 256.069279 124.94165 
L 256.405762 125.425058 
L 256.742244 124.595556 
L 257.078726 125.716855 
L 257.415209 126.040338 
L 257.751691 125.951947 
L 258.424656 119.242718 
L 259.097621 122.307764 
L 259.434103 118.925704 
L 259.770586 122.701093 
L 260.107068 122.786695 
L 260.443551 122.302616 
L 260.780033 120.920821 
L 261.116515 111.489631 
L 261.452998 120.741355 
L 261.78948 122.149783 
L 262.462445 123.912154 
L 262.798927 121.701179 
L 263.13541 122.096772 
L 263.808375 123.924906 
L 264.144857 124.14496 
L 264.48134 124.902594 
L 264.817822 124.94537 
L 265.154304 123.523259 
L 265.490787 124.257053 
L 266.163752 120.092328 
L 266.500234 119.401396 
L 266.836716 57.388221 
L 267.173199 122.723158 
L 267.509681 121.969893 
L 267.846164 118.640589 
L 268.182646 104.591874 
L 268.519128 54.750516 
L 268.855611 114.861026 
L 269.192093 54.563797 
L 269.528576 53.834857 
L 269.865058 54.183086 
L 270.201541 121.974967 
L 270.538023 119.131899 
L 270.874505 110.616631 
L 271.210988 66.504761 
L 271.54747 55.343228 
L 271.883953 54.040381 
L 272.556917 53.662657 
L 273.229882 53.68758 
L 273.566365 53.589049 
L 274.575812 53.613214 
L 274.912294 54.021602 
L 275.248777 53.838031 
L 275.585259 53.947197 
L 275.921742 54.563091 
L 276.258224 54.16393 
L 276.931189 53.696283 
L 277.267671 54.104844 
L 277.604154 53.639488 
L 277.940636 53.614712 
L 278.277118 54.001801 
L 278.613601 53.793935 
L 279.95953 53.575687 
L 280.632495 53.599566 
L 282.314907 53.611659 
L 282.65139 53.809129 
L 282.987872 53.639444 
L 285.006767 53.539948 
L 285.679731 53.579705 
L 292.745862 53.481078 
L 293.082345 70.487503 
L 293.418827 53.996835 
L 293.755309 53.702618 
L 294.091792 53.566286 
L 294.764757 53.612214 
L 295.101239 54.371493 
L 295.437721 53.488179 
L 295.774204 53.801985 
L 296.110686 53.499956 
L 297.793098 53.528387 
L 299.139028 53.517263 
L 299.811993 53.526131 
L 300.148475 53.952687 
L 300.484958 53.538458 
L 301.157922 53.507642 
L 301.494405 54.010989 
L 301.830887 53.441091 
L 302.840334 53.541545 
L 304.859229 53.472717 
L 305.532194 53.520428 
L 305.868676 53.929401 
L 306.205159 53.510201 
L 309.569983 53.533691 
L 309.906465 53.96026 
L 310.242948 53.464187 
L 313.944254 53.521645 
L 314.280736 54.894243 
L 314.617219 53.453206 
L 315.290184 53.50969 
L 316.299631 53.47134 
L 317.982043 53.475813 
L 318.318525 53.459316 
L 318.655008 53.623519 
L 318.99149 54.598263 
L 319.664455 53.390475 
L 320.33742 53.433298 
L 322.692797 53.486646 
L 323.029279 53.583108 
L 324.038726 53.458697 
L 325.721139 53.473929 
L 326.394103 53.659444 
L 326.730586 53.453982 
L 327.403551 53.518947 
L 327.740033 53.906219 
L 328.076515 53.426842 
L 329.758927 53.517376 
L 330.09541 53.687333 
L 330.431892 53.44407 
L 330.768375 53.408621 
L 331.777822 53.680418 
L 332.114304 53.48517 
L 333.460234 53.512673 
L 333.796716 53.805717 
L 334.133199 53.47396 
L 336.825058 53.509863 
L 337.161541 53.880252 
L 337.498023 53.461897 
L 337.834505 53.563554 
L 338.170988 54.212326 
L 338.50747 53.456056 
L 349.947872 53.575002 
L 350.284355 54.004005 
L 350.620837 53.588464 
L 350.957319 53.616933 
L 351.293802 53.810177 
L 351.630284 53.522589 
L 352.303249 53.495795 
L 352.639731 54.400599 
L 352.976214 53.630213 
L 353.312696 53.679518 
L 353.649179 53.547144 
L 354.322144 53.674893 
L 354.658626 54.084186 
L 354.995108 53.546486 
L 355.331591 53.557657 
L 355.668073 53.889791 
L 356.004556 53.653244 
L 356.341038 53.952964 
L 356.67752 53.652928 
L 357.014003 53.969227 
L 357.350485 53.565503 
L 358.359932 53.529634 
L 358.696415 55.359448 
L 359.032897 53.68658 
L 359.36938 54.106438 
L 359.705862 53.614011 
L 362.061239 53.59146 
L 362.397721 53.634374 
L 362.734204 53.964755 
L 363.070686 53.642644 
L 363.407169 53.905357 
L 363.743651 53.572071 
L 364.416616 53.683991 
L 365.089581 53.598865 
L 365.426063 54.094059 
L 365.762546 53.622536 
L 367.108475 53.695833 
L 367.444958 55.056567 
L 367.78144 54.508803 
L 368.117922 53.74661 
L 368.454405 54.305419 
L 368.790887 53.663878 
L 370.136817 53.759695 
L 370.473299 54.021424 
L 370.809782 54.085944 
L 370.809782 54.085944 
" clip-path="url(#p350b862267)" style="fill: none; stroke-dasharray: 9.6,2.4,1.5,2.4; stroke-dashoffset: 0; stroke: #008000; stroke-width: 1.5"/>
   </g>
   <g id="line2d_24">
    <path d="M 73.359329 53.595916 
L 78.070083 53.595916 
L 78.406566 128.357323 
L 78.743048 53.595916 
L 170.602747 53.595916 
L 170.939229 128.481985 
L 171.275711 128.505964 
L 171.612194 53.595916 
L 172.621641 53.595916 
L 172.958123 128.525393 
L 173.294606 128.539915 
L 173.631088 53.595916 
L 174.304053 53.595916 
L 174.640535 128.536105 
L 174.977018 53.595916 
L 175.649983 53.595916 
L 175.986465 128.544868 
L 176.322948 128.549376 
L 176.65943 53.595916 
L 177.332395 53.595916 
L 177.668877 128.485068 
L 178.341842 128.533619 
L 179.014807 128.535836 
L 179.351289 53.595916 
L 179.687772 128.450312 
L 180.360736 128.510381 
L 181.033701 128.550948 
L 181.370184 128.481046 
L 182.379631 128.544998 
L 183.389078 128.53252 
L 183.725561 53.595916 
L 184.735008 53.595916 
L 185.07149 128.543531 
L 186.080938 128.540993 
L 186.41742 53.595916 
L 186.753902 128.541604 
L 189.782244 128.559408 
L 197.52134 128.577953 
L 222.75752 128.592675 
L 276.931189 128.545319 
L 277.604154 128.544409 
L 282.65139 128.537884 
L 282.987872 53.595916 
L 283.324355 128.553896 
L 284.333802 128.467272 
L 284.670284 53.595916 
L 285.006767 128.515685 
L 285.343249 53.595916 
L 286.016214 53.595916 
L 286.352696 128.550285 
L 287.025661 128.495075 
L 287.362144 53.595916 
L 386.960938 53.595916 
L 386.960938 53.595916 
" clip-path="url(#p350b862267)" style="fill: none; stroke-dasharray: 1.5,2.475; stroke-dashoffset: 0; stroke: #ff0000; stroke-width: 1.5"/>
   </g>
   <g id="patch_3">
    <path d="M 52.160938 171.8122 
L 52.160938 8.7322 
" style="fill: none; stroke: #000000; stroke-width: 0.8; stroke-linejoin: miter; stroke-linecap: square"/>
   </g>
   <g id="patch_4">
    <path d="M 386.960938 171.8122 
L 386.960938 8.7322 
" style="fill: none; stroke: #000000; stroke-width: 0.8; stroke-linejoin: miter; stroke-linecap: square"/>
   </g>
   <g id="patch_5">
    <path d="M 52.160938 171.8122 
L 386.960938 171.8122 
" style="fill: none; stroke: #000000; stroke-width: 0.8; stroke-linejoin: miter; stroke-linecap: square"/>
   </g>
   <g id="patch_6">
    <path d="M 52.160938 8.7322 
L 386.960938 8.7322 
" style="fill: none; stroke: #000000; stroke-width: 0.8; stroke-linejoin: miter; stroke-linecap: square"/>
   </g>
   <g id="legend_1">
    <g id="patch_7">
     <path d="M 59.160938 166.8122 
L 160.248438 166.8122 
Q 162.248438 166.8122 162.248438 164.8122 
L 162.248438 107.0997 
Q 162.248438 105.0997 160.248438 105.0997 
L 59.160938 105.0997 
Q 57.160938 105.0997 57.160938 107.0997 
L 57.160938 164.8122 
Q 57.160938 166.8122 59.160938 166.8122 
z
" style="fill: #ffffff; opacity: 0.8; stroke: #cccccc; stroke-linejoin: miter"/>
    </g>
    <g id="line2d_25">
     <path d="M 61.160938 113.198137 
L 71.160938 113.198137 
L 81.160938 113.198137 
" style="fill: none; stroke: #1f77b4; stroke-width: 1.5; stroke-linecap: square"/>
    </g>
    <g id="text_13">
     <!-- 1-step preds -->
     <g transform="translate(89.160938 116.698137)scale(0.1 -0.1)">
      <defs>
       <path id="DejaVuSans-2d" d="M 313 2009 
L 1997 2009 
L 1997 1497 
L 313 1497 
L 313 2009 
z
" transform="scale(0.015625)"/>
       <path id="DejaVuSans-73" d="M 2834 3397 
L 2834 2853 
Q 2591 2978 2328 3040 
Q 2066 3103 1784 3103 
Q 1356 3103 1142 2972 
Q 928 2841 928 2578 
Q 928 2378 1081 2264 
Q 1234 2150 1697 2047 
L 1894 2003 
Q 2506 1872 2764 1633 
Q 3022 1394 3022 966 
Q 3022 478 2636 193 
Q 2250 -91 1575 -91 
Q 1294 -91 989 -36 
Q 684 19 347 128 
L 347 722 
Q 666 556 975 473 
Q 1284 391 1588 391 
Q 1994 391 2212 530 
Q 2431 669 2431 922 
Q 2431 1156 2273 1281 
Q 2116 1406 1581 1522 
L 1381 1569 
Q 847 1681 609 1914 
Q 372 2147 372 2553 
Q 372 3047 722 3315 
Q 1072 3584 1716 3584 
Q 2034 3584 2315 3537 
Q 2597 3491 2834 3397 
z
" transform="scale(0.015625)"/>
       <path id="DejaVuSans-70" d="M 1159 525 
L 1159 -1331 
L 581 -1331 
L 581 3500 
L 1159 3500 
L 1159 2969 
Q 1341 3281 1617 3432 
Q 1894 3584 2278 3584 
Q 2916 3584 3314 3078 
Q 3713 2572 3713 1747 
Q 3713 922 3314 415 
Q 2916 -91 2278 -91 
Q 1894 -91 1617 61 
Q 1341 213 1159 525 
z
M 3116 1747 
Q 3116 2381 2855 2742 
Q 2594 3103 2138 3103 
Q 1681 3103 1420 2742 
Q 1159 2381 1159 1747 
Q 1159 1113 1420 752 
Q 1681 391 2138 391 
Q 2594 391 2855 752 
Q 3116 1113 3116 1747 
z
" transform="scale(0.015625)"/>
       <path id="DejaVuSans-20" transform="scale(0.015625)"/>
       <path id="DejaVuSans-72" d="M 2631 2963 
Q 2534 3019 2420 3045 
Q 2306 3072 2169 3072 
Q 1681 3072 1420 2755 
Q 1159 2438 1159 1844 
L 1159 0 
L 581 0 
L 581 3500 
L 1159 3500 
L 1159 2956 
Q 1341 3275 1631 3429 
Q 1922 3584 2338 3584 
Q 2397 3584 2469 3576 
Q 2541 3569 2628 3553 
L 2631 2963 
z
" transform="scale(0.015625)"/>
       <path id="DejaVuSans-64" d="M 2906 2969 
L 2906 4863 
L 3481 4863 
L 3481 0 
L 2906 0 
L 2906 525 
Q 2725 213 2448 61 
Q 2172 -91 1784 -91 
Q 1150 -91 751 415 
Q 353 922 353 1747 
Q 353 2572 751 3078 
Q 1150 3584 1784 3584 
Q 2172 3584 2448 3432 
Q 2725 3281 2906 2969 
z
M 947 1747 
Q 947 1113 1208 752 
Q 1469 391 1925 391 
Q 2381 391 2643 752 
Q 2906 1113 2906 1747 
Q 2906 2381 2643 2742 
Q 2381 3103 1925 3103 
Q 1469 3103 1208 2742 
Q 947 2381 947 1747 
z
" transform="scale(0.015625)"/>
      </defs>
      <use xlink:href="#DejaVuSans-31"/>
      <use xlink:href="#DejaVuSans-2d" x="63.623047"/>
      <use xlink:href="#DejaVuSans-73" x="99.707031"/>
      <use xlink:href="#DejaVuSans-74" x="151.806641"/>
      <use xlink:href="#DejaVuSans-65" x="191.015625"/>
      <use xlink:href="#DejaVuSans-70" x="252.539062"/>
      <use xlink:href="#DejaVuSans-20" x="316.015625"/>
      <use xlink:href="#DejaVuSans-70" x="347.802734"/>
      <use xlink:href="#DejaVuSans-72" x="411.279297"/>
      <use xlink:href="#DejaVuSans-65" x="450.142578"/>
      <use xlink:href="#DejaVuSans-64" x="511.666016"/>
      <use xlink:href="#DejaVuSans-73" x="575.142578"/>
     </g>
    </g>
    <g id="line2d_26">
     <path d="M 61.160938 127.876262 
L 71.160938 127.876262 
L 81.160938 127.876262 
" style="fill: none; stroke-dasharray: 5.55,2.4; stroke-dashoffset: 0; stroke: #bf00bf; stroke-width: 1.5"/>
    </g>
    <g id="text_14">
     <!-- 4-step preds -->
     <g transform="translate(89.160938 131.376262)scale(0.1 -0.1)">
      <use xlink:href="#DejaVuSans-34"/>
      <use xlink:href="#DejaVuSans-2d" x="63.623047"/>
      <use xlink:href="#DejaVuSans-73" x="99.707031"/>
      <use xlink:href="#DejaVuSans-74" x="151.806641"/>
      <use xlink:href="#DejaVuSans-65" x="191.015625"/>
      <use xlink:href="#DejaVuSans-70" x="252.539062"/>
      <use xlink:href="#DejaVuSans-20" x="316.015625"/>
      <use xlink:href="#DejaVuSans-70" x="347.802734"/>
      <use xlink:href="#DejaVuSans-72" x="411.279297"/>
      <use xlink:href="#DejaVuSans-65" x="450.142578"/>
      <use xlink:href="#DejaVuSans-64" x="511.666016"/>
      <use xlink:href="#DejaVuSans-73" x="575.142578"/>
     </g>
    </g>
    <g id="line2d_27">
     <path d="M 61.160938 142.554387 
L 71.160938 142.554387 
L 81.160938 142.554387 
" style="fill: none; stroke-dasharray: 9.6,2.4,1.5,2.4; stroke-dashoffset: 0; stroke: #008000; stroke-width: 1.5"/>
    </g>
    <g id="text_15">
     <!-- 16-step preds -->
     <g transform="translate(89.160938 146.054387)scale(0.1 -0.1)">
      <use xlink:href="#DejaVuSans-31"/>
      <use xlink:href="#DejaVuSans-36" x="63.623047"/>
      <use xlink:href="#DejaVuSans-2d" x="127.246094"/>
      <use xlink:href="#DejaVuSans-73" x="163.330078"/>
      <use xlink:href="#DejaVuSans-74" x="215.429688"/>
      <use xlink:href="#DejaVuSans-65" x="254.638672"/>
      <use xlink:href="#DejaVuSans-70" x="316.162109"/>
      <use xlink:href="#DejaVuSans-20" x="379.638672"/>
      <use xlink:href="#DejaVuSans-70" x="411.425781"/>
      <use xlink:href="#DejaVuSans-72" x="474.902344"/>
      <use xlink:href="#DejaVuSans-65" x="513.765625"/>
      <use xlink:href="#DejaVuSans-64" x="575.289062"/>
      <use xlink:href="#DejaVuSans-73" x="638.765625"/>
     </g>
    </g>
    <g id="line2d_28">
     <path d="M 61.160938 157.232512 
L 71.160938 157.232512 
L 81.160938 157.232512 
" style="fill: none; stroke-dasharray: 1.5,2.475; stroke-dashoffset: 0; stroke: #ff0000; stroke-width: 1.5"/>
    </g>
    <g id="text_16">
     <!-- 64-step preds -->
     <g transform="translate(89.160938 160.732512)scale(0.1 -0.1)">
      <use xlink:href="#DejaVuSans-36"/>
      <use xlink:href="#DejaVuSans-34" x="63.623047"/>
      <use xlink:href="#DejaVuSans-2d" x="127.246094"/>
      <use xlink:href="#DejaVuSans-73" x="163.330078"/>
      <use xlink:href="#DejaVuSans-74" x="215.429688"/>
      <use xlink:href="#DejaVuSans-65" x="254.638672"/>
      <use xlink:href="#DejaVuSans-70" x="316.162109"/>
      <use xlink:href="#DejaVuSans-20" x="379.638672"/>
      <use xlink:href="#DejaVuSans-70" x="411.425781"/>
      <use xlink:href="#DejaVuSans-72" x="474.902344"/>
      <use xlink:href="#DejaVuSans-65" x="513.765625"/>
      <use xlink:href="#DejaVuSans-64" x="575.289062"/>
      <use xlink:href="#DejaVuSans-73" x="638.765625"/>
     </g>
    </g>
   </g>
  </g>
 </g>
 <defs>
  <clipPath id="p350b862267">
   <rect x="52.160938" y="8.7322" width="334.8" height="163.08"/>
  </clipPath>
 </defs>
</svg>
