<?xml version="1.0" encoding="utf-8" standalone="no"?>
<!DOCTYPE svg PUBLIC "-//W3C//DTD SVG 1.1//EN"
  "http://www.w3.org/Graphics/SVG/1.1/DTD/svg11.dtd">
<svg xmlns:xlink="http://www.w3.org/1999/xlink" width="406.885938pt" height="207.83625pt" viewBox="0 0 406.885938 207.83625" xmlns="http://www.w3.org/2000/svg" version="1.1">
 <metadata>
  <rdf:RDF xmlns:dc="http://purl.org/dc/elements/1.1/" xmlns:cc="http://creativecommons.org/ns#" xmlns:rdf="http://www.w3.org/1999/02/22-rdf-syntax-ns#">
   <cc:Work>
    <dc:type rdf:resource="http://purl.org/dc/dcmitype/StillImage"/>
    <dc:date>2022-08-11T13:49:22.454011</dc:date>
    <dc:format>image/svg+xml</dc:format>
    <dc:creator>
     <cc:Agent>
      <dc:title>Matplotlib v3.5.2, https://matplotlib.org/</dc:title>
     </cc:Agent>
    </dc:creator>
   </cc:Work>
  </rdf:RDF>
 </metadata>
 <defs>
  <style type="text/css">*{stroke-linejoin: round; stroke-linecap: butt}</style>
 </defs>
 <g id="figure_1">
  <g id="patch_1">
   <path d="M 0 207.83625 
L 406.885938 207.83625 
L 406.885938 0 
L 0 0 
L 0 207.83625 
z
" style="fill: none"/>
  </g>
  <g id="axes_1">
   <g id="patch_2">
    <path d="M 52.160938 170.28 
L 386.960938 170.28 
L 386.960938 7.2 
L 52.160938 7.2 
z
" style="fill: #ffffff"/>
   </g>
   <g id="matplotlib.axis_1">
    <g id="xtick_1">
     <g id="line2d_1">
      <path d="M 118.852829 170.28 
L 118.852829 7.2 
" clip-path="url(#pd015208eb0)" style="fill: none; stroke: #b0b0b0; stroke-width: 0.8; stroke-linecap: square"/>
     </g>
     <g id="line2d_2">
      <defs>
       <path id="m5d40dc2673" d="M 0 0 
L 0 3.5 
" style="stroke: #000000; stroke-width: 0.8"/>
      </defs>
      <g>
       <use xlink:href="#m5d40dc2673" x="118.852829" y="170.28" style="stroke: #000000; stroke-width: 0.8"/>
      </g>
     </g>
     <g id="text_1">
      <!-- 200 -->
      <g transform="translate(109.309079 184.878438)scale(0.1 -0.1)">
       <defs>
        <path id="DejaVuSans-32" d="M 1228 531 
L 3431 531 
L 3431 0 
L 469 0 
L 469 531 
Q 828 903 1448 1529 
Q 2069 2156 2228 2338 
Q 2531 2678 2651 2914 
Q 2772 3150 2772 3378 
Q 2772 3750 2511 3984 
Q 2250 4219 1831 4219 
Q 1534 4219 1204 4116 
Q 875 4013 500 3803 
L 500 4441 
Q 881 4594 1212 4672 
Q 1544 4750 1819 4750 
Q 2544 4750 2975 4387 
Q 3406 4025 3406 3419 
Q 3406 3131 3298 2873 
Q 3191 2616 2906 2266 
Q 2828 2175 2409 1742 
Q 1991 1309 1228 531 
z
" transform="scale(0.015625)"/>
        <path id="DejaVuSans-30" d="M 2034 4250 
Q 1547 4250 1301 3770 
Q 1056 3291 1056 2328 
Q 1056 1369 1301 889 
Q 1547 409 2034 409 
Q 2525 409 2770 889 
Q 3016 1369 3016 2328 
Q 3016 3291 2770 3770 
Q 2525 4250 2034 4250 
z
M 2034 4750 
Q 2819 4750 3233 4129 
Q 3647 3509 3647 2328 
Q 3647 1150 3233 529 
Q 2819 -91 2034 -91 
Q 1250 -91 836 529 
Q 422 1150 422 2328 
Q 422 3509 836 4129 
Q 1250 4750 2034 4750 
z
" transform="scale(0.015625)"/>
       </defs>
       <use xlink:href="#DejaVuSans-32"/>
       <use xlink:href="#DejaVuSans-30" x="63.623047"/>
       <use xlink:href="#DejaVuSans-30" x="127.246094"/>
      </g>
     </g>
    </g>
    <g id="xtick_2">
     <g id="line2d_3">
      <path d="M 185.879856 170.28 
L 185.879856 7.2 
" clip-path="url(#pd015208eb0)" style="fill: none; stroke: #b0b0b0; stroke-width: 0.8; stroke-linecap: square"/>
     </g>
     <g id="line2d_4">
      <g>
       <use xlink:href="#m5d40dc2673" x="185.879856" y="170.28" style="stroke: #000000; stroke-width: 0.8"/>
      </g>
     </g>
     <g id="text_2">
      <!-- 400 -->
      <g transform="translate(176.336106 184.878438)scale(0.1 -0.1)">
       <defs>
        <path id="DejaVuSans-34" d="M 2419 4116 
L 825 1625 
L 2419 1625 
L 2419 4116 
z
M 2253 4666 
L 3047 4666 
L 3047 1625 
L 3713 1625 
L 3713 1100 
L 3047 1100 
L 3047 0 
L 2419 0 
L 2419 1100 
L 313 1100 
L 313 1709 
L 2253 4666 
z
" transform="scale(0.015625)"/>
       </defs>
       <use xlink:href="#DejaVuSans-34"/>
       <use xlink:href="#DejaVuSans-30" x="63.623047"/>
       <use xlink:href="#DejaVuSans-30" x="127.246094"/>
      </g>
     </g>
    </g>
    <g id="xtick_3">
     <g id="line2d_5">
      <path d="M 252.906883 170.28 
L 252.906883 7.2 
" clip-path="url(#pd015208eb0)" style="fill: none; stroke: #b0b0b0; stroke-width: 0.8; stroke-linecap: square"/>
     </g>
     <g id="line2d_6">
      <g>
       <use xlink:href="#m5d40dc2673" x="252.906883" y="170.28" style="stroke: #000000; stroke-width: 0.8"/>
      </g>
     </g>
     <g id="text_3">
      <!-- 600 -->
      <g transform="translate(243.363133 184.878438)scale(0.1 -0.1)">
       <defs>
        <path id="DejaVuSans-36" d="M 2113 2584 
Q 1688 2584 1439 2293 
Q 1191 2003 1191 1497 
Q 1191 994 1439 701 
Q 1688 409 2113 409 
Q 2538 409 2786 701 
Q 3034 994 3034 1497 
Q 3034 2003 2786 2293 
Q 2538 2584 2113 2584 
z
M 3366 4563 
L 3366 3988 
Q 3128 4100 2886 4159 
Q 2644 4219 2406 4219 
Q 1781 4219 1451 3797 
Q 1122 3375 1075 2522 
Q 1259 2794 1537 2939 
Q 1816 3084 2150 3084 
Q 2853 3084 3261 2657 
Q 3669 2231 3669 1497 
Q 3669 778 3244 343 
Q 2819 -91 2113 -91 
Q 1303 -91 875 529 
Q 447 1150 447 2328 
Q 447 3434 972 4092 
Q 1497 4750 2381 4750 
Q 2619 4750 2861 4703 
Q 3103 4656 3366 4563 
z
" transform="scale(0.015625)"/>
       </defs>
       <use xlink:href="#DejaVuSans-36"/>
       <use xlink:href="#DejaVuSans-30" x="63.623047"/>
       <use xlink:href="#DejaVuSans-30" x="127.246094"/>
      </g>
     </g>
    </g>
    <g id="xtick_4">
     <g id="line2d_7">
      <path d="M 319.93391 170.28 
L 319.93391 7.2 
" clip-path="url(#pd015208eb0)" style="fill: none; stroke: #b0b0b0; stroke-width: 0.8; stroke-linecap: square"/>
     </g>
     <g id="line2d_8">
      <g>
       <use xlink:href="#m5d40dc2673" x="319.93391" y="170.28" style="stroke: #000000; stroke-width: 0.8"/>
      </g>
     </g>
     <g id="text_4">
      <!-- 800 -->
      <g transform="translate(310.39016 184.878438)scale(0.1 -0.1)">
       <defs>
        <path id="DejaVuSans-38" d="M 2034 2216 
Q 1584 2216 1326 1975 
Q 1069 1734 1069 1313 
Q 1069 891 1326 650 
Q 1584 409 2034 409 
Q 2484 409 2743 651 
Q 3003 894 3003 1313 
Q 3003 1734 2745 1975 
Q 2488 2216 2034 2216 
z
M 1403 2484 
Q 997 2584 770 2862 
Q 544 3141 544 3541 
Q 544 4100 942 4425 
Q 1341 4750 2034 4750 
Q 2731 4750 3128 4425 
Q 3525 4100 3525 3541 
Q 3525 3141 3298 2862 
Q 3072 2584 2669 2484 
Q 3125 2378 3379 2068 
Q 3634 1759 3634 1313 
Q 3634 634 3220 271 
Q 2806 -91 2034 -91 
Q 1263 -91 848 271 
Q 434 634 434 1313 
Q 434 1759 690 2068 
Q 947 2378 1403 2484 
z
M 1172 3481 
Q 1172 3119 1398 2916 
Q 1625 2713 2034 2713 
Q 2441 2713 2670 2916 
Q 2900 3119 2900 3481 
Q 2900 3844 2670 4047 
Q 2441 4250 2034 4250 
Q 1625 4250 1398 4047 
Q 1172 3844 1172 3481 
z
" transform="scale(0.015625)"/>
       </defs>
       <use xlink:href="#DejaVuSans-38"/>
       <use xlink:href="#DejaVuSans-30" x="63.623047"/>
       <use xlink:href="#DejaVuSans-30" x="127.246094"/>
      </g>
     </g>
    </g>
    <g id="xtick_5">
     <g id="line2d_9">
      <path d="M 386.960938 170.28 
L 386.960938 7.2 
" clip-path="url(#pd015208eb0)" style="fill: none; stroke: #b0b0b0; stroke-width: 0.8; stroke-linecap: square"/>
     </g>
     <g id="line2d_10">
      <g>
       <use xlink:href="#m5d40dc2673" x="386.960938" y="170.28" style="stroke: #000000; stroke-width: 0.8"/>
      </g>
     </g>
     <g id="text_5">
      <!-- 1000 -->
      <g transform="translate(374.235937 184.878438)scale(0.1 -0.1)">
       <defs>
        <path id="DejaVuSans-31" d="M 794 531 
L 1825 531 
L 1825 4091 
L 703 3866 
L 703 4441 
L 1819 4666 
L 2450 4666 
L 2450 531 
L 3481 531 
L 3481 0 
L 794 0 
L 794 531 
z
" transform="scale(0.015625)"/>
       </defs>
       <use xlink:href="#DejaVuSans-31"/>
       <use xlink:href="#DejaVuSans-30" x="63.623047"/>
       <use xlink:href="#DejaVuSans-30" x="127.246094"/>
       <use xlink:href="#DejaVuSans-30" x="190.869141"/>
      </g>
     </g>
    </g>
    <g id="text_6">
     <!-- tiempo -->
     <g transform="translate(202.03125 198.556563)scale(0.1 -0.1)">
      <defs>
       <path id="DejaVuSans-74" d="M 1172 4494 
L 1172 3500 
L 2356 3500 
L 2356 3053 
L 1172 3053 
L 1172 1153 
Q 1172 725 1289 603 
Q 1406 481 1766 481 
L 2356 481 
L 2356 0 
L 1766 0 
Q 1100 0 847 248 
Q 594 497 594 1153 
L 594 3053 
L 172 3053 
L 172 3500 
L 594 3500 
L 594 4494 
L 1172 4494 
z
" transform="scale(0.015625)"/>
       <path id="DejaVuSans-69" d="M 603 3500 
L 1178 3500 
L 1178 0 
L 603 0 
L 603 3500 
z
M 603 4863 
L 1178 4863 
L 1178 4134 
L 603 4134 
L 603 4863 
z
" transform="scale(0.015625)"/>
       <path id="DejaVuSans-65" d="M 3597 1894 
L 3597 1613 
L 953 1613 
Q 991 1019 1311 708 
Q 1631 397 2203 397 
Q 2534 397 2845 478 
Q 3156 559 3463 722 
L 3463 178 
Q 3153 47 2828 -22 
Q 2503 -91 2169 -91 
Q 1331 -91 842 396 
Q 353 884 353 1716 
Q 353 2575 817 3079 
Q 1281 3584 2069 3584 
Q 2775 3584 3186 3129 
Q 3597 2675 3597 1894 
z
M 3022 2063 
Q 3016 2534 2758 2815 
Q 2500 3097 2075 3097 
Q 1594 3097 1305 2825 
Q 1016 2553 972 2059 
L 3022 2063 
z
" transform="scale(0.015625)"/>
       <path id="DejaVuSans-6d" d="M 3328 2828 
Q 3544 3216 3844 3400 
Q 4144 3584 4550 3584 
Q 5097 3584 5394 3201 
Q 5691 2819 5691 2113 
L 5691 0 
L 5113 0 
L 5113 2094 
Q 5113 2597 4934 2840 
Q 4756 3084 4391 3084 
Q 3944 3084 3684 2787 
Q 3425 2491 3425 1978 
L 3425 0 
L 2847 0 
L 2847 2094 
Q 2847 2600 2669 2842 
Q 2491 3084 2119 3084 
Q 1678 3084 1418 2786 
Q 1159 2488 1159 1978 
L 1159 0 
L 581 0 
L 581 3500 
L 1159 3500 
L 1159 2956 
Q 1356 3278 1631 3431 
Q 1906 3584 2284 3584 
Q 2666 3584 2933 3390 
Q 3200 3197 3328 2828 
z
" transform="scale(0.015625)"/>
       <path id="DejaVuSans-70" d="M 1159 525 
L 1159 -1331 
L 581 -1331 
L 581 3500 
L 1159 3500 
L 1159 2969 
Q 1341 3281 1617 3432 
Q 1894 3584 2278 3584 
Q 2916 3584 3314 3078 
Q 3713 2572 3713 1747 
Q 3713 922 3314 415 
Q 2916 -91 2278 -91 
Q 1894 -91 1617 61 
Q 1341 213 1159 525 
z
M 3116 1747 
Q 3116 2381 2855 2742 
Q 2594 3103 2138 3103 
Q 1681 3103 1420 2742 
Q 1159 2381 1159 1747 
Q 1159 1113 1420 752 
Q 1681 391 2138 391 
Q 2594 391 2855 752 
Q 3116 1113 3116 1747 
z
" transform="scale(0.015625)"/>
       <path id="DejaVuSans-6f" d="M 1959 3097 
Q 1497 3097 1228 2736 
Q 959 2375 959 1747 
Q 959 1119 1226 758 
Q 1494 397 1959 397 
Q 2419 397 2687 759 
Q 2956 1122 2956 1747 
Q 2956 2369 2687 2733 
Q 2419 3097 1959 3097 
z
M 1959 3584 
Q 2709 3584 3137 3096 
Q 3566 2609 3566 1747 
Q 3566 888 3137 398 
Q 2709 -91 1959 -91 
Q 1206 -91 779 398 
Q 353 888 353 1747 
Q 353 2609 779 3096 
Q 1206 3584 1959 3584 
z
" transform="scale(0.015625)"/>
      </defs>
      <use xlink:href="#DejaVuSans-74"/>
      <use xlink:href="#DejaVuSans-69" x="39.208984"/>
      <use xlink:href="#DejaVuSans-65" x="66.992188"/>
      <use xlink:href="#DejaVuSans-6d" x="128.515625"/>
      <use xlink:href="#DejaVuSans-70" x="225.927734"/>
      <use xlink:href="#DejaVuSans-6f" x="289.404297"/>
     </g>
    </g>
   </g>
   <g id="matplotlib.axis_2">
    <g id="ytick_1">
     <g id="line2d_11">
      <path d="M 52.160938 166.398248 
L 386.960938 166.398248 
" clip-path="url(#pd015208eb0)" style="fill: none; stroke: #b0b0b0; stroke-width: 0.8; stroke-linecap: square"/>
     </g>
     <g id="line2d_12">
      <defs>
       <path id="m04178ffe98" d="M 0 0 
L -3.5 0 
" style="stroke: #000000; stroke-width: 0.8"/>
      </defs>
      <g>
       <use xlink:href="#m04178ffe98" x="52.160938" y="166.398248" style="stroke: #000000; stroke-width: 0.8"/>
      </g>
     </g>
     <g id="text_7">
      <!-- −1.5 -->
      <g transform="translate(20.878125 170.197466)scale(0.1 -0.1)">
       <defs>
        <path id="DejaVuSans-2212" d="M 678 2272 
L 4684 2272 
L 4684 1741 
L 678 1741 
L 678 2272 
z
" transform="scale(0.015625)"/>
        <path id="DejaVuSans-2e" d="M 684 794 
L 1344 794 
L 1344 0 
L 684 0 
L 684 794 
z
" transform="scale(0.015625)"/>
        <path id="DejaVuSans-35" d="M 691 4666 
L 3169 4666 
L 3169 4134 
L 1269 4134 
L 1269 2991 
Q 1406 3038 1543 3061 
Q 1681 3084 1819 3084 
Q 2600 3084 3056 2656 
Q 3513 2228 3513 1497 
Q 3513 744 3044 326 
Q 2575 -91 1722 -91 
Q 1428 -91 1123 -41 
Q 819 9 494 109 
L 494 744 
Q 775 591 1075 516 
Q 1375 441 1709 441 
Q 2250 441 2565 725 
Q 2881 1009 2881 1497 
Q 2881 1984 2565 2268 
Q 2250 2553 1709 2553 
Q 1456 2553 1204 2497 
Q 953 2441 691 2322 
L 691 4666 
z
" transform="scale(0.015625)"/>
       </defs>
       <use xlink:href="#DejaVuSans-2212"/>
       <use xlink:href="#DejaVuSans-31" x="83.789062"/>
       <use xlink:href="#DejaVuSans-2e" x="147.412109"/>
       <use xlink:href="#DejaVuSans-35" x="179.199219"/>
      </g>
     </g>
    </g>
    <g id="ytick_2">
     <g id="line2d_13">
      <path d="M 52.160938 140.698074 
L 386.960938 140.698074 
" clip-path="url(#pd015208eb0)" style="fill: none; stroke: #b0b0b0; stroke-width: 0.8; stroke-linecap: square"/>
     </g>
     <g id="line2d_14">
      <g>
       <use xlink:href="#m04178ffe98" x="52.160938" y="140.698074" style="stroke: #000000; stroke-width: 0.8"/>
      </g>
     </g>
     <g id="text_8">
      <!-- −1.0 -->
      <g transform="translate(20.878125 144.497293)scale(0.1 -0.1)">
       <use xlink:href="#DejaVuSans-2212"/>
       <use xlink:href="#DejaVuSans-31" x="83.789062"/>
       <use xlink:href="#DejaVuSans-2e" x="147.412109"/>
       <use xlink:href="#DejaVuSans-30" x="179.199219"/>
      </g>
     </g>
    </g>
    <g id="ytick_3">
     <g id="line2d_15">
      <path d="M 52.160938 114.997901 
L 386.960938 114.997901 
" clip-path="url(#pd015208eb0)" style="fill: none; stroke: #b0b0b0; stroke-width: 0.8; stroke-linecap: square"/>
     </g>
     <g id="line2d_16">
      <g>
       <use xlink:href="#m04178ffe98" x="52.160938" y="114.997901" style="stroke: #000000; stroke-width: 0.8"/>
      </g>
     </g>
     <g id="text_9">
      <!-- −0.5 -->
      <g transform="translate(20.878125 118.79712)scale(0.1 -0.1)">
       <use xlink:href="#DejaVuSans-2212"/>
       <use xlink:href="#DejaVuSans-30" x="83.789062"/>
       <use xlink:href="#DejaVuSans-2e" x="147.412109"/>
       <use xlink:href="#DejaVuSans-35" x="179.199219"/>
      </g>
     </g>
    </g>
    <g id="ytick_4">
     <g id="line2d_17">
      <path d="M 52.160938 89.297728 
L 386.960938 89.297728 
" clip-path="url(#pd015208eb0)" style="fill: none; stroke: #b0b0b0; stroke-width: 0.8; stroke-linecap: square"/>
     </g>
     <g id="line2d_18">
      <g>
       <use xlink:href="#m04178ffe98" x="52.160938" y="89.297728" style="stroke: #000000; stroke-width: 0.8"/>
      </g>
     </g>
     <g id="text_10">
      <!-- 0.0 -->
      <g transform="translate(29.257812 93.096947)scale(0.1 -0.1)">
       <use xlink:href="#DejaVuSans-30"/>
       <use xlink:href="#DejaVuSans-2e" x="63.623047"/>
       <use xlink:href="#DejaVuSans-30" x="95.410156"/>
      </g>
     </g>
    </g>
    <g id="ytick_5">
     <g id="line2d_19">
      <path d="M 52.160938 63.597555 
L 386.960938 63.597555 
" clip-path="url(#pd015208eb0)" style="fill: none; stroke: #b0b0b0; stroke-width: 0.8; stroke-linecap: square"/>
     </g>
     <g id="line2d_20">
      <g>
       <use xlink:href="#m04178ffe98" x="52.160938" y="63.597555" style="stroke: #000000; stroke-width: 0.8"/>
      </g>
     </g>
     <g id="text_11">
      <!-- 0.5 -->
      <g transform="translate(29.257812 67.396774)scale(0.1 -0.1)">
       <use xlink:href="#DejaVuSans-30"/>
       <use xlink:href="#DejaVuSans-2e" x="63.623047"/>
       <use xlink:href="#DejaVuSans-35" x="95.410156"/>
      </g>
     </g>
    </g>
    <g id="ytick_6">
     <g id="line2d_21">
      <path d="M 52.160938 37.897382 
L 386.960938 37.897382 
" clip-path="url(#pd015208eb0)" style="fill: none; stroke: #b0b0b0; stroke-width: 0.8; stroke-linecap: square"/>
     </g>
     <g id="line2d_22">
      <g>
       <use xlink:href="#m04178ffe98" x="52.160938" y="37.897382" style="stroke: #000000; stroke-width: 0.8"/>
      </g>
     </g>
     <g id="text_12">
      <!-- 1.0 -->
      <g transform="translate(29.257812 41.696601)scale(0.1 -0.1)">
       <use xlink:href="#DejaVuSans-31"/>
       <use xlink:href="#DejaVuSans-2e" x="63.623047"/>
       <use xlink:href="#DejaVuSans-30" x="95.410156"/>
      </g>
     </g>
    </g>
    <g id="ytick_7">
     <g id="line2d_23">
      <path d="M 52.160938 12.197209 
L 386.960938 12.197209 
" clip-path="url(#pd015208eb0)" style="fill: none; stroke: #b0b0b0; stroke-width: 0.8; stroke-linecap: square"/>
     </g>
     <g id="line2d_24">
      <g>
       <use xlink:href="#m04178ffe98" x="52.160938" y="12.197209" style="stroke: #000000; stroke-width: 0.8"/>
      </g>
     </g>
     <g id="text_13">
      <!-- 1.5 -->
      <g transform="translate(29.257812 15.996427)scale(0.1 -0.1)">
       <use xlink:href="#DejaVuSans-31"/>
       <use xlink:href="#DejaVuSans-2e" x="63.623047"/>
       <use xlink:href="#DejaVuSans-35" x="95.410156"/>
      </g>
     </g>
    </g>
    <g id="text_14">
     <!-- x -->
     <g transform="translate(14.798438 91.699375)rotate(-90)scale(0.1 -0.1)">
      <defs>
       <path id="DejaVuSans-78" d="M 3513 3500 
L 2247 1797 
L 3578 0 
L 2900 0 
L 1881 1375 
L 863 0 
L 184 0 
L 1544 1831 
L 300 3500 
L 978 3500 
L 1906 2253 
L 2834 3500 
L 3513 3500 
z
" transform="scale(0.015625)"/>
      </defs>
      <use xlink:href="#DejaVuSans-78"/>
     </g>
    </g>
   </g>
   <g id="line2d_25">
    <path d="M 52.160938 91.810549 
L 52.496073 80.181557 
L 52.831208 88.477452 
L 53.166343 74.583691 
L 53.836613 93.487947 
L 54.171748 75.821948 
L 54.506883 82.963363 
L 54.842019 77.833056 
L 55.177154 79.475264 
L 55.512289 83.067898 
L 56.182559 68.372458 
L 57.5231 94.283102 
L 57.858235 86.234301 
L 58.19337 52.291126 
L 58.528505 76.943851 
L 58.86364 80.279237 
L 59.198775 72.568451 
L 59.53391 90.173049 
L 59.869046 61.23884 
L 60.204181 79.886421 
L 60.539316 73.588087 
L 60.874451 76.498601 
L 61.209586 75.86403 
L 61.544721 86.100161 
L 61.879856 68.838223 
L 62.214992 69.630881 
L 62.550127 86.262662 
L 62.885262 61.892701 
L 63.220397 66.812279 
L 63.555532 62.324367 
L 63.890667 77.750971 
L 64.225802 74.533808 
L 64.560938 77.207281 
L 64.896073 82.988612 
L 65.231208 82.187896 
L 65.566343 83.356945 
L 65.901478 54.507237 
L 66.236613 70.697545 
L 66.571748 68.444261 
L 66.906883 83.582446 
L 67.242019 42.59266 
L 67.577154 70.660702 
L 67.912289 62.939022 
L 68.247424 68.853892 
L 68.582559 71.837515 
L 68.917694 56.734243 
L 69.252829 76.28824 
L 69.587965 55.046053 
L 69.9231 49.723176 
L 70.258235 70.367739 
L 70.59337 72.631795 
L 70.928505 48.919013 
L 71.26364 84.086019 
L 71.598775 57.811085 
L 72.269046 63.228826 
L 72.939316 48.901822 
L 73.274451 46.998864 
L 73.609586 50.7009 
L 73.944721 52.453517 
L 74.279856 59.908263 
L 74.950127 47.812015 
L 75.285262 55.876763 
L 75.620397 43.76144 
L 76.290667 74.754649 
L 76.625802 56.80534 
L 76.960938 66.646144 
L 77.296073 60.889193 
L 77.631208 47.0433 
L 77.966343 58.945505 
L 78.301478 42.35814 
L 78.636613 74.76689 
L 78.971748 58.211002 
L 79.306883 59.612261 
L 79.977154 30.274346 
L 80.312289 35.844097 
L 80.647424 55.717282 
L 80.982559 40.913759 
L 81.317694 47.230427 
L 81.652829 61.554306 
L 82.3231 43.601031 
L 82.658235 58.171373 
L 82.99337 50.977374 
L 83.328505 72.636744 
L 83.66364 35.012351 
L 83.998775 40.66476 
L 84.33391 48.877873 
L 84.669046 67.919537 
L 85.004181 36.787691 
L 85.339316 56.340644 
L 85.674451 38.300543 
L 86.009586 55.185641 
L 86.344721 40.013632 
L 87.014992 22.842081 
L 87.350127 44.965496 
L 87.685262 53.132598 
L 88.020397 41.301752 
L 88.355532 42.429396 
L 88.690667 46.89505 
L 89.025802 40.946418 
L 89.360938 52.081011 
L 89.696073 53.989117 
L 90.031208 35.268679 
L 90.701478 55.2149 
L 91.036613 38.779219 
L 91.371748 27.985126 
L 91.706883 44.218541 
L 92.042019 26.353712 
L 92.377154 44.278495 
L 92.712289 40.622068 
L 93.047424 43.190979 
L 93.382559 57.203826 
L 93.717694 25.637168 
L 94.387965 57.668702 
L 94.7231 35.031126 
L 95.058235 50.187593 
L 95.39337 29.047617 
L 95.728505 37.268784 
L 96.06364 33.538228 
L 96.398775 32.035103 
L 96.73391 36.624733 
L 97.069046 47.239422 
L 97.404181 27.546067 
L 97.739316 29.079228 
L 98.074451 39.773015 
L 98.409586 30.234432 
L 98.744721 25.263409 
L 99.079856 39.118502 
L 99.414992 33.064071 
L 99.750127 41.658005 
L 100.085262 26.511253 
L 100.420397 53.45679 
L 100.755532 50.188625 
L 101.090667 54.432713 
L 101.425802 29.298772 
L 101.760938 44.310029 
L 102.096073 32.860948 
L 102.431208 64.547813 
L 102.766343 45.704898 
L 103.101478 37.160862 
L 103.436613 47.180657 
L 103.771748 25.495159 
L 104.106883 52.529573 
L 104.442019 26.090534 
L 104.777154 40.984675 
L 105.112289 47.157634 
L 105.782559 32.236462 
L 106.117694 24.116727 
L 106.452829 41.974167 
L 106.787965 35.367881 
L 107.1231 44.99844 
L 107.458235 49.290103 
L 107.79337 35.02112 
L 108.128505 36.422204 
L 108.46364 41.140789 
L 108.798775 36.321182 
L 109.13391 36.154504 
L 109.469046 22.088963 
L 109.804181 43.992066 
L 110.139316 33.187195 
L 110.474451 33.863066 
L 110.809586 34.860343 
L 111.144721 52.600529 
L 111.479856 43.112365 
L 111.814992 24.545982 
L 112.150127 29.201647 
L 112.485262 30.970535 
L 112.820397 42.983095 
L 113.155532 72.908309 
L 113.825802 20.951313 
L 114.160938 34.635626 
L 114.496073 32.867388 
L 114.831208 34.066416 
L 115.166343 57.548195 
L 115.501478 40.797225 
L 115.836613 34.601037 
L 116.171748 54.205699 
L 116.506883 40.436505 
L 116.842019 31.689383 
L 117.177154 55.556312 
L 117.847424 48.364174 
L 118.182559 37.601202 
L 118.517694 14.612727 
L 118.852829 49.846061 
L 119.187965 56.385049 
L 119.5231 45.778454 
L 119.858235 39.842099 
L 120.19337 49.748515 
L 120.528505 34.513189 
L 120.86364 58.386882 
L 121.198775 46.264648 
L 121.53391 41.262286 
L 121.869046 48.89541 
L 122.539316 53.870273 
L 122.874451 43.497239 
L 123.209586 60.337564 
L 123.544721 49.376114 
L 123.879856 53.523471 
L 124.214992 37.068676 
L 124.550127 52.622259 
L 124.885262 48.12822 
L 125.220397 30.475166 
L 125.555532 65.139029 
L 125.890667 40.536734 
L 126.225802 44.013822 
L 126.560938 52.943804 
L 126.896073 44.480834 
L 127.231208 56.570176 
L 127.566343 51.196135 
L 127.901478 40.198327 
L 128.571748 35.600526 
L 128.906883 65.682189 
L 129.242019 47.150887 
L 129.577154 40.887068 
L 129.912289 54.100044 
L 130.247424 62.16579 
L 130.582559 55.739368 
L 130.917694 46.062052 
L 131.252829 44.347434 
L 131.587965 53.153539 
L 131.9231 49.385054 
L 132.258235 48.761857 
L 132.59337 52.64767 
L 132.928505 48.081284 
L 133.26364 67.625664 
L 133.93391 51.215553 
L 134.269046 51.52021 
L 134.604181 73.357829 
L 134.939316 59.595953 
L 135.274451 56.682694 
L 135.609586 61.371597 
L 135.944721 63.900875 
L 136.279856 63.251106 
L 136.614992 64.544793 
L 136.950127 62.460454 
L 137.285262 66.371376 
L 137.620397 63.504379 
L 137.955532 65.173821 
L 138.625802 35.443512 
L 139.296073 73.427713 
L 139.631208 66.722776 
L 139.966343 67.978184 
L 140.301478 68.152368 
L 140.636613 73.65348 
L 140.971748 49.994258 
L 141.306883 55.295166 
L 141.642019 57.499975 
L 141.977154 92.052064 
L 142.312289 69.33413 
L 142.647424 87.728106 
L 142.982559 68.369383 
L 143.317694 69.38698 
L 143.652829 77.187824 
L 143.987965 77.345328 
L 144.3231 67.638208 
L 144.658235 63.605413 
L 144.99337 76.814478 
L 145.328505 82.242637 
L 145.998775 75.853049 
L 146.33391 60.663603 
L 146.669046 68.869679 
L 147.004181 72.733562 
L 147.339316 84.22062 
L 147.674451 71.827793 
L 148.009586 66.902873 
L 148.344721 67.554883 
L 148.679856 79.101783 
L 149.014992 84.063882 
L 149.350127 66.650035 
L 149.685262 82.424142 
L 150.020397 73.69225 
L 150.355532 98.042915 
L 150.690667 72.167179 
L 151.025802 92.681023 
L 151.360938 77.510758 
L 151.696073 91.12458 
L 152.031208 89.367474 
L 152.366343 97.163098 
L 152.701478 90.383273 
L 153.036613 73.444576 
L 153.706883 97.67353 
L 154.042019 95.381656 
L 154.377154 70.564201 
L 154.712289 75.407463 
L 155.047424 72.820842 
L 155.382559 110.779619 
L 155.717694 62.648081 
L 156.052829 90.50196 
L 156.387965 84.995946 
L 156.7231 82.833457 
L 157.058235 98.138329 
L 157.39337 105.369667 
L 157.728505 80.372083 
L 158.06364 95.307683 
L 158.398775 93.179166 
L 158.73391 81.053782 
L 159.069046 95.543477 
L 159.739316 90.105288 
L 160.074451 110.817102 
L 160.409586 84.443924 
L 160.744721 78.854182 
L 161.079856 100.916286 
L 161.414992 109.815249 
L 161.750127 85.589274 
L 162.085262 82.958622 
L 162.420397 99.095086 
L 162.755532 87.741586 
L 163.090667 84.84519 
L 163.425802 90.023261 
L 163.760938 90.558562 
L 164.096073 85.574566 
L 164.431208 103.296222 
L 164.766343 103.552012 
L 165.436613 82.864463 
L 165.771748 84.215403 
L 166.106883 108.871127 
L 166.442019 98.537216 
L 166.777154 117.929439 
L 167.112289 109.939528 
L 167.447424 107.915875 
L 167.782559 96.051277 
L 168.117694 101.448767 
L 168.452829 94.80132 
L 168.787965 97.053375 
L 169.1231 107.650306 
L 169.458235 111.669069 
L 169.79337 113.425225 
L 170.128505 94.167599 
L 170.46364 91.040895 
L 171.13391 124.346455 
L 171.469046 118.963302 
L 171.804181 100.106551 
L 172.139316 119.552213 
L 172.809586 100.45649 
L 173.144721 83.256583 
L 173.479856 100.030002 
L 173.814992 94.859733 
L 174.150127 111.951584 
L 174.485262 134.9218 
L 175.155532 95.654685 
L 175.490667 112.400849 
L 175.825802 123.545846 
L 176.160938 110.326379 
L 176.496073 122.137758 
L 176.831208 113.963869 
L 177.166343 122.342281 
L 177.501478 107.551238 
L 177.836613 112.16431 
L 178.171748 126.664438 
L 178.506883 130.28611 
L 178.842019 117.272759 
L 179.177154 112.783461 
L 179.512289 117.629723 
L 179.847424 104.336394 
L 180.182559 120.534827 
L 180.517694 115.074031 
L 180.852829 114.919918 
L 181.187965 134.553834 
L 181.5231 141.542369 
L 181.858235 113.910024 
L 182.19337 129.699675 
L 182.528505 122.833202 
L 182.86364 127.686843 
L 183.198775 116.229416 
L 183.53391 123.828353 
L 183.869046 128.737328 
L 184.204181 116.814228 
L 184.539316 132.516989 
L 184.874451 127.546486 
L 185.209586 141.710327 
L 185.544721 126.908774 
L 185.879856 138.244808 
L 186.214992 139.86064 
L 186.550127 133.579884 
L 186.885262 143.782472 
L 187.220397 120.000028 
L 187.555532 132.038191 
L 187.890667 131.437164 
L 188.225802 138.965608 
L 188.896073 134.24328 
L 189.231208 125.577327 
L 189.566343 127.684641 
L 189.901478 141.208358 
L 190.236613 123.254807 
L 190.571748 125.654299 
L 190.906883 138.158062 
L 191.242019 140.827822 
L 191.577154 126.38172 
L 191.912289 148.664404 
L 192.247424 128.424352 
L 192.582559 140.28446 
L 192.917694 142.306308 
L 193.252829 131.444529 
L 193.587965 140.769097 
L 193.9231 127.94791 
L 194.258235 126.155012 
L 194.59337 134.111614 
L 194.928505 134.638144 
L 195.26364 125.529166 
L 195.598775 141.429459 
L 195.93391 148.828428 
L 196.269046 124.855109 
L 196.604181 131.93049 
L 196.939316 154.157433 
L 197.274451 124.911993 
L 197.609586 142.317883 
L 197.944721 125.046357 
L 198.279856 142.063577 
L 198.614992 145.735201 
L 198.950127 142.751611 
L 199.285262 151.991606 
L 199.620397 142.245053 
L 199.955532 126.387522 
L 200.290667 139.65433 
L 200.625802 135.240596 
L 200.960938 136.931544 
L 201.296073 134.885743 
L 201.631208 140.134394 
L 201.966343 117.724097 
L 202.301478 138.266039 
L 202.636613 144.379072 
L 202.971748 119.679632 
L 203.306883 145.028099 
L 203.642019 148.053588 
L 203.977154 162.867273 
L 204.312289 150.080047 
L 204.647424 142.820556 
L 204.982559 147.773069 
L 205.317694 138.183335 
L 205.652829 138.851901 
L 205.987965 149.141967 
L 206.3231 121.375494 
L 206.658235 133.899842 
L 206.99337 133.199413 
L 207.328505 152.194582 
L 207.998775 125.245302 
L 208.33391 130.12681 
L 208.669046 144.952683 
L 209.004181 154.809057 
L 209.339316 136.812136 
L 209.674451 143.456893 
L 210.009586 140.476327 
L 210.344721 124.749329 
L 210.679856 127.526624 
L 211.014992 148.136786 
L 211.350127 134.885845 
L 211.685262 130.324352 
L 212.020397 160.20952 
L 212.355532 146.572185 
L 212.690667 159.357284 
L 213.025802 141.391947 
L 213.360938 141.605475 
L 213.696073 143.440747 
L 214.031208 138.579529 
L 214.366343 142.831512 
L 214.701478 140.591948 
L 215.036613 147.428152 
L 215.371748 133.085459 
L 215.706883 131.960912 
L 216.377154 142.998974 
L 216.712289 139.211629 
L 217.047424 122.533303 
L 217.382559 156.87812 
L 218.387965 138.861601 
L 218.7231 143.268095 
L 219.058235 136.607175 
L 219.39337 142.700606 
L 219.728505 122.012713 
L 220.398775 141.300373 
L 220.73391 126.184087 
L 221.069046 120.725285 
L 221.404181 157.82764 
L 222.074451 130.035435 
L 222.409586 124.782312 
L 222.744721 130.723705 
L 223.079856 155.724386 
L 223.414992 138.611389 
L 223.750127 155.610227 
L 224.420397 135.171489 
L 224.755532 152.632758 
L 225.090667 133.577642 
L 225.425802 136.58178 
L 225.760938 149.113934 
L 226.096073 136.50084 
L 226.431208 142.324151 
L 226.766343 140.366021 
L 227.101478 158.282428 
L 227.436613 126.174344 
L 227.771748 131.313887 
L 228.106883 153.016946 
L 228.442019 144.124117 
L 228.777154 142.799858 
L 229.112289 142.100783 
L 229.447424 142.391038 
L 229.782559 120.181267 
L 230.452829 135.404143 
L 230.787965 127.932233 
L 231.1231 115.971128 
L 231.458235 123.812596 
L 231.79337 135.132399 
L 232.128505 130.155168 
L 232.46364 132.141824 
L 232.798775 124.374274 
L 233.13391 139.661876 
L 233.469046 133.779831 
L 233.804181 104.750328 
L 234.139316 125.964692 
L 234.474451 130.999857 
L 234.809586 125.941613 
L 235.144721 110.327618 
L 235.479856 133.357748 
L 235.814992 127.079287 
L 236.150127 125.061624 
L 236.485262 114.845565 
L 236.820397 123.475286 
L 237.155532 126.52121 
L 237.490667 120.512257 
L 237.825802 122.595833 
L 238.160938 114.843929 
L 238.496073 119.724592 
L 238.831208 119.205607 
L 239.166343 119.96981 
L 239.501478 139.801256 
L 239.836613 115.127612 
L 240.506883 127.21034 
L 241.177154 118.197712 
L 241.512289 106.391734 
L 241.847424 123.452455 
L 242.182559 113.569749 
L 242.517694 124.90793 
L 242.852829 105.781779 
L 243.5231 124.650555 
L 243.858235 122.890264 
L 244.19337 115.934459 
L 244.528505 135.845291 
L 244.86364 110.696856 
L 245.198775 104.557402 
L 245.53391 121.912199 
L 245.869046 107.464013 
L 246.204181 109.420809 
L 246.539316 107.721013 
L 246.874451 100.690345 
L 247.544721 112.793456 
L 247.879856 103.828744 
L 248.214992 119.89301 
L 248.550127 109.022298 
L 248.885262 114.426387 
L 249.220397 115.471583 
L 249.555532 95.229147 
L 249.890667 108.323516 
L 250.225802 109.970919 
L 250.560938 122.989549 
L 250.896073 116.245623 
L 251.231208 91.44026 
L 251.566343 114.474906 
L 251.901478 96.536515 
L 252.236613 118.744757 
L 252.571748 109.605718 
L 252.906883 108.058809 
L 253.242019 84.685583 
L 253.577154 87.160395 
L 253.912289 105.696936 
L 254.247424 93.705497 
L 254.582559 86.043992 
L 254.917694 111.556046 
L 255.252829 87.795916 
L 255.587965 97.637519 
L 255.9231 87.377607 
L 256.258235 91.808916 
L 256.59337 98.030746 
L 256.928505 95.978809 
L 257.26364 99.01539 
L 257.598775 103.581286 
L 257.93391 87.231046 
L 258.269046 99.020205 
L 258.604181 100.721666 
L 258.939316 105.154606 
L 259.274451 98.869678 
L 259.609586 110.08586 
L 260.279856 94.512137 
L 260.614992 107.637167 
L 260.950127 85.610569 
L 261.285262 91.773037 
L 261.620397 93.781422 
L 261.955532 85.339183 
L 262.290667 112.258602 
L 262.625802 81.237137 
L 262.960938 90.941589 
L 263.296073 90.560036 
L 263.631208 88.922394 
L 263.966343 94.152142 
L 264.301478 79.593661 
L 264.636613 87.458397 
L 264.971748 92.398682 
L 265.306883 110.901046 
L 265.642019 72.39291 
L 265.977154 91.495305 
L 266.312289 95.828489 
L 266.647424 84.571547 
L 266.982559 78.296236 
L 267.317694 68.650596 
L 267.652829 80.510219 
L 267.987965 83.133856 
L 268.3231 66.666466 
L 268.658235 68.033206 
L 268.99337 72.843365 
L 269.328505 75.739968 
L 269.66364 71.058499 
L 269.998775 88.857055 
L 270.33391 75.400143 
L 270.669046 90.375961 
L 271.004181 94.226487 
L 271.339316 79.437302 
L 271.674451 70.966982 
L 272.009586 83.497058 
L 272.344721 61.463204 
L 272.679856 76.342203 
L 273.014992 69.436347 
L 273.350127 87.911738 
L 273.685262 87.854968 
L 274.020397 73.192495 
L 274.355532 65.159316 
L 274.690667 59.834793 
L 275.025802 64.531882 
L 275.360937 75.798494 
L 275.696073 65.452103 
L 276.031208 67.782473 
L 276.366343 58.849666 
L 276.701478 74.592887 
L 277.036613 71.634715 
L 277.371748 71.946935 
L 277.706883 54.650943 
L 278.042019 76.604618 
L 278.377154 63.794866 
L 278.712289 62.948048 
L 279.047424 61.412822 
L 279.382559 60.903791 
L 279.717694 63.733779 
L 280.052829 51.478933 
L 280.387965 72.521514 
L 280.7231 60.662902 
L 281.058235 66.29013 
L 281.39337 80.457344 
L 281.728505 61.90135 
L 282.06364 68.155315 
L 282.73391 58.432936 
L 283.069046 60.534698 
L 283.404181 61.449788 
L 283.739316 58.58215 
L 284.074451 64.243784 
L 284.744721 43.216252 
L 285.079856 59.029129 
L 285.414992 43.890155 
L 285.750127 50.472762 
L 286.085262 65.719995 
L 286.755532 49.616954 
L 287.090667 53.427029 
L 287.425802 41.989056 
L 287.760938 43.01376 
L 288.096073 87.247957 
L 288.431208 63.457287 
L 288.766343 58.918814 
L 289.101478 62.059535 
L 289.436613 69.152871 
L 289.771748 71.545833 
L 290.106883 41.613401 
L 290.442019 46.810376 
L 290.777154 24.507361 
L 291.112289 52.356511 
L 291.447424 38.455772 
L 291.782559 58.412905 
L 292.117694 49.295364 
L 292.452829 49.013218 
L 292.787965 53.400871 
L 293.1231 55.610861 
L 293.458235 54.607273 
L 293.79337 47.189628 
L 294.128505 51.469536 
L 294.46364 37.790146 
L 294.798775 56.031222 
L 295.13391 26.888658 
L 295.469046 61.194169 
L 295.804181 45.522602 
L 296.139316 50.163049 
L 296.474451 24.862383 
L 297.144721 47.44829 
L 297.479856 54.256593 
L 297.814992 55.449849 
L 298.485262 42.207866 
L 298.820397 43.062215 
L 299.155532 47.776106 
L 299.490667 30.292594 
L 299.825802 43.528982 
L 300.496073 51.313401 
L 300.831208 28.617694 
L 301.166343 54.395207 
L 301.501478 43.651377 
L 301.836613 42.433936 
L 302.171748 25.654177 
L 302.506883 56.32788 
L 302.842019 45.527764 
L 303.512289 33.27122 
L 303.847424 38.367457 
L 304.182559 40.61052 
L 304.517694 56.091314 
L 304.852829 29.244833 
L 305.187965 42.295295 
L 305.5231 37.91891 
L 305.858235 31.296262 
L 306.19337 45.45395 
L 306.528505 29.1134 
L 306.86364 49.909357 
L 307.53391 36.478019 
L 307.869046 50.058877 
L 308.204181 49.299003 
L 308.539316 53.662192 
L 308.874451 50.442618 
L 309.209586 17.676666 
L 309.544721 42.068082 
L 309.879856 49.879501 
L 310.214992 33.414846 
L 310.550127 41.387 
L 310.885262 44.936348 
L 311.220397 38.417445 
L 311.555532 46.046635 
L 311.890667 44.359729 
L 312.225802 47.354881 
L 312.896073 24.820729 
L 313.231208 40.324451 
L 313.566343 69.956468 
L 313.901478 29.241604 
L 314.236613 26.327205 
L 314.571748 19.96338 
L 314.906883 37.218252 
L 315.242019 27.970187 
L 315.577154 29.962131 
L 315.912289 40.829468 
L 316.247424 36.886116 
L 316.582559 41.183831 
L 316.917694 36.449373 
L 317.252829 44.740363 
L 317.587965 42.327736 
L 317.9231 25.127019 
L 318.258235 53.395755 
L 318.59337 34.287897 
L 318.928505 39.05573 
L 319.26364 20.603767 
L 319.598775 32.058957 
L 319.93391 38.103155 
L 320.269046 33.207128 
L 320.939316 49.947668 
L 321.274451 28.724978 
L 321.609586 24.369029 
L 321.944721 47.826893 
L 322.279856 48.955933 
L 322.614992 28.6377 
L 322.950127 27.688676 
L 323.285262 34.68244 
L 323.620397 33.376428 
L 323.955532 36.340361 
L 324.290667 48.918066 
L 324.625802 49.393534 
L 324.960938 30.619521 
L 325.296073 35.535453 
L 325.631208 22.785023 
L 325.966343 50.340563 
L 326.301478 59.57145 
L 326.636613 40.419244 
L 326.971748 45.180028 
L 327.306883 42.249541 
L 327.642019 31.542271 
L 327.977154 49.077789 
L 328.312289 47.589726 
L 328.647424 28.609881 
L 328.982559 44.250321 
L 329.317694 39.279266 
L 329.652829 49.47398 
L 330.3231 36.156962 
L 330.99337 66.035495 
L 331.328505 51.542979 
L 331.66364 49.584025 
L 331.998775 28.030425 
L 332.33391 41.389769 
L 332.669046 61.46927 
L 333.004181 32.418838 
L 333.339316 36.813506 
L 333.674451 36.962794 
L 334.009586 27.810237 
L 334.344721 48.814798 
L 335.014992 34.973534 
L 335.350127 53.506942 
L 335.685262 33.99777 
L 336.020397 58.41108 
L 336.355532 50.77457 
L 336.690667 51.306131 
L 337.025802 60.857278 
L 337.360937 47.308723 
L 337.696073 49.060415 
L 338.031208 35.349009 
L 338.366343 45.155825 
L 338.701478 41.914042 
L 339.371748 54.400008 
L 339.706883 51.499861 
L 340.042019 47.275886 
L 340.377154 51.389825 
L 340.712289 43.50939 
L 341.047424 61.001021 
L 341.717694 39.524678 
L 342.052829 51.155645 
L 342.387965 56.708539 
L 342.7231 50.952773 
L 343.058235 63.206085 
L 343.39337 58.760081 
L 343.728505 61.57923 
L 344.06364 52.335488 
L 344.398775 61.099984 
L 344.73391 62.835938 
L 345.069046 41.49634 
L 345.404181 68.586596 
L 345.739316 70.398346 
L 346.074451 52.269526 
L 346.409586 47.225449 
L 346.744721 56.945372 
L 347.079856 42.054038 
L 347.414992 79.299852 
L 348.085262 60.911466 
L 348.420397 57.128005 
L 348.755532 64.877498 
L 349.090667 80.131895 
L 349.425802 52.162181 
L 349.760938 51.19256 
L 350.096073 60.731182 
L 350.431208 83.805607 
L 350.766343 74.872244 
L 351.101478 54.966633 
L 351.436613 78.319891 
L 351.771748 58.063264 
L 352.106883 63.71093 
L 352.442019 51.722702 
L 352.777154 52.933216 
L 353.112289 52.907962 
L 353.447424 85.173114 
L 353.782559 80.726071 
L 354.117694 55.391559 
L 354.452829 72.726327 
L 354.787965 67.323283 
L 355.1231 69.01163 
L 355.458235 57.018086 
L 355.79337 77.342617 
L 356.128505 69.271145 
L 356.46364 66.237113 
L 356.798775 67.401459 
L 357.13391 76.828567 
L 357.469046 53.466364 
L 357.804181 75.898931 
L 358.139316 57.527417 
L 358.474451 65.379387 
L 358.809586 79.014899 
L 359.144721 82.391468 
L 359.479856 67.685994 
L 359.814992 69.648982 
L 360.150127 51.638726 
L 360.485262 73.207229 
L 360.820397 71.903753 
L 361.490667 76.49765 
L 361.825802 82.588629 
L 362.160938 95.639801 
L 362.496073 77.245798 
L 362.831208 77.118057 
L 363.166343 57.954006 
L 363.501478 79.841644 
L 363.836613 80.969967 
L 364.171748 78.125692 
L 364.506883 88.233122 
L 364.842019 82.42406 
L 365.177154 91.684786 
L 365.512289 75.967027 
L 365.847424 81.852212 
L 366.182559 116.831167 
L 366.517694 93.231763 
L 366.852829 90.080097 
L 367.187965 105.989037 
L 367.5231 100.02127 
L 367.858235 105.544161 
L 368.19337 89.177986 
L 368.86364 69.062478 
L 369.53391 98.817118 
L 369.869046 87.336294 
L 370.204181 107.970283 
L 370.539316 97.192312 
L 370.874451 97.55705 
L 371.209586 93.710189 
L 371.544721 97.337633 
L 371.879856 83.951175 
L 372.550127 101.489868 
L 372.885262 107.6158 
L 373.555532 94.720136 
L 373.890667 107.341396 
L 374.225802 105.766411 
L 374.560938 77.967305 
L 374.896073 101.605468 
L 375.231208 94.873022 
L 375.566343 90.705582 
L 375.901478 122.627113 
L 376.236613 97.665371 
L 376.571748 110.256646 
L 376.906883 93.294427 
L 377.242019 101.323678 
L 377.577154 105.396266 
L 377.912289 92.516933 
L 378.247424 109.92194 
L 378.582559 100.697534 
L 378.917694 106.879522 
L 379.252829 116.287339 
L 379.587965 102.945349 
L 379.9231 110.744391 
L 380.258235 111.189188 
L 380.59337 103.003677 
L 380.928505 110.107298 
L 381.26364 127.1705 
L 381.598775 111.510344 
L 381.93391 107.517251 
L 382.269046 115.468887 
L 382.604181 118.783466 
L 382.939316 107.910547 
L 383.274451 134.858602 
L 383.609586 116.313356 
L 383.944721 123.870623 
L 384.279856 110.904852 
L 384.614992 128.702564 
L 384.950127 101.088992 
L 385.285262 107.528409 
L 385.620397 129.884398 
L 385.955532 105.450221 
L 386.290667 125.449519 
L 386.625802 105.759276 
L 386.960938 96.900056 
L 386.960938 96.900056 
" clip-path="url(#pd015208eb0)" style="fill: none; stroke: #1f77b4; stroke-width: 1.5; stroke-linecap: square"/>
   </g>
   <g id="patch_3">
    <path d="M 52.160938 170.28 
L 52.160938 7.2 
" style="fill: none; stroke: #000000; stroke-width: 0.8; stroke-linejoin: miter; stroke-linecap: square"/>
   </g>
   <g id="patch_4">
    <path d="M 386.960938 170.28 
L 386.960938 7.2 
" style="fill: none; stroke: #000000; stroke-width: 0.8; stroke-linejoin: miter; stroke-linecap: square"/>
   </g>
   <g id="patch_5">
    <path d="M 52.160938 170.28 
L 386.960938 170.28 
" style="fill: none; stroke: #000000; stroke-width: 0.8; stroke-linejoin: miter; stroke-linecap: square"/>
   </g>
   <g id="patch_6">
    <path d="M 52.160938 7.2 
L 386.960938 7.2 
" style="fill: none; stroke: #000000; stroke-width: 0.8; stroke-linejoin: miter; stroke-linecap: square"/>
   </g>
  </g>
 </g>
 <defs>
  <clipPath id="pd015208eb0">
   <rect x="52.160938" y="7.2" width="334.8" height="163.08"/>
  </clipPath>
 </defs>
</svg>
